<svg width="80" height="80" viewBox="0 0 80 80" fill="none" xmlns="http://www.w3.org/2000/svg">
<g id="icn_m_Medico/Line/Bone">
<path id="Union" fill-rule="evenodd" clip-rule="evenodd" d="M49.8095 13.4664C52.9565 10.3194 58.0492 10.0574 61.1797 13.1879C62.2503 14.2585 62.929 15.5759 63.2252 16.9655C64.6148 17.2618 65.9322 17.9404 67.0028 19.011C70.1333 22.1415 69.8713 27.2342 66.7243 30.3813C64.6283 32.4773 61.7066 33.2826 59.0528 32.6881C58.2385 32.5056 57.4413 32.4106 56.7579 32.4711C56.084 32.5307 55.6428 32.7281 55.3541 33.0168L44.7028 43.6681L43.6694 44.7014L33.0181 55.3527C32.7294 55.6414 32.5321 56.0826 32.4724 56.7565C32.4119 57.4399 32.5069 58.2371 32.6894 59.0515C33.2839 61.7052 32.4786 64.627 30.3826 66.723C27.2356 69.87 22.1428 70.1319 19.0123 67.0015C17.9417 65.9308 17.2631 64.6134 16.9668 63.2239C15.5772 62.9276 14.2598 62.249 13.1892 61.1783C10.0588 58.0479 10.3207 52.9551 13.4677 49.8081C15.5637 47.7121 18.4855 46.9067 21.1392 47.5013C21.9535 47.6837 22.7507 47.7788 23.4342 47.7183C24.108 47.6586 24.5493 47.4612 24.8379 47.1726L47.174 24.8366C47.4626 24.548 47.66 24.1067 47.7197 23.4329C47.7802 22.7494 47.6851 21.9522 47.5027 21.1379C46.9081 18.4842 47.7135 15.5624 49.8095 13.4664ZM58.8227 15.5449C57.1291 13.8514 54.1512 13.8388 52.1665 15.8234C50.8664 17.1236 50.4139 18.8852 50.7554 20.4092C50.9754 21.3912 51.1429 22.564 51.04 23.7268C50.9362 24.8992 50.5441 26.1806 49.531 27.1936L27.195 49.5296C26.1819 50.5427 24.9005 50.9348 23.7281 51.0386C22.5653 51.1416 21.3925 50.974 20.4105 50.754C18.8865 50.4126 17.1249 50.865 15.8247 52.1651C13.8401 54.1498 13.8527 57.1277 15.5462 58.8213C16.2033 59.4783 17.0313 59.8759 17.9229 60.0114C19.0836 60.1879 20.0028 61.1071 20.1792 62.2677C20.3148 63.1593 20.7123 63.9874 21.3694 64.6444C23.0629 66.338 26.0409 66.3506 28.0255 64.3659C29.3257 63.0658 29.7781 61.3041 29.4367 59.7802C29.2167 58.7981 29.0491 57.6254 29.152 56.4626C29.2558 55.2902 29.648 54.0088 30.6611 52.9957L41.3124 42.3444L42.3457 41.3111L52.9971 30.6598C54.0102 29.6467 55.2915 29.2545 56.4639 29.1507C57.6268 29.0478 58.7995 29.2154 59.7816 29.4354C61.3055 29.7768 63.0672 29.3244 64.3673 28.0242C66.352 26.0396 66.3394 23.0616 64.6458 21.3681C63.9888 20.711 63.1607 20.3135 62.2691 20.1779C61.1085 20.0014 60.1893 19.0823 60.0128 17.9216C59.8772 17.03 59.4797 16.2019 58.8227 15.5449Z" fill="white"/>
</g>
</svg>
