<svg width="28" height="32" viewBox="0 0 28 32" fill="none" xmlns="http://www.w3.org/2000/svg">
<path id="Vector" d="M14 31.4736C13.0335 31.4736 12.25 30.7039 12.25 29.7544L12.25 6.3963L2.98744 15.4964C2.30404 16.1678 1.19596 16.1678 0.512552 15.4964C-0.170852 14.825 -0.170852 13.7364 0.512552 13.0649L12.7626 1.0298C12.9303 0.86495 13.1237 0.740583 13.3302 0.656694C13.5318 0.574521 13.7525 0.528383 13.9839 0.526264C14.4263 0.530301 14.8998 0.698079 15.2374 1.0298L27.4874 13.0649C28.1708 13.7364 28.1709 14.825 27.4874 15.4964C26.804 16.1678 25.696 16.1678 25.0126 15.4964L15.75 6.39629L15.75 29.7544C15.75 30.7039 14.9665 31.4736 14 31.4736Z" fill="#2D83B6"/>
</svg>
