<svg width="49" height="48" viewBox="0 0 49 48" fill="none" xmlns="http://www.w3.org/2000/svg">
<g id="icn_m_Medico/Line/Body">
<path id="Union" fill-rule="evenodd" clip-rule="evenodd" d="M24.3334 6C22.6765 6 21.3334 7.34315 21.3334 9C21.3334 10.6569 22.6765 12 24.3334 12C25.9902 12 27.3334 10.6569 27.3334 9C27.3334 7.34315 25.9902 6 24.3334 6ZM19.3334 9C19.3334 6.23858 21.5719 4 24.3334 4C27.0948 4 29.3334 6.23858 29.3334 9C29.3334 11.7614 27.0948 14 24.3334 14C21.5719 14 19.3334 11.7614 19.3334 9ZM11.353 18.6679C11.5188 18.8337 11.8163 19 12.3334 19L16.3344 19C17.9877 19 19.3334 20.3331 19.3334 21.9935V41C19.3334 41.5171 19.4997 41.8146 19.6655 41.9804C19.8407 42.1556 20.0807 42.25 20.3334 42.25C20.586 42.25 20.8261 42.1556 21.0013 41.9804C21.1671 41.8146 21.3334 41.5171 21.3334 41V40.9732C21.3334 39.4862 21.3334 37.1838 21.5921 35.2428C21.7211 34.276 21.9241 33.3129 22.2692 32.5653C22.5976 31.8538 23.2265 31 24.3334 31C25.4403 31 26.0692 31.8538 26.3976 32.5653C26.7426 33.3129 26.9457 34.276 27.0746 35.2428C27.3334 37.1838 27.3334 39.4862 27.3334 40.9732V41C27.3334 41.5171 27.4997 41.8146 27.6655 41.9804C27.8407 42.1556 28.0807 42.25 28.3334 42.25C28.586 42.25 28.8261 42.1556 29.0013 41.9804C29.1671 41.8146 29.3334 41.5171 29.3334 41V22C29.3334 20.3431 30.6765 19 32.3334 19H36.3334C36.8505 19 37.148 18.8337 37.3138 18.6679C37.489 18.4927 37.5834 18.2526 37.5834 18C37.5834 17.7474 37.489 17.5073 37.3138 17.3321C37.148 17.1663 36.8505 17 36.3334 17H12.3334C11.8163 17 11.5188 17.1663 11.353 17.3321C11.1778 17.5073 11.0834 17.7474 11.0834 18C11.0834 18.2526 11.1778 18.4927 11.353 18.6679ZM9.93877 15.9179C10.523 15.3337 11.3505 15 12.3334 15H36.3334C37.3163 15 38.1438 15.3337 38.728 15.9179C39.3028 16.4927 39.5834 17.2526 39.5834 18C39.5834 18.7474 39.3028 19.5073 38.728 20.0821C38.1438 20.6663 37.3163 21 36.3334 21H32.3334C31.7811 21 31.3334 21.4477 31.3334 22V41C31.3334 41.9829 30.9997 42.8104 30.4155 43.3946C29.8407 43.9694 29.0807 44.25 28.3334 44.25C27.586 44.25 26.8261 43.9694 26.2513 43.3946C25.6671 42.8104 25.3334 41.9829 25.3334 41C25.3334 39.486 25.3318 37.3045 25.0921 35.5072C24.9711 34.599 24.7991 33.8746 24.5817 33.4034C24.4678 33.1568 24.3807 33.0546 24.3335 33.0147C24.2811 33.0627 24.1901 33.1758 24.0851 33.4034C23.8676 33.8746 23.6957 34.599 23.5746 35.5072C23.335 37.3045 23.3334 39.486 23.3334 41C23.3334 41.9829 22.9997 42.8104 22.4155 43.3946C21.8407 43.9694 21.0807 44.25 20.3334 44.25C19.586 44.25 18.8261 43.9694 18.2513 43.3946C17.6671 42.8104 17.3334 41.9829 17.3334 41V21.9935C17.3334 21.4448 16.8902 21 16.3344 21H12.3334C11.3505 21 10.523 20.6663 9.93877 20.0821C9.36397 19.5073 9.08337 18.7474 9.08337 18C9.08337 17.2526 9.36397 16.4927 9.93877 15.9179ZM24.2942 32.9916C24.2943 32.9905 24.3002 32.9915 24.3111 32.9982C24.2994 32.9961 24.294 32.9928 24.2942 32.9916Z" fill="#015C93"/>
</g>
</svg>
