<svg width="24" height="24" viewBox="0 0 24 24" fill="none" xmlns="http://www.w3.org/2000/svg">
<g id="calendar_month">
<path id="Union" d="M5.3077 21.4981C4.80257 21.4981 4.375 21.3231 4.025 20.9731C3.675 20.6231 3.5 20.1956 3.5 19.6904V6.30589C3.5 5.80076 3.675 5.37319 4.025 5.02319C4.375 4.67319 4.80257 4.49819 5.3077 4.49819H6.69233V2.38281H8.23075V4.49819H15.8077V2.38281H17.3076V4.49819H18.6923C19.1974 4.49819 19.625 4.67319 19.975 5.02319C20.325 5.37319 20.5 5.80076 20.5 6.30589V19.6904C20.5 20.1956 20.325 20.6231 19.975 20.9731C19.625 21.3231 19.1974 21.4981 18.6923 21.4981H5.3077ZM5.3077 19.9982H18.6923C18.7692 19.9982 18.8397 19.9661 18.9038 19.902C18.9679 19.8379 19 19.7674 19 19.6904V10.3059H4.99997V19.6904C4.99997 19.7674 5.03202 19.8379 5.09612 19.902C5.16024 19.9661 5.23077 19.9982 5.3077 19.9982ZM4.99997 8.80591H19V6.30589C19 6.22896 18.9679 6.15843 18.9038 6.09431C18.8397 6.03021 18.7692 5.99816 18.6923 5.99816H5.3077C5.23077 5.99816 5.16024 6.03021 5.09612 6.09431C5.03202 6.15843 4.99997 6.22896 4.99997 6.30589V8.80591ZM12 14.0751C11.7551 14.0751 11.5465 13.9889 11.374 13.8164C11.2016 13.644 11.1154 13.4354 11.1154 13.1905C11.1154 12.9456 11.2016 12.737 11.374 12.5645C11.5465 12.3921 11.7551 12.3059 12 12.3059C12.2448 12.3059 12.4535 12.3921 12.6259 12.5645C12.7984 12.737 12.8846 12.9456 12.8846 13.1905C12.8846 13.4354 12.7984 13.644 12.6259 13.8164C12.4535 13.9889 12.2448 14.0751 12 14.0751ZM7.99998 14.0751C7.75511 14.0751 7.54646 13.9889 7.37403 13.8164C7.20159 13.644 7.11538 13.4354 7.11538 13.1905C7.11538 12.9456 7.20159 12.737 7.37403 12.5645C7.54646 12.3921 7.75511 12.3059 7.99998 12.3059C8.24484 12.3059 8.45349 12.3921 8.62593 12.5645C8.79836 12.737 8.88458 12.9456 8.88458 13.1905C8.88458 13.4354 8.79836 13.644 8.62593 13.8164C8.45349 13.9889 8.24484 14.0751 7.99998 14.0751ZM16 14.0751C15.7551 14.0751 15.5465 13.9889 15.374 13.8164C15.2016 13.644 15.1154 13.4354 15.1154 13.1905C15.1154 12.9456 15.2016 12.737 15.374 12.5645C15.5465 12.3921 15.7551 12.3059 16 12.3059C16.2448 12.3059 16.4535 12.3921 16.6259 12.5645C16.7984 12.737 16.8846 12.9456 16.8846 13.1905C16.8846 13.4354 16.7984 13.644 16.6259 13.8164C16.4535 13.9889 16.2448 14.0751 16 14.0751ZM12 17.9982C11.7551 17.9982 11.5465 17.9119 11.374 17.7395C11.2016 17.5671 11.1154 17.3584 11.1154 17.1136C11.1154 16.8687 11.2016 16.66 11.374 16.4876C11.5465 16.3152 11.7551 16.2289 12 16.2289C12.2448 16.2289 12.4535 16.3152 12.6259 16.4876C12.7984 16.66 12.8846 16.8687 12.8846 17.1136C12.8846 17.3584 12.7984 17.5671 12.6259 17.7395C12.4535 17.9119 12.2448 17.9982 12 17.9982ZM7.99998 17.9982C7.75511 17.9982 7.54646 17.9119 7.37403 17.7395C7.20159 17.5671 7.11538 17.3584 7.11538 17.1136C7.11538 16.8687 7.20159 16.66 7.37403 16.4876C7.54646 16.3152 7.75511 16.2289 7.99998 16.2289C8.24484 16.2289 8.45349 16.3152 8.62593 16.4876C8.79836 16.66 8.88458 16.8687 8.88458 17.1136C8.88458 17.3584 8.79836 17.5671 8.62593 17.7395C8.45349 17.9119 8.24484 17.9982 7.99998 17.9982ZM16 17.9982C15.7551 17.9982 15.5465 17.9119 15.374 17.7395C15.2016 17.5671 15.1154 17.3584 15.1154 17.1136C15.1154 16.8687 15.2016 16.66 15.374 16.4876C15.5465 16.3152 15.7551 16.2289 16 16.2289C16.2448 16.2289 16.4535 16.3152 16.6259 16.4876C16.7984 16.66 16.8846 16.8687 16.8846 17.1136C16.8846 17.3584 16.7984 17.5671 16.6259 17.7395C16.4535 17.9119 16.2448 17.9982 16 17.9982Z" fill="black"/>
</g>
</svg>
