<svg width="40" height="40" viewBox="0 0 40 40" fill="none" xmlns="http://www.w3.org/2000/svg">
<path d="M6.59966 33.403C7.11044 33.9138 7.724 34.1692 8.44033 34.1692H31.5599C32.2762 34.1692 32.8898 33.9138 33.4006 33.403C33.9114 32.8922 34.1667 32.2787 34.1667 31.5624V8.44277C34.1667 7.72644 33.9114 7.11288 33.4006 6.6021C32.8898 6.09133 32.2762 5.83594 31.5599 5.83594H8.44033C7.724 5.83594 7.11044 6.09133 6.59966 6.6021C6.08888 7.11288 5.8335 7.72644 5.8335 8.44277V31.5624C5.8335 32.2787 6.08888 32.8922 6.59966 33.403Z" fill="white"/>
<path d="M8.44033 34.1692C7.724 34.1692 7.11044 33.9138 6.59966 33.403C6.08888 32.8922 5.8335 32.2787 5.8335 31.5624V8.44277C5.8335 7.72644 6.08888 7.11288 6.59966 6.6021C7.11044 6.09133 7.724 5.83594 8.44033 5.83594H31.5599C32.2762 5.83594 32.8898 6.09133 33.4006 6.6021C33.9114 7.11288 34.1667 7.72644 34.1667 8.44277V31.5624C34.1667 32.2787 33.9114 32.8922 33.4006 33.403C32.8898 33.9138 32.2762 34.1692 31.5599 34.1692H8.44033ZM8.44033 32.0752H31.5599C31.6881 32.0752 31.8057 32.0218 31.9125 31.9149C32.0194 31.8081 32.0728 31.6906 32.0728 31.5624V8.44277C32.0728 8.31455 32.0194 8.19702 31.9125 8.09019C31.8057 7.98333 31.6881 7.9299 31.5599 7.9299H8.44033C8.31211 7.9299 8.19458 7.98333 8.08775 8.09019C7.98088 8.19702 7.92745 8.31455 7.92745 8.44277V31.5624C7.92745 31.6906 7.98088 31.8081 8.08775 31.9149C8.19458 32.0218 8.31211 32.0752 8.44033 32.0752Z" fill="#53A6D8"/>
</svg>
