<svg width="49" height="48" viewBox="0 0 49 48" fill="none" xmlns="http://www.w3.org/2000/svg">
<g id="icn_m_Medico/Line/DNA">
<path id="Union" fill-rule="evenodd" clip-rule="evenodd" d="M18.1298 6.00144C18.6813 6.03078 19.1046 6.50165 19.0752 7.05316C18.8862 10.6047 20.0573 13.0545 22.1122 14.7241C22.5408 15.0724 22.606 15.7022 22.2577 16.1308C21.9095 16.5594 21.2797 16.6246 20.851 16.2763C18.2456 14.1594 16.859 11.0642 17.078 6.9469C17.1074 6.39539 17.5782 5.9721 18.1298 6.00144ZM31.2033 6.00144C31.7548 5.9721 32.2256 6.39539 32.255 6.9469C32.4063 9.79136 31.7939 12.168 30.5055 14.0786C29.2211 15.9833 27.3211 17.3419 25.0369 18.2557C23.6272 18.8196 22.1086 19.483 20.9402 20.4278C19.8018 21.3483 19.0632 22.4777 19.0554 24.0157C19.0454 26.0002 20.2463 27.3294 21.9784 28.3613C22.4529 28.644 22.6084 29.2577 22.3258 29.7322C22.0431 30.2067 21.4294 30.3622 20.9549 30.0795C18.9506 28.8856 17.0403 27.018 17.0554 24.0056C17.0671 21.7002 18.225 20.0513 19.6826 18.8726C21.1102 17.7183 22.8869 16.9617 24.294 16.3988C26.3007 15.596 27.838 14.4571 28.8473 12.9604C29.8526 11.4696 30.3902 9.54085 30.2578 7.05316C30.2285 6.50165 30.6518 6.03078 31.2033 6.00144ZM19.6664 9.00003C19.6664 8.44774 20.1142 8.00003 20.6664 8.00003H28.6664C29.2187 8.00003 29.6664 8.44774 29.6664 9.00003C29.6664 9.55231 29.2187 10 28.6664 10H20.6664C20.1142 10 19.6664 9.55231 19.6664 9.00003ZM21.6664 12C21.6664 11.4477 22.1142 11 22.6664 11H26.6664C27.2187 11 27.6664 11.4477 27.6664 12C27.6664 12.5523 27.2187 13 26.6664 13H22.6664C22.1142 13 21.6664 12.5523 21.6664 12ZM26.9913 18.3198C27.2763 17.8467 27.8908 17.6942 28.3639 17.9791C30.3506 19.1758 32.2626 21.029 32.2776 24.0056C32.2893 26.3354 31.1405 28 29.6752 29.1839C28.2419 30.3419 26.4517 31.0878 25.0256 31.6347C23.0199 32.4038 21.4894 33.5407 20.4847 35.0407C19.4823 36.5374 18.9491 38.4766 19.0753 40.949C19.1035 41.5006 18.6792 41.9706 18.1276 41.9987C17.5761 42.0269 17.1061 41.6026 17.0779 41.051C16.9337 38.2269 17.5402 35.8432 18.823 33.9278C20.1035 32.0158 22.0036 30.6515 24.3095 29.7673C25.7283 29.2233 27.2529 28.5698 28.4183 27.6282C29.5516 26.7125 30.2855 25.5774 30.2776 24.0157C30.2677 22.0603 29.0636 20.7354 27.3319 19.6923C26.8588 19.4074 26.7063 18.7928 26.9913 18.3198ZM21.7775 21.3334C21.7775 20.7811 22.2252 20.3334 22.7775 20.3334H26.5553C27.1076 20.3334 27.5553 20.7811 27.5553 21.3334C27.5553 21.8857 27.1076 22.3334 26.5553 22.3334H22.7775C22.2252 22.3334 21.7775 21.8857 21.7775 21.3334ZM19.8886 24.1667C19.8886 23.6144 20.3363 23.1667 20.8886 23.1667H28.4442C28.9965 23.1667 29.4442 23.6144 29.4442 24.1667C29.4442 24.719 28.9965 25.1667 28.4442 25.1667H20.8886C20.3363 25.1667 19.8886 24.719 19.8886 24.1667ZM21.7775 27C21.7775 26.4478 22.2252 26 22.7775 26H26.5553C27.1076 26 27.5553 26.4478 27.5553 27C27.5553 27.5523 27.1076 28 26.5553 28H22.7775C22.2252 28 21.7775 27.5523 21.7775 27ZM27.0223 31.8329C27.367 31.4014 27.9963 31.3311 28.4277 31.6759C31.0743 33.7906 32.4654 36.9334 32.2551 41.051C32.2269 41.6026 31.757 42.0269 31.2054 41.9987C30.6538 41.9706 30.2295 41.5006 30.2577 40.949C30.4395 37.3896 29.2599 34.9009 27.1792 33.2383C26.7478 32.8936 26.6775 32.2643 27.0223 31.8329ZM21.6664 36C21.6664 35.4477 22.1142 35 22.6664 35H26.6664C27.2187 35 27.6664 35.4477 27.6664 36C27.6664 36.5523 27.2187 37 26.6664 37H22.6664C22.1142 37 21.6664 36.5523 21.6664 36ZM19.6664 39C19.6664 38.4477 20.1142 38 20.6664 38H28.6664C29.2187 38 29.6664 38.4477 29.6664 39C29.6664 39.5523 29.2187 40 28.6664 40H20.6664C20.1142 40 19.6664 39.5523 19.6664 39Z" fill="#015C93"/>
</g>
</svg>
