<svg width="48" height="48" viewBox="0 0 48 48" fill="none" xmlns="http://www.w3.org/2000/svg">
<g id="icn_m_Medico/Line/Heart Rate">
<path id="Union" fill-rule="evenodd" clip-rule="evenodd" d="M16.008 9C11.0939 9 7 13.266 7 18.6775C7 20.5151 7.25358 22.2948 7.72678 24H8.58579L9.88524 22.7005C10.5307 22.0551 11.5982 22.1309 12.1459 22.8612L13.8747 25.1663L17.4941 18.6515C18.1613 17.4505 19.958 17.704 20.2669 19.0427L22.4756 28.6137L25.8432 23.8991C26.382 23.1448 27.469 23.0548 28.1245 23.7102L29.726 25.3118L31.7953 21.1733C32.2532 20.2575 33.4737 20.0595 34.1976 20.7834L36.4142 23H40.388C40.7895 21.5318 41 20.0793 41 18.6775C41 13.266 36.9061 9 31.992 9C29.0898 9 26.4677 10.4966 24.8193 12.852C24.6322 13.1194 24.3264 13.2787 24 13.2787C23.6736 13.2787 23.3678 13.1194 23.1807 12.852C21.5317 10.4957 18.9272 9 16.008 9ZM39.7272 25H36.2071C35.8093 25 35.4278 24.842 35.1464 24.5607L33.274 22.6882L31.2047 26.8267C30.7468 27.7425 29.5263 27.9405 28.8024 27.2166L27.1276 25.5418L23.4584 30.6787C22.7073 31.7302 21.0668 31.4033 20.7762 30.1441L18.6106 20.76L15.2486 26.8116C14.7208 27.7616 13.3894 27.8526 12.7374 26.9832L10.8918 24.5224L9.85355 25.5607C9.57225 25.842 9.19072 26 8.79289 26H8.39429C10.9794 32.6072 16.9148 37.9336 23.9991 40.7187C31.1458 37.8803 37.1929 31.5539 39.7272 25ZM5 18.6775C5 12.2846 9.87009 7 16.008 7C19.1767 7 22.0097 8.41974 24.0004 10.6666C25.9948 8.41917 28.8398 7 31.992 7C38.1299 7 43 12.2846 43 18.6775C43 20.5323 42.6776 22.4273 42.0906 24.2992C39.6732 32.0078 32.6906 39.5658 24.3545 42.7261C24.1261 42.8127 23.8739 42.8127 23.6455 42.7261C15.5003 39.6382 8.56573 33.3254 6.02725 25.3016C5.36156 23.1975 5 20.979 5 18.6775Z" fill="#015C93"/>
</g>
</svg>
