<svg width="24" height="25" viewBox="0 0 24 25" fill="none" xmlns="http://www.w3.org/2000/svg">
<g id="icn_m_yandex">
<path id="Union" fill-rule="evenodd" clip-rule="evenodd" d="M3.37815 10.6216C3.37815 5.14865 8.24302 1.5 12.4998 1.5C16.7565 1.5 21.6214 5.14865 21.6214 10.6216C21.6214 14.7264 19.569 16.0946 17.7732 17.2918C17.1746 17.6909 16.6045 18.0709 16.1484 18.527C15.3486 19.3269 14.8994 20.4775 14.4934 21.5174C13.9734 22.8494 13.5242 24 12.4998 24C11.4753 24 11.0261 22.8494 10.5062 21.5174C10.1002 20.4775 9.65099 19.3269 8.85112 18.527C8.39504 18.0709 7.82494 17.6909 7.22634 17.2918C5.43052 16.0946 3.37815 14.7264 3.37815 10.6216ZM12.4998 13.0541C14.179 13.0541 15.5403 11.6928 15.5403 10.0135C15.5403 8.33427 14.179 6.97297 12.4998 6.97297C10.8205 6.97297 9.45923 8.33427 9.45923 10.0135C9.45923 11.6928 10.8205 13.0541 12.4998 13.0541Z" fill="#E5484D"/>
</g>
</svg>
