<svg width="24" height="24" viewBox="0 0 24 24" fill="none" xmlns="http://www.w3.org/2000/svg">
<g id="icn_m__download">
<path id="Union" d="M12 16.5576L8.3462 12.9038L9.40003 11.85L11.2501 13.65V9.25H12.75V13.65L14.6 11.85L15.6539 12.9038L12 16.5576ZM17.6923 21.5C18.1974 21.5 18.625 21.325 18.975 20.975C19.325 20.625 19.5 20.1974 19.5 19.6923V8.21153L13.7885 2.5H6.30775C5.80262 2.5 5.37505 2.675 5.02505 3.025C4.67505 3.375 4.50005 3.80257 4.50005 4.3077V19.6923C4.50005 20.1974 4.67505 20.625 5.02505 20.975C5.37505 21.325 5.80262 21.5 6.30775 21.5H17.6923ZM17.6923 20H6.30775C6.23082 20 6.16029 19.9679 6.09618 19.9038C6.03208 19.8397 6.00002 19.7692 6.00002 19.6923V4.3077C6.00002 4.23077 6.03208 4.16024 6.09618 4.09613C6.16029 4.03203 6.23082 3.99998 6.30775 3.99998H13.15L18 8.84998V19.6923C18 19.7692 17.968 19.8397 17.9039 19.9038C17.8398 19.9679 17.7692 20 17.6923 20ZM17.6923 20H18H6.00002H17.6923Z" fill="#2D83B6"/>
</g>
</svg>
