<svg width="33" height="32" viewBox="0 0 33 32" fill="none" xmlns="http://www.w3.org/2000/svg">
<g id="icn_L_cart">
<g id="Union">
<path d="M7.2516 28.6666C6.67854 28.6666 6.18769 28.4623 5.77907 28.0537C5.37045 27.6451 5.16614 27.1542 5.16614 26.5812V10.5897C5.16614 10.0167 5.37045 9.52584 5.77907 9.11722C6.18769 8.70862 6.67854 8.50432 7.2516 8.50432H10.6619C10.6619 6.88154 11.2163 5.50291 12.3251 4.36845C13.4339 3.23398 14.7983 2.66675 16.4182 2.66675C18.0382 2.66675 19.4296 3.23467 20.5926 4.37051C21.7555 5.50636 22.337 6.88429 22.337 8.50432H25.7473C26.3203 8.50432 26.8112 8.70862 27.2198 9.11722C27.6284 9.52584 27.8327 10.0167 27.8327 10.5897V26.5812C27.8327 27.1542 27.6284 27.6451 27.2198 28.0537C26.8112 28.4623 26.3203 28.6666 25.7473 28.6666H7.2516ZM7.2516 26.9915H25.7473C25.8498 26.9915 25.9439 26.9487 26.0293 26.8632C26.1148 26.7778 26.1576 26.6837 26.1576 26.5812V10.5897C26.1576 10.4872 26.1148 10.3931 26.0293 10.3077C25.9439 10.2222 25.8498 10.1795 25.7473 10.1795H7.2516C7.14903 10.1795 7.055 10.2222 6.96954 10.3077C6.88405 10.3931 6.8413 10.4872 6.8413 10.5897V26.5812C6.8413 26.6837 6.88405 26.7778 6.96954 26.8632C7.055 26.9487 7.14903 26.9915 7.2516 26.9915ZM12.337 8.50432H20.6618C20.6618 7.34192 20.2587 6.35758 19.4524 5.55132C18.6462 4.74505 17.6618 4.34191 16.4994 4.34191C15.337 4.34191 14.3527 4.74505 13.5464 5.55132C12.7402 6.35758 12.337 7.34192 12.337 8.50432Z" fill="#015C93"/>
<path d="M15.5409 23.2V13.6H17.4509V23.2H15.5409ZM11.6994 19.3515V17.4414H21.2994V19.3515H11.6994Z" fill="#015C93"/>
</g>
</g>
</svg>
