<svg width="24" height="25" viewBox="0 0 24 25" fill="none" xmlns="http://www.w3.org/2000/svg">
<g id="icn_m_ok">
<path id="Union" d="M11.9859 12.3527C9.1609 12.3527 6.8129 10.0067 6.8129 7.23072C6.8129 4.35872 9.1609 2.01172 11.9869 2.01172C14.9089 2.01172 17.1599 4.35772 17.1599 7.23072C17.1549 8.59377 16.6088 9.89905 15.6418 10.8597C14.6748 11.8203 13.366 12.3577 12.0029 12.3537L11.9859 12.3527ZM11.9859 5.02872C10.7899 5.02872 9.8799 6.03372 9.8799 7.23172C9.8799 8.42772 10.7899 9.33772 11.9869 9.33772C13.2319 9.33772 14.0939 8.42772 14.0939 7.23172C14.0949 6.03272 13.2319 5.02872 11.9859 5.02872ZM14.0459 16.6147L16.9689 19.4397C17.5439 20.0607 17.5439 20.9707 16.9689 21.5457C16.3469 22.1667 15.3879 22.1667 14.9089 21.5457L11.9869 18.6727L9.1609 21.5457C8.8739 21.8327 8.4899 21.9757 8.0579 21.9757C7.7229 21.9757 7.3399 21.8317 7.0039 21.5457C6.4289 20.9707 6.4289 20.0607 7.0039 19.4387L9.9739 16.6137C8.90134 16.2961 7.87244 15.8463 6.9109 15.2747C6.1919 14.8917 6.0489 13.9347 6.4319 13.2157C6.9109 12.4977 7.7729 12.3067 8.5399 12.7857C9.5785 13.4195 10.7717 13.7549 11.9884 13.7549C13.2051 13.7549 14.3983 13.4195 15.4369 12.7857C16.2039 12.3067 17.1129 12.4977 17.5439 13.2157C17.9759 13.9347 17.7829 14.8907 17.1119 15.2747C16.2029 15.8497 15.1489 16.2807 14.0469 16.6157L14.0459 16.6147Z" fill="#015C93"/>
</g>
</svg>
