<svg width="24" height="25" viewBox="0 0 24 25" fill="none" xmlns="http://www.w3.org/2000/svg">
<g id="icn_m_vk">
<path id="Union" d="M21.503 18.3931H19.222C18.359 18.3931 18.099 17.6941 16.552 16.1461C15.2 14.8431 14.629 14.6811 14.287 14.6811C13.814 14.6811 13.685 14.8111 13.685 15.4621V17.5141C13.685 18.0691 13.505 18.3941 12.055 18.3941C10.6483 18.2995 9.28416 17.8722 8.07497 17.1472C6.86578 16.4222 5.84612 15.4203 5.1 14.2241C3.32839 12.0191 2.09571 9.43113 1.5 6.66605C1.5 6.32405 1.63 6.01405 2.282 6.01405H4.562C5.148 6.01405 5.359 6.27505 5.589 6.87805C6.696 10.1361 8.585 12.9701 9.352 12.9701C9.646 12.9701 9.774 12.8401 9.774 12.1071V8.75105C9.677 7.22005 8.864 7.09105 8.864 6.53705C8.87428 6.39089 8.94114 6.2545 9.05037 6.15685C9.15961 6.05919 9.30261 6.00797 9.449 6.01405H13.033C13.523 6.01405 13.685 6.25805 13.685 6.84405V11.3741C13.685 11.8631 13.895 12.0251 14.043 12.0251C14.337 12.0251 14.563 11.8631 15.102 11.3251C16.2574 9.91604 17.2013 8.34622 17.904 6.66505C17.9759 6.46321 18.1119 6.29043 18.2912 6.17307C18.4705 6.05571 18.6832 6.00022 18.897 6.01505H21.178C21.862 6.01505 22.007 6.35705 21.862 6.84505C21.0324 8.70347 20.0058 10.4676 18.8 12.1071C18.554 12.4821 18.456 12.6771 18.8 13.1171C19.026 13.4591 19.826 14.1271 20.363 14.7621C21.145 15.5421 21.794 16.4441 22.285 17.4321C22.481 18.0681 22.154 18.3931 21.503 18.3931Z" fill="#015C93"/>
</g>
</svg>
