<svg width="33" height="32" viewBox="0 0 33 32" fill="none" xmlns="http://www.w3.org/2000/svg">
<g id="icn_L_account_circle">
<path id="Union" d="M8.33251 23.3949C9.59804 22.5026 10.8928 21.8069 12.2167 21.3077C13.5406 20.8086 14.9684 20.559 16.5 20.559C18.0316 20.559 19.4617 20.8086 20.7902 21.3077C22.1187 21.8069 23.4157 22.5026 24.6812 23.3949C25.6037 22.3425 26.3027 21.2004 26.7782 19.9685C27.2537 18.7367 27.4915 17.4139 27.4915 16C27.4915 12.918 26.4301 10.3155 24.3073 8.19274C22.1845 6.06994 19.5821 5.00854 16.5 5.00854C13.418 5.00854 10.8155 6.06994 8.69274 8.19274C6.56994 10.3155 5.50854 12.918 5.50854 16C5.50854 17.4139 5.74857 18.7367 6.22864 19.9685C6.70871 21.2004 7.41 22.3425 8.33251 23.3949ZM16.4953 16.8376C15.2905 16.8376 14.2761 16.4241 13.4522 15.597C12.6282 14.77 12.2163 13.754 12.2163 12.5492C12.2163 11.3443 12.6298 10.3299 13.4568 9.50601C14.2839 8.68207 15.2999 8.27011 16.5047 8.27011C17.7096 8.27011 18.7239 8.68364 19.5478 9.51071C20.3718 10.3378 20.7837 11.3537 20.7837 12.5585C20.7837 13.7634 20.3702 14.7778 19.5432 15.6017C18.7161 16.4256 17.7002 16.8376 16.4953 16.8376ZM16.5104 28.6666C14.7536 28.6666 13.1055 28.3359 11.5661 27.6743C10.0268 27.0128 8.6839 26.1082 7.53754 24.9606C6.39119 23.8131 5.48724 22.472 4.82571 20.9372C4.16415 19.4025 3.83337 17.7562 3.83337 15.9984C3.83337 14.2405 4.16415 12.5947 4.82571 11.0611C5.48724 9.52752 6.3918 8.18693 7.53937 7.03937C8.68693 5.8918 10.0281 4.98724 11.5628 4.32571C13.0975 3.66415 14.7438 3.33337 16.5016 3.33337C18.2595 3.33337 19.9053 3.66415 21.4389 4.32571C22.9725 4.98724 24.3131 5.8918 25.4606 7.03937C26.6082 8.18693 27.5128 9.52775 28.1743 11.0618C28.8359 12.5959 29.1666 14.2385 29.1666 15.9896C29.1666 17.7464 28.8359 19.3945 28.1743 20.9339C27.5128 22.4733 26.6082 23.8161 25.4606 24.9625C24.3131 26.1088 22.9723 27.0128 21.4382 27.6743C19.9041 28.3359 18.2615 28.6666 16.5104 28.6666ZM16.5 26.9915C17.7274 26.9915 18.9289 26.7956 20.1047 26.4038C21.2805 26.0121 22.3678 25.4068 23.3667 24.588C22.3678 23.8427 21.2896 23.2641 20.1321 22.8521C18.9745 22.4402 17.7638 22.2342 16.5 22.2342C15.2362 22.2342 14.0234 22.438 12.8615 22.8457C11.6997 23.2534 10.6265 23.8342 9.64187 24.588C10.635 25.4068 11.7195 26.0121 12.8953 26.4038C14.0711 26.7956 15.2727 26.9915 16.5 26.9915ZM16.5012 15.1624C17.2537 15.1624 17.8764 14.9156 18.3692 14.4219C18.8621 13.9282 19.1086 13.3052 19.1086 12.5527C19.1086 11.8002 18.8617 11.1775 18.3681 10.6846C17.8744 10.1917 17.2513 9.94527 16.4988 9.94527C15.7463 9.94527 15.1236 10.1921 14.6308 10.6858C14.1379 11.1795 13.8914 11.8026 13.8914 12.555C13.8914 13.3075 14.1383 13.9302 14.6319 14.4231C15.1256 14.916 15.7487 15.1624 16.5012 15.1624Z" fill="#015C93"/>
</g>
</svg>
