<svg width="24" height="24" viewBox="0 0 24 24" fill="none" xmlns="http://www.w3.org/2000/svg">
<g id="icn_m_format_list">
<path id="Union" d="M9.3077 18.7493V17.2494H20.5V18.7493H9.3077ZM9.3077 12.7493V11.2494H20.5V12.7493H9.3077ZM9.3077 6.74934V5.24939H20.5V6.74934H9.3077ZM5.16345 19.6628C4.706 19.6628 4.3144 19.4999 3.98865 19.1742C3.66288 18.8484 3.5 18.4568 3.5 17.9994C3.5 17.5419 3.66288 17.1503 3.98865 16.8246C4.3144 16.4988 4.706 16.3359 5.16345 16.3359C5.6209 16.3359 6.0125 16.4988 6.33825 16.8246C6.664 17.1503 6.82687 17.5419 6.82687 17.9994C6.82687 18.4568 6.664 18.8484 6.33825 19.1742C6.0125 19.4999 5.6209 19.6628 5.16345 19.6628ZM5.16345 13.6628C4.706 13.6628 4.3144 13.4999 3.98865 13.1742C3.66288 12.8484 3.5 12.4568 3.5 11.9994C3.5 11.5419 3.66288 11.1503 3.98865 10.8246C4.3144 10.4988 4.706 10.3359 5.16345 10.3359C5.6209 10.3359 6.0125 10.4988 6.33825 10.8246C6.664 11.1503 6.82687 11.5419 6.82687 11.9994C6.82687 12.4568 6.664 12.8484 6.33825 13.1742C6.0125 13.4999 5.6209 13.6628 5.16345 13.6628ZM5.16345 7.66279C4.706 7.66279 4.3144 7.49991 3.98865 7.17416C3.66288 6.84841 3.5 6.45681 3.5 5.99936C3.5 5.54191 3.66288 5.15031 3.98865 4.82456C4.3144 4.49881 4.706 4.33594 5.16345 4.33594C5.6209 4.33594 6.0125 4.49881 6.33825 4.82456C6.664 5.15031 6.82687 5.54191 6.82687 5.99936C6.82687 6.45681 6.664 6.84841 6.33825 7.17416C6.0125 7.49991 5.6209 7.66279 5.16345 7.66279Z" fill="#2D83B6"/>
</g>
</svg>
