<svg width="24" height="24" viewBox="0 0 24 24" fill="none" xmlns="http://www.w3.org/2000/svg">
<g id="icn_m_delete_forever">
<path id="Union" d="M9.39997 16.1556L12 13.5556L14.6 16.1556L15.6538 15.1018L13.0538 12.5018L15.6538 9.90176L14.6 8.84794L12 11.4479L9.39997 8.84794L8.34615 9.90176L10.9461 12.5018L8.34615 15.1018L9.39997 16.1556ZM7.3077 20.5017C6.80257 20.5017 6.375 20.3267 6.025 19.9767C5.675 19.6267 5.5 19.1992 5.5 18.694V6.00176H4.5V4.50179H8.99997V3.61719H15V4.50179H19.5V6.00176H18.5V18.694C18.5 19.1992 18.325 19.6267 17.975 19.9767C17.625 20.3267 17.1974 20.5017 16.6922 20.5017H7.3077ZM17 6.00176H6.99997V18.694C6.99997 18.771 7.03203 18.8415 7.09613 18.9056C7.16024 18.9697 7.23077 19.0018 7.3077 19.0018H16.6922C16.7692 19.0018 16.8397 18.9697 16.9038 18.9056C16.9679 18.8415 17 18.771 17 18.694V6.00176Z" fill="#2D83B6"/>
</g>
</svg>
