<svg width="24" height="24" viewBox="0 0 24 24" fill="none" xmlns="http://www.w3.org/2000/svg">
<g id="icn_m_logout">
<path id="Union" d="M5.40001 21C4.90001 21 4.47501 20.825 4.12501 20.475C3.77501 20.125 3.60001 19.7 3.60001 19.2V5.3C3.60001 4.8 3.77501 4.375 4.12501 4.025C4.47501 3.675 4.90001 3.5 5.40001 3.5H12.125V5H5.40001C5.33334 5 5.26667 5.03333 5.20001 5.1C5.13334 5.16667 5.10001 5.23333 5.10001 5.3V19.2C5.10001 19.2667 5.13334 19.3333 5.20001 19.4C5.26667 19.4667 5.33334 19.5 5.40001 19.5H12.125V21H5.40001ZM16.125 16.525L15.1 15.425L17.525 13H9.12501V11.5H17.525L15.1 9.075L16.125 7.975L20.4 12.25L16.125 16.525Z" fill="#2D83B6"/>
</g>
</svg>
