<svg width="24" height="24" viewBox="0 0 24 24" fill="none" xmlns="http://www.w3.org/2000/svg">
<path d="M8.25 8.49998V7.00001H15.75V8.49998H8.25ZM7.3077 22.5C6.80257 22.5 6.375 22.325 6.025 21.975C5.675 21.625 5.5 21.1974 5.5 20.6923V3.30773C5.5 2.8026 5.675 2.37503 6.025 2.02503C6.375 1.67503 6.80257 1.50003 7.3077 1.50003H16.6922C17.1974 1.50003 17.625 1.67503 17.975 2.02503C18.325 2.37503 18.5 2.8026 18.5 3.30773V20.6923C18.5 21.1974 18.325 21.625 17.975 21.975C17.625 22.325 17.1974 22.5 16.6922 22.5H7.3077ZM6.99997 19.75V20.6923C6.99997 20.7692 7.03202 20.8397 7.09613 20.9039C7.16024 20.968 7.23077 21 7.3077 21H16.6922C16.7692 21 16.8397 20.968 16.9038 20.9039C16.9679 20.8397 17 20.7692 17 20.6923V19.75H6.99997ZM6.99997 18.25H17V5.74998H6.99997V18.25ZM6.99997 4.25003H17V3.30773C17 3.2308 16.9679 3.16027 16.9038 3.09616C16.8397 3.03206 16.7692 3.00001 16.6922 3.00001H7.3077C7.23077 3.00001 7.16024 3.03206 7.09613 3.09616C7.03202 3.16027 6.99997 3.2308 6.99997 3.30773V4.25003Z" fill="black"/>
</svg>
