<svg width="32" height="33" viewBox="0 0 32 33" fill="none" xmlns="http://www.w3.org/2000/svg">
<g id="icn_L_search">
<path id="Union" fill-rule="evenodd" clip-rule="evenodd" d="M20.3569 21.264C19.6925 21.8388 18.9213 22.284 18.0434 22.5994C17.1654 22.9149 16.2568 23.0726 15.3176 23.0726C13.0488 23.0726 11.1286 22.2873 9.55704 20.7166C7.98548 19.1459 7.19971 17.2365 7.19971 14.9884C7.19971 12.7403 7.98505 10.8302 9.55574 9.25815C11.1264 7.68606 13.0374 6.90002 15.2888 6.90002C17.5402 6.90002 19.4517 7.68556 21.0233 9.25665C22.595 10.8277 23.3808 12.7377 23.3808 14.9866C23.3808 15.9266 23.221 16.8359 22.9013 17.7145C22.5817 18.5932 22.1313 19.3786 21.5501 20.0709L25.8364 24.3393L24.6343 25.5414L20.3569 21.264ZM19.8449 19.532C18.6044 20.7756 17.0907 21.3974 15.3039 21.3974C13.5095 21.3974 11.9894 20.7756 10.7436 19.532C9.49779 18.2885 8.87487 16.7732 8.87487 14.9863C8.87487 13.1994 9.49779 11.6842 10.7436 10.4406C11.9894 9.19698 13.5095 8.57518 15.3039 8.57518C17.0907 8.57518 18.6044 9.19698 19.8449 10.4406C21.0854 11.6842 21.7057 13.1994 21.7057 14.9863C21.7057 16.7732 21.0854 18.2885 19.8449 19.532Z" fill="#015C93"/>
</g>
</svg>
