<svg width="24" height="25" viewBox="0 0 24 25" fill="none" xmlns="http://www.w3.org/2000/svg">
<g id="icn_m_location_on">
<path id="Union" d="M12 12.25C12.4859 12.25 12.899 12.0798 13.2394 11.7394C13.5798 11.399 13.75 10.9859 13.75 10.5C13.75 10.0141 13.5798 9.60094 13.2394 9.26058C12.899 8.92019 12.4859 8.75 12 8.75C11.5141 8.75 11.1009 8.92019 10.7606 9.26058C10.4202 9.60094 10.25 10.0141 10.25 10.5C10.25 10.9859 10.4202 11.399 10.7606 11.7394C11.1009 12.0798 11.5141 12.25 12 12.25ZM12 20.3019C14.059 18.4609 15.6154 16.7042 16.6692 15.0317C17.7231 13.3593 18.25 11.9154 18.25 10.7C18.25 8.80638 17.6468 7.25797 16.4404 6.05477C15.234 4.85156 13.7538 4.24995 12 4.24995C10.2461 4.24995 8.76599 4.85156 7.55957 6.05477C6.35316 7.25797 5.74995 8.80638 5.74995 10.7C5.74995 11.9154 6.27688 13.3593 7.33073 15.0317C8.38458 16.7042 9.94099 18.4609 12 20.3019ZM12 22.3077C9.39357 20.0436 7.45031 17.942 6.17017 16.0029C4.89006 14.0638 4.25 12.2961 4.25 10.7C4.25 8.27691 5.03012 6.34614 6.59037 4.90768C8.15062 3.46923 9.95382 2.75 12 2.75C14.0461 2.75 15.8493 3.46923 17.4096 4.90768C18.9698 6.34614 19.75 8.27691 19.75 10.7C19.75 12.2961 19.1099 14.0638 17.8298 16.0029C16.5496 17.942 14.6064 20.0436 12 22.3077Z" fill="#2D83B6"/>
</g>
</svg>
