<svg width="24" height="25" viewBox="0 0 24 25" fill="none" xmlns="http://www.w3.org/2000/svg">
<g id="icn_m_ad_units">
<path id="Union" d="M8.25 8.99995V7.49998H15.75V8.99995H8.25ZM7.3077 23C6.80257 23 6.375 22.825 6.025 22.475C5.675 22.125 5.5 21.6974 5.5 21.1922V3.8077C5.5 3.30257 5.675 2.875 6.025 2.525C6.375 2.175 6.80257 2 7.3077 2H16.6922C17.1974 2 17.625 2.175 17.975 2.525C18.325 2.875 18.5 3.30257 18.5 3.8077V21.1922C18.5 21.6974 18.325 22.125 17.975 22.475C17.625 22.825 17.1974 23 16.6922 23H7.3077ZM6.99997 20.25V21.1922C6.99997 21.2692 7.03202 21.3397 7.09613 21.4038C7.16024 21.4679 7.23077 21.5 7.3077 21.5H16.6922C16.7692 21.5 16.8397 21.4679 16.9038 21.4038C16.9679 21.3397 17 21.2692 17 21.1922V20.25H6.99997ZM6.99997 18.75H17V6.24995H6.99997V18.75ZM6.99997 4.75H17V3.8077C17 3.73077 16.9679 3.66024 16.9038 3.59612C16.8397 3.53202 16.7692 3.49997 16.6922 3.49997H7.3077C7.23077 3.49997 7.16024 3.53202 7.09613 3.59612C7.03202 3.66024 6.99997 3.73077 6.99997 3.8077V4.75Z" fill="#2D83B6"/>
</g>
</svg>
