<svg width="24" height="25" viewBox="0 0 24 25" fill="none" xmlns="http://www.w3.org/2000/svg">
<g id="icn_m_2gis">
<path id="Union" fill-rule="evenodd" clip-rule="evenodd" d="M12 23.5C18.0751 23.5 23 18.5751 23 12.5C23 6.42487 18.0751 1.5 12 1.5C5.92487 1.5 1 6.42487 1 12.5C1 18.5751 5.92487 23.5 12 23.5ZM6 11.5C6 9 8.5 5.5 12 5.5C15.5 5.5 18.0002 9 18.0002 11.5C18.0002 14 17.0002 15 17.0002 15C14.0002 15 12.5002 16.5 12.5002 20.5H11.5C11.5 16.5 10 15 7 15C7 15 6 14 6 11.5Z" fill="#68C651"/>
</g>
</svg>
