<svg width="41" height="40" viewBox="0 0 41 40" fill="none" xmlns="http://www.w3.org/2000/svg">
<path d="M16.8555 36.8293C14.4288 36.8293 12.3585 35.9859 10.6445 34.2992C8.93044 32.6124 8.07343 30.5548 8.07343 28.1263V9.9105C8.07343 8.19519 8.68855 6.72399 9.9188 5.49687C11.149 4.26979 12.6279 3.65625 14.3555 3.65625C16.091 3.65625 17.5701 4.2676 18.7928 5.49029C20.0155 6.71301 20.6268 8.19211 20.6268 9.92758V23.9703H19.0457V9.9105C19.0457 8.60772 18.5923 7.50318 17.6855 6.59688C16.7787 5.69054 15.6686 5.23737 14.3553 5.23737C13.042 5.23737 11.9303 5.69054 11.02 6.59688C10.1097 7.50318 9.65459 8.60772 9.65459 9.9105V28.1712C9.65459 30.1413 10.3591 31.8133 11.7681 33.1873C13.177 34.5612 14.8708 35.2481 16.8493 35.2481C17.7941 35.2481 18.6834 35.0794 19.5172 34.742C20.351 34.4047 21.0877 33.9423 21.7273 33.355V35.356C21.0171 35.8211 20.2546 36.1829 19.4396 36.4415C18.6247 36.7 17.7633 36.8293 16.8555 36.8293ZM24.9752 34.7353V29.7353H19.9752V27.6413H24.9752V22.6413H27.0691V27.6413H32.0691V29.7353H27.0691V34.7353H24.9752ZM16.8555 28.6776V30.2588C15.7949 30.2588 14.9012 29.8775 14.1744 29.1148C13.4475 28.3521 13.0841 27.435 13.0841 26.3635V9.87629H14.6653V26.4255C14.6653 27.0597 14.8752 27.5937 15.295 28.0273C15.7147 28.4608 16.2349 28.6776 16.8555 28.6776ZM24.0563 18.9426V9.87629H25.6375V18.9426H24.0563Z" fill="#2D83B6"/>
</svg>
