<svg width="24" height="24" viewBox="0 0 24 24" fill="none" xmlns="http://www.w3.org/2000/svg">
<g id="icn_m_wait">
<g id="Union">
<path d="M2.58664 13V11.5H6.58664V13H2.58664Z" fill="#2D83B6"/>
<path d="M0.586426 16.5V15H5.58643V16.5H0.586426Z" fill="#2D83B6"/>
<path d="M4.58664 9.49997V7.99997H7.58664V9.49997H4.58664Z" fill="#2D83B6"/>
<path fill-rule="evenodd" clip-rule="evenodd" d="M15.9081 19.5C13.8132 19.5 12.0388 18.773 10.5849 17.3191C9.13098 15.8651 8.40402 14.0907 8.40402 11.9958C8.40402 9.91656 9.13098 8.14743 10.5849 6.68845C12.0388 5.22948 13.8132 4.5 15.9081 4.5C17.9874 4.5 19.7565 5.22948 21.2155 6.68845C22.6745 8.14743 23.4039 9.91656 23.4039 11.9958C23.4039 14.0907 22.6745 15.8651 21.2155 17.3191C19.7565 18.773 17.9874 19.5 15.9081 19.5ZM20.154 16.25C18.9873 17.4166 17.5707 18 15.904 18C14.2373 18 12.8207 17.4166 11.654 16.25C10.4873 15.0833 9.904 13.6666 9.904 12C9.904 10.3333 10.4873 8.91664 11.654 7.74998C12.8207 6.58331 14.2373 5.99998 15.904 5.99998C17.5707 5.99998 18.9873 6.58331 20.154 7.74998C21.3207 8.91664 21.904 10.3333 21.904 12C21.904 13.6666 21.3207 15.0833 20.154 16.25ZM18.2751 15.4654L19.3443 14.3961L16.654 11.7058V8.15383H15.154V12.3192L18.2751 15.4654Z" fill="#2D83B6"/>
</g>
</g>
</svg>
