<svg width="64" height="64" viewBox="0 0 64 64" fill="none" xmlns="http://www.w3.org/2000/svg">
<path d="M12.7999 9.60156H51.1999C52.9599 9.60156 54.4639 10.2416 55.7119 11.4896C56.9599 12.7376 57.5999 14.2416 57.5999 16.0016V38.4016C57.5999 40.1616 56.9599 41.6656 55.7119 42.9136C54.4639 44.1616 52.9599 44.8016 51.1999 44.8016H47.9999L31.9999 60.8016V44.8016H12.7999C11.0399 44.8016 9.5359 44.1616 8.2879 42.9136C7.0399 41.6656 6.3999 40.1616 6.3999 38.4016V16.0016C6.3999 14.2416 7.0399 12.7376 8.2879 11.4896C9.5359 10.2416 11.0399 9.60156 12.7999 9.60156ZM47.9999 16.0016H12.7999V19.2016H47.9999V16.0016ZM51.1999 25.6016H12.7999V28.8016H51.1999V25.6016ZM41.5999 35.2016H12.7999V38.4016H41.5999V35.2016Z" fill="#2D83B6"/>
</svg>
