<svg width="236" height="70" viewBox="0 0 236 70" fill="none" xmlns="http://www.w3.org/2000/svg">
<g id="logo_main_color">
<g id="Vector 1">
<path d="M17.8446 19.0231C11.5664 32.5697 8.77995 40.0702 13.5533 52.1818C6.17501 50.4735 3.6047 48.4308 3.03964 41.9958C2.9524 31.0174 8.45085 26.7592 17.8446 19.0231Z" fill="#2D83B6"/>
<path d="M15.9135 52.1818C10.5059 39.6351 13.9824 29.4258 21.7067 17.0725C35.9669 11.0609 53.8913 10.5705 63.9758 25.7415C49.1709 17.0725 40.8549 23.4093 37.3305 31.1593C34.8057 36.7113 33.228 43.2902 28.7236 46.5467C25.5327 49.3882 21.4554 51.5084 15.9135 52.1818Z" fill="#2D83B6"/>
<path d="M16.7718 54.3488C18.9601 53.803 21.3934 53.0614 23.9753 52.1818C39.301 43.946 36.9408 33.76 40.3738 29.5808C44.311 23.8853 49.881 20.8464 61.1865 26.4682C63.0345 27.8313 64.9549 30.0486 66.9797 33.3265C65.2632 37.2276 51.7457 41.9958 50.0292 46.9801C47.1242 51.7481 48.7418 53.0484 47.1242 56.7327C45.8104 59.2961 44.1645 61.0335 42.0903 62.3414C36.0659 66.1403 28.2539 64.9793 24.4961 62.5725C19.7324 59.5214 16.7718 54.3488 16.7718 54.3488Z" fill="#2D83B6"/>
<path d="M31.7912 66.9188C69.34 74.5041 69.1254 37.4443 67.838 35.9272C63.9758 39.6115 55.157 43.9481 53.2477 46.5467C50.0292 48.9307 49.3855 55.8658 48.5272 57.5996C48.5272 57.5996 45.9525 66.2686 31.7912 66.9188Z" fill="#2D83B6"/>
<path d="M68.4817 30.2924C59.6846 7.75335 34.1515 8.62025 24.4961 13.8214C38.4427 -3.08306 56.037 3.20194 56.037 3.20194C56.037 3.20194 75.1332 11.8709 68.4817 30.2924Z" fill="#2D83B6"/>
</g>
<g id="MEDICAL">
<path d="M88.2547 26.1374H91.776L99.3132 50.0029L106.831 26.1374H110.352L100.678 55.4113H97.9087L88.2547 26.1374ZM87.1073 26.1374H90.1934L90.7275 43.9913V55.4113H87.1073V26.1374ZM108.394 26.1374H111.48V55.4113H107.859V43.9913L108.394 26.1374Z" fill="#0B2C40"/>
<path d="M133.221 52.2547V55.4113H120.718V52.2547H133.221ZM121.371 26.1374V55.4113H117.731V26.1374H121.371ZM131.539 38.7236V41.8802H120.718V38.7236H131.539ZM133.023 26.1374V29.3141H120.718V26.1374H133.023Z" fill="#0B2C40"/>
<path d="M144.398 55.4113H139.492L139.532 52.2547H144.398C146.126 52.2547 147.53 51.9196 148.612 51.2494C149.693 50.5658 150.491 49.5605 151.005 48.2336C151.52 46.8932 151.777 45.2378 151.777 43.2675V38.2611C151.777 36.7063 151.632 35.3659 151.342 34.24C151.052 33.1141 150.616 32.1892 150.036 31.4654C149.456 30.7416 148.724 30.2055 147.84 29.857C146.957 29.4951 145.921 29.3141 144.734 29.3141H139.393V26.1374H144.734C146.357 26.1374 147.82 26.3988 149.126 26.9215C150.432 27.4309 151.553 28.2016 152.489 29.2337C153.426 30.2524 154.138 31.519 154.626 33.0337C155.127 34.5483 155.377 36.3042 155.377 38.3014V43.2675C155.377 45.2646 155.127 47.0205 154.626 48.5352C154.138 50.0498 153.419 51.3164 152.469 52.3351C151.52 53.3538 150.366 54.1245 149.007 54.6473C147.662 55.1566 146.126 55.4113 144.398 55.4113ZM141.51 26.1374V55.4113H137.87V26.1374H141.51Z" fill="#0B2C40"/>
<path d="M164.814 26.1374V55.4113H161.174V26.1374H164.814Z" fill="#0B2C40"/>
<path d="M185.566 46.1024H189.206C189.114 48.1129 188.711 49.8487 187.999 51.3097C187.3 52.7574 186.278 53.8699 184.933 54.6473C183.601 55.4247 181.932 55.8134 179.928 55.8134C178.49 55.8134 177.191 55.5252 176.031 54.9489C174.87 54.3725 173.874 53.5482 173.043 52.4759C172.226 51.3902 171.599 50.09 171.164 48.5754C170.729 47.0607 170.511 45.3585 170.511 43.4685V38.0601C170.511 36.1836 170.729 34.488 171.164 32.9733C171.613 31.4587 172.252 30.1652 173.083 29.0929C173.927 28.0072 174.949 27.1762 176.149 26.5998C177.363 26.0235 178.734 25.7353 180.264 25.7353C182.137 25.7353 183.72 26.1173 185.012 26.8813C186.318 27.6319 187.32 28.7377 188.019 30.1988C188.731 31.6464 189.127 33.4224 189.206 35.5268H185.566C185.474 33.9853 185.236 32.7321 184.854 31.767C184.471 30.7885 183.904 30.0714 183.152 29.6157C182.414 29.1466 181.451 28.912 180.264 28.912C179.209 28.912 178.292 29.1265 177.514 29.5554C176.749 29.9843 176.116 30.6009 175.615 31.4051C175.127 32.1959 174.758 33.1543 174.507 34.2802C174.27 35.3927 174.151 36.6393 174.151 38.0199V43.4685C174.151 44.7553 174.25 45.9549 174.448 47.0674C174.659 48.18 174.989 49.1584 175.437 50.0029C175.899 50.8339 176.499 51.484 177.237 51.9531C177.976 52.4223 178.873 52.6568 179.928 52.6568C181.26 52.6568 182.315 52.4357 183.093 51.9933C183.871 51.551 184.445 50.8473 184.814 49.8822C185.197 48.9172 185.447 47.6572 185.566 46.1024Z" fill="#0B2C40"/>
<path d="M203.469 28.731L195.596 55.4113H191.877L201.155 26.1374H203.489L203.469 28.731ZM209.839 55.4113L201.966 28.731L201.926 26.1374H204.28L213.558 55.4113H209.839ZM209.839 44.5743V47.751H195.952V44.5743H209.839Z" fill="#0B2C40"/>
<path d="M232.451 52.2547V55.4113H220.502V52.2547H232.451ZM221.155 26.1374V55.4113H217.515V26.1374H221.155Z" fill="#0B2C40"/>
</g>
</g>
</svg>
