<svg width="194" height="57" viewBox="0 0 194 57" fill="none" xmlns="http://www.w3.org/2000/svg">
<g id="logo_main_color">
<g id="Vector 1">
<path d="M14.6688 15.2306C9.50795 26.0679 7.21742 32.0683 11.1413 41.7576C5.07607 40.3909 2.96319 38.7567 2.49869 33.6088C2.42697 24.826 6.94688 21.4195 14.6688 15.2306Z" fill="white"/>
<path d="M13.0814 41.7576C8.6362 31.7202 11.494 23.5528 17.8437 13.6701C29.566 8.86079 44.3005 8.46851 52.5903 20.6053C40.4202 13.6701 33.5841 18.7396 30.687 24.9395C28.6115 29.3812 27.3145 34.6443 23.6118 37.2495C20.9887 39.5227 17.6371 41.2188 13.0814 41.7576Z" fill="white"/>
<path d="M13.787 43.4911C15.5859 43.0545 17.5861 42.4612 19.7085 41.7576C32.3067 35.1689 30.3666 27.0201 33.1886 23.6768C36.4251 19.1203 41.0039 16.6892 50.2974 21.1867C51.8165 22.2771 53.3952 24.051 55.0596 26.6733C53.6486 29.7942 42.5367 33.6088 41.1257 37.5962C38.7377 41.4106 40.0674 42.4508 38.7377 45.3983C37.6577 47.449 36.3047 48.8389 34.5997 49.8852C29.6474 52.9244 23.2256 51.9956 20.1366 50.0701C16.2207 47.6292 13.787 43.4911 13.787 43.4911Z" fill="white"/>
<path d="M26.1335 53.5471C56.9998 59.6154 56.8234 29.9675 55.7651 28.7539C52.5903 31.7013 45.341 35.1706 43.7714 37.2495C41.1257 39.1566 40.5966 44.7048 39.891 46.0918C39.891 46.0918 37.7745 53.027 26.1335 53.5471Z" fill="white"/>
<path d="M56.2943 24.246C49.0627 6.21479 28.0737 6.90831 20.1366 11.0692C31.6012 -2.45434 46.0643 2.57366 46.0643 2.57366C46.0643 2.57366 61.762 9.50883 56.2943 24.246Z" fill="white"/>
</g>
<g id="MEDICAL">
<path d="M72.5483 20.9213H75.443L81.6388 40.0137L87.8184 20.9213H90.7131L82.7609 44.3404H80.4842L72.5483 20.9213ZM71.6051 20.9213H74.142L74.5811 35.2044V44.3404H71.6051V20.9213ZM89.1031 20.9213H91.64V44.3404H88.6641V35.2044L89.1031 20.9213Z" fill="white"/>
<path d="M109.512 41.8151V44.3404H99.2344V41.8151H109.512ZM99.7711 20.9213V44.3404H96.7788V20.9213H99.7711ZM108.13 30.9902V33.5155H99.2344V30.9902H108.13ZM109.349 20.9213V23.4627H99.2344V20.9213H109.349Z" fill="white"/>
<path d="M118.7 44.3404H114.667L114.7 41.8151H118.7C120.12 41.8151 121.275 41.5471 122.164 41.0109C123.053 40.464 123.709 39.6598 124.132 38.5982C124.554 37.5259 124.766 36.2016 124.766 34.6253V30.6203C124.766 29.3764 124.647 28.3041 124.408 27.4034C124.17 26.5026 123.812 25.7628 123.335 25.1837C122.858 24.6047 122.256 24.1757 121.53 23.8969C120.803 23.6074 119.952 23.4627 118.977 23.4627H114.586V20.9213H118.977C120.31 20.9213 121.513 21.1304 122.587 21.5486C123.66 21.9561 124.582 22.5726 125.351 23.3983C126.121 24.2133 126.706 25.2266 127.108 26.4383C127.52 27.65 127.726 29.0547 127.726 30.6525V34.6253C127.726 36.2231 127.52 37.6278 127.108 38.8395C126.706 40.0512 126.116 41.0645 125.335 41.8795C124.554 42.6944 123.606 43.311 122.489 43.7292C121.383 44.1367 120.12 44.3404 118.7 44.3404ZM116.326 20.9213V44.3404H113.334V20.9213H116.326Z" fill="white"/>
<path d="M135.483 20.9213V44.3404H132.49V20.9213H135.483Z" fill="white"/>
<path d="M152.541 36.8933H155.534C155.458 38.5017 155.127 39.8904 154.542 41.0592C153.967 42.2173 153.127 43.1073 152.021 43.7292C150.926 44.3511 149.555 44.6621 147.907 44.6621C146.725 44.6621 145.657 44.4316 144.703 43.9705C143.749 43.5094 142.931 42.8499 142.248 41.9921C141.575 41.1235 141.06 40.0834 140.703 38.8717C140.345 37.66 140.166 36.2981 140.166 34.7862V30.4594C140.166 28.9582 140.345 27.6018 140.703 26.3901C141.071 25.1783 141.597 24.1436 142.28 23.2857C142.974 22.4172 143.814 21.7523 144.801 21.2912C145.798 20.8302 146.926 20.5996 148.183 20.5996C149.723 20.5996 151.024 20.9052 152.086 21.5164C153.159 22.1169 153.983 23.0016 154.558 24.1704C155.143 25.3285 155.469 26.7493 155.534 28.4328H152.541C152.466 27.1996 152.27 26.197 151.956 25.425C151.642 24.6422 151.175 24.0685 150.558 23.7039C149.95 23.3286 149.159 23.141 148.183 23.141C147.316 23.141 146.562 23.3125 145.923 23.6557C145.294 23.9988 144.774 24.4921 144.362 25.1355C143.961 25.7681 143.657 26.5348 143.451 27.4355C143.256 28.3256 143.158 29.3228 143.158 30.4273V34.7862C143.158 35.8156 143.24 36.7753 143.402 37.6653C143.576 38.5553 143.847 39.3381 144.215 40.0137C144.595 40.6785 145.088 41.1986 145.695 41.5739C146.302 41.9492 147.039 42.1368 147.907 42.1368C149.002 42.1368 149.869 41.9599 150.509 41.606C151.148 41.2522 151.62 40.6892 151.924 39.9172C152.238 39.1451 152.444 38.1371 152.541 36.8933Z" fill="white"/>
<path d="M167.259 22.9962L160.786 44.3404H157.729L165.356 20.9213H167.275L167.259 22.9962ZM172.495 44.3404L166.023 22.9962L165.99 20.9213H167.925L175.552 44.3404H172.495ZM172.495 35.6708V38.2122H161.079V35.6708H172.495Z" fill="white"/>
<path d="M191.083 41.8151V44.3404H181.26V41.8151H191.083ZM181.797 20.9213V44.3404H178.805V20.9213H181.797Z" fill="white"/>
</g>
</g>
</svg>
