<svg width="141" height="130" viewBox="0 0 141 130" fill="none" xmlns="http://www.w3.org/2000/svg">
<g id="svg">
<path id="Text" opacity="0.08" d="M4.17929 26.2016C4.17929 18.4755 6.68825 12.093 11.7062 7.05426C16.3895 2.35142 22.5783 0 30.2725 0C37.9666 0 44.3227 2.68734 49.3406 8.06202C54.3585 13.4367 56.8675 21.3307 56.8675 31.7442C56.8675 44.845 52.8531 60.1292 44.8245 77.5969C36.4613 95.0646 25.2546 112.532 11.2044 130L0.666748 120.426C11.0371 106.654 18.564 94.2248 23.2474 83.1395C27.9308 72.3902 30.607 62.1447 31.2761 52.4031H30.2725C22.5783 52.4031 16.3895 49.8837 11.7062 44.845C6.68825 40.1421 4.17929 33.9277 4.17929 26.2016ZM88.4804 26.2016C88.4804 18.4755 90.8221 12.093 95.5055 7.05426C100.189 2.35142 106.378 0 114.072 0C121.766 0 128.122 2.68734 133.14 8.06202C138.158 13.4367 140.667 21.3307 140.667 31.7442C140.667 44.845 136.652 60.1292 128.624 77.5969C120.595 95.0646 109.556 112.532 95.5055 130L84.466 120.426C94.8364 106.654 102.531 94.2248 107.548 83.1395C112.232 72.3902 114.908 62.1447 115.577 52.4031H114.072C106.378 52.4031 100.189 49.8837 95.5055 44.845C90.8221 40.1421 88.4804 33.9277 88.4804 26.2016Z" fill="#2D83B6"/>
</g>
</svg>
