<svg width="80" height="80" viewBox="0 0 80 80" fill="none" xmlns="http://www.w3.org/2000/svg">
<g filter="url(#filter0_b_574_17231)">
<rect width="80" height="80" rx="8" fill="#1B3F5E" fill-opacity="0.06"/>
<path d="M40 61C38.6883 61 37.625 59.9554 37.625 58.6667L37.625 26.9665L25.0544 39.3166C24.1269 40.2278 22.6231 40.2278 21.6956 39.3166C20.7681 38.4054 20.7681 36.928 21.6956 36.0168L38.3206 19.6834C38.5483 19.4596 38.8108 19.2909 39.0909 19.177C39.3645 19.0655 39.6641 19.0029 39.9781 19C40.5786 19.0055 41.2212 19.2332 41.6794 19.6834L58.3044 36.0168C59.2319 36.928 59.2319 38.4054 58.3044 39.3166C57.3769 40.2278 55.8731 40.2278 54.9456 39.3166L42.375 26.9665L42.375 58.6667C42.375 59.9554 41.3117 61 40 61Z" fill="#2F5372"/>
<rect x="0.5" y="0.5" width="79" height="79" rx="7.5" stroke="#1B3F5E" stroke-opacity="0.1"/>
</g>
<defs>
<filter id="filter0_b_574_17231" x="-20" y="-20" width="120" height="120" filterUnits="userSpaceOnUse" color-interpolation-filters="sRGB">
<feFlood flood-opacity="0" result="BackgroundImageFix"/>
<feGaussianBlur in="BackgroundImageFix" stdDeviation="10"/>
<feComposite in2="SourceAlpha" operator="in" result="effect1_backgroundBlur_574_17231"/>
<feBlend mode="normal" in="SourceGraphic" in2="effect1_backgroundBlur_574_17231" result="shape"/>
</filter>
</defs>
</svg>
