<svg width="20" height="20" viewBox="0 0 20 20" fill="none" xmlns="http://www.w3.org/2000/svg">
<path d="M11.8006 17L10.3087 15.0743C12.8639 12.8711 14.1758 11.0929 14.2444 9.73978C12.2722 9.27138 11.2862 8.14374 11.2862 6.35688C11.2862 5.38538 11.6206 4.57869 12.2894 3.9368C12.9411 3.31227 13.7128 3 14.6045 3C15.582 3 16.3966 3.38166 17.0482 4.14498C17.6827 4.9083 18 5.8798 18 7.05948C18 10.5118 15.9335 13.8253 11.8006 17ZM3.51769 17L2 15.0743C4.57235 12.8711 5.89282 11.0929 5.96142 9.73978C3.98928 9.27138 3.00322 8.14374 3.00322 6.35688C3.00322 5.38538 3.32905 4.57869 3.98071 3.9368C4.63237 3.31227 5.40407 3 6.29582 3C7.32476 3 8.14791 3.39033 8.76527 4.171C9.38264 4.95167 9.69132 5.9145 9.69132 7.05948C9.69132 10.3903 7.63344 13.7038 3.51769 17Z" fill="#2F5372"/>
</svg>
