<svg width="20" height="20" viewBox="0 0 20 20" fill="none" xmlns="http://www.w3.org/2000/svg">
<path d="M8.19936 3L9.69132 4.92565C7.13612 7.12887 5.82422 8.90706 5.75563 10.2602C7.72776 10.7286 8.71383 11.8563 8.71383 13.6431C8.71383 14.6146 8.37942 15.4213 7.71061 16.0632C7.05895 16.6877 6.28725 17 5.3955 17C4.41801 17 3.60343 16.6183 2.95177 15.855C2.31726 15.0917 2 14.1202 2 12.9405C2 9.48823 4.06645 6.17472 8.19936 3ZM16.4823 3L18 4.92565C15.4277 7.12887 14.1072 8.90706 14.0386 10.2602C16.0107 10.7286 16.9968 11.8563 16.9968 13.6431C16.9968 14.6146 16.671 15.4213 16.0193 16.0632C15.3676 16.6877 14.5959 17 13.7042 17C12.6752 17 11.8521 16.6097 11.2347 15.829C10.6174 15.0483 10.3087 14.0855 10.3087 12.9405C10.3087 9.60967 12.3666 6.29616 16.4823 3Z" fill="#2F5372"/>
</svg>
