<svg width="20" height="21" viewBox="0 0 20 21" fill="none" xmlns="http://www.w3.org/2000/svg">
<g opacity="0.5">
<mask id="mask0_497_7991" style="mask-type:alpha" maskUnits="userSpaceOnUse" x="0" y="0" width="20" height="21">
<rect y="0.5" width="20" height="20" fill="#D9D9D9"/>
</mask>
<g mask="url(#mask0_497_7991)">
<path d="M4.5 18.5C4.0875 18.5 3.73437 18.3507 3.44062 18.0521C3.14687 17.7535 3 17.4028 3 17V6C3 5.59722 3.14687 5.24653 3.44062 4.94792C3.73437 4.64931 4.0875 4.5 4.5 4.5H6V2.5H7.5V4.5H12.5V2.5H14V4.5H15.5C15.9125 4.5 16.2656 4.64931 16.5594 4.94792C16.8531 5.24653 17 5.59722 17 6V17C17 17.4028 16.8531 17.7535 16.5594 18.0521C16.2656 18.3507 15.9125 18.5 15.5 18.5H4.5ZM4.5 17H15.5V9.5H4.5V17ZM4.5 8H15.5V6H4.5V8ZM10.0044 12.5C9.79313 12.5 9.61458 12.4285 9.46875 12.2856C9.32292 12.1427 9.25 11.9656 9.25 11.7544C9.25 11.5431 9.32145 11.3646 9.46435 11.2188C9.60727 11.0729 9.78435 11 9.9956 11C10.2069 11 10.3854 11.0715 10.5312 11.2144C10.6771 11.3573 10.75 11.5344 10.75 11.7456C10.75 11.9569 10.6785 12.1354 10.5356 12.2812C10.3927 12.4271 10.2156 12.5 10.0044 12.5ZM6.7544 12.5C6.54313 12.5 6.36458 12.4285 6.21875 12.2856C6.07292 12.1427 6 11.9656 6 11.7544C6 11.5431 6.07145 11.3646 6.21435 11.2188C6.35727 11.0729 6.53435 11 6.7456 11C6.95687 11 7.13542 11.0715 7.28125 11.2144C7.42708 11.3573 7.5 11.5344 7.5 11.7456C7.5 11.9569 7.42855 12.1354 7.28565 12.2812C7.14273 12.4271 6.96565 12.5 6.7544 12.5ZM13.2544 12.5C13.0431 12.5 12.8646 12.4285 12.7188 12.2856C12.5729 12.1427 12.5 11.9656 12.5 11.7544C12.5 11.5431 12.5715 11.3646 12.7144 11.2188C12.8573 11.0729 13.0344 11 13.2456 11C13.4569 11 13.6354 11.0715 13.7812 11.2144C13.9271 11.3573 14 11.5344 14 11.7456C14 11.9569 13.9285 12.1354 13.7856 12.2812C13.6427 12.4271 13.4656 12.5 13.2544 12.5ZM10.0044 15.5C9.79313 15.5 9.61458 15.4285 9.46875 15.2856C9.32292 15.1427 9.25 14.9656 9.25 14.7544C9.25 14.5431 9.32145 14.3646 9.46435 14.2188C9.60727 14.0729 9.78435 14 9.9956 14C10.2069 14 10.3854 14.0715 10.5312 14.2144C10.6771 14.3573 10.75 14.5344 10.75 14.7456C10.75 14.9569 10.6785 15.1354 10.5356 15.2812C10.3927 15.4271 10.2156 15.5 10.0044 15.5ZM6.7544 15.5C6.54313 15.5 6.36458 15.4285 6.21875 15.2856C6.07292 15.1427 6 14.9656 6 14.7544C6 14.5431 6.07145 14.3646 6.21435 14.2188C6.35727 14.0729 6.53435 14 6.7456 14C6.95687 14 7.13542 14.0715 7.28125 14.2144C7.42708 14.3573 7.5 14.5344 7.5 14.7456C7.5 14.9569 7.42855 15.1354 7.28565 15.2812C7.14273 15.4271 6.96565 15.5 6.7544 15.5ZM13.2544 15.5C13.0431 15.5 12.8646 15.4285 12.7188 15.2856C12.5729 15.1427 12.5 14.9656 12.5 14.7544C12.5 14.5431 12.5715 14.3646 12.7144 14.2188C12.8573 14.0729 13.0344 14 13.2456 14C13.4569 14 13.6354 14.0715 13.7812 14.2144C13.9271 14.3573 14 14.5344 14 14.7456C14 14.9569 13.9285 15.1354 13.7856 15.2812C13.6427 15.4271 13.4656 15.5 13.2544 15.5Z" fill="#000018"/>
</g>
</g>
</svg>
