<svg width="64" height="65" viewBox="0 0 64 65" fill="none" xmlns="http://www.w3.org/2000/svg">
<path d="M12.7999 10.1016H51.1999C52.9599 10.1016 54.4639 10.7416 55.7119 11.9896C56.9599 13.2376 57.5999 14.7416 57.5999 16.5016V38.9016C57.5999 40.6616 56.9599 42.1656 55.7119 43.4136C54.4639 44.6616 52.9599 45.3016 51.1999 45.3016H47.9999L31.9999 61.3016V45.3016H12.7999C11.0399 45.3016 9.5359 44.6616 8.2879 43.4136C7.0399 42.1656 6.3999 40.6616 6.3999 38.9016V16.5016C6.3999 14.7416 7.0399 13.2376 8.2879 11.9896C9.5359 10.7416 11.0399 10.1016 12.7999 10.1016ZM47.9999 16.5016H12.7999V19.7016H47.9999V16.5016ZM51.1999 26.1016H12.7999V29.3016H51.1999V26.1016ZM41.5999 35.7016H12.7999V38.9016H41.5999V35.7016Z" fill="#2F5372"/>
</svg>
