<svg width="218" height="96" viewBox="0 0 218 96" fill="none" xmlns="http://www.w3.org/2000/svg">
<path d="M100.101 29.2891C99.3549 29.47 98.5964 30.0628 98.2555 30.7318C97.9309 31.3686 97.9175 31.5577 97.9163 35.5228L97.9153 39.1782L93.6815 39.1974C88.9482 39.2191 89.2248 39.1941 88.4465 39.6702C87.8869 40.0125 87.4099 40.7053 87.2639 41.3878C87.126 42.033 87.2035 53.1612 87.3487 53.5408C87.7825 54.6756 88.6699 55.3185 89.9147 55.4001L90.5049 55.4388L90.2659 56.071C88.524 60.6779 89.1686 64.4238 92.0214 66.2725C93.16 67.0103 94.4195 67.3937 96.1294 67.5229C96.7772 67.5719 96.9641 67.5596 96.6809 67.4869C95.5735 67.2023 94.2848 66.1232 93.7353 65.0204C92.4666 62.4747 93.4671 57.9684 96.0597 54.551C101.921 46.8246 106.579 42.9051 114.72 38.8481C119.005 36.7127 123.952 36.1136 126.582 37.4115C128.138 38.1793 129.02 39.3059 129.356 40.9543C129.51 41.7106 129.453 43.3185 129.241 44.2041C129.157 44.5577 129.071 44.9296 129.051 45.0306C128.988 45.3435 129.606 44.0344 129.933 43.1633C133.294 34.1851 127.787 29.5055 117.401 32.5152C116.93 32.6518 116.461 32.785 116.359 32.8111C116.257 32.8373 116.115 32.8777 116.042 32.9009C115.911 32.9427 115.909 32.9314 115.888 32.0992C115.867 31.2973 115.856 31.2343 115.668 30.8395C115.29 30.0457 114.496 29.415 113.687 29.2654C113.176 29.1708 100.498 29.1929 100.101 29.2891Z" fill="white"/>
<path fill-rule="evenodd" clip-rule="evenodd" d="M104.388 4.53992L104.303 5.19202L103.988 5.22778C103.815 5.24743 103.16 5.30663 102.534 5.35935C101.907 5.41206 101.367 5.46539 101.333 5.47788C101.299 5.49031 101.938 5.50274 102.753 5.50537L104.235 5.5102L104.088 6.56541C104.008 7.14576 103.936 7.62649 103.929 7.63371C103.921 7.64094 103.39 7.69053 102.747 7.74392C102.105 7.79731 101.538 7.85063 101.487 7.86239C101.436 7.87414 101.954 7.88694 102.637 7.89086L103.879 7.89796L103.871 8.46429C103.866 8.77573 103.884 9.18471 103.91 9.37304L103.957 9.71547L102.583 9.84L101.21 9.96453L102.603 9.97206L103.997 9.97959L104.068 10.4541C104.221 11.4711 104.226 11.6327 104.102 11.6327C103.808 11.6327 97.6304 12.0065 97.5766 12.0276C97.5427 12.0408 99.0423 12.0538 100.909 12.0564L104.303 12.0612L104.396 12.6888L104.489 13.3163L104.497 12.6888L104.505 12.0612H105.61H106.716L106.752 12.2602C106.771 12.3697 106.811 12.6245 106.839 12.8265C106.891 13.1939 106.891 13.1939 106.899 12.6276L106.906 12.0612H109H111.094L111.101 12.6276C111.105 12.9406 111.107 13.0806 111.117 13.0812C111.125 13.0816 111.138 12.9909 111.161 12.8267L111.161 12.8265C111.189 12.6245 111.229 12.3697 111.248 12.2602L111.284 12.0612H112.39H113.495L113.503 12.6888L113.511 13.3163L113.604 12.6888L113.697 12.0612L117.122 12.0541C119.005 12.0502 120.505 12.0369 120.454 12.0244C120.37 12.0039 114.159 11.6327 113.898 11.6327C113.774 11.6327 113.779 11.4711 113.932 10.4541L114.003 9.97959L115.397 9.97127L116.79 9.96294L115.417 9.83945L114.043 9.7159L114.09 9.37329C114.116 9.18484 114.134 8.77573 114.129 8.46429L114.121 7.89796L115.363 7.89086C116.046 7.88694 116.564 7.87414 116.513 7.86239C116.462 7.85063 115.895 7.79731 115.253 7.74392C114.61 7.69053 114.079 7.64094 114.071 7.63378C114.064 7.62655 114 7.194 113.928 6.67255C113.857 6.1511 113.784 5.67631 113.766 5.61735C113.736 5.51743 113.835 5.5099 115.231 5.50537C116.055 5.50274 116.701 5.48963 116.667 5.47635C116.633 5.463 115.958 5.39761 115.166 5.331C114.375 5.26439 113.72 5.20169 113.712 5.19165C113.704 5.18167 113.656 4.88418 113.604 4.53061L113.511 3.88776L113.503 4.5401L113.495 5.19245L113.111 5.15908C112.899 5.14071 112.393 5.0951 111.987 5.05775L111.248 4.9898L111.179 4.5L111.109 4.0102L111.102 4.48469C111.101 4.53206 111.101 4.57509 111.101 4.61409C111.102 4.75031 111.102 4.83749 111.059 4.88918C110.983 4.98107 110.77 4.96083 110.179 4.9046C110.083 4.89554 109.978 4.88555 109.862 4.87494C109.196 4.81402 108.853 4.81433 108.138 4.87653C108.006 4.88795 107.889 4.89869 107.784 4.9083C107.214 4.96041 107.009 4.97913 106.937 4.89072C106.896 4.84119 106.897 4.75804 106.898 4.62831C106.899 4.58564 106.899 4.53792 106.898 4.48469L106.891 4.0102L106.821 4.48065C106.783 4.73933 106.738 4.96365 106.721 4.97908C106.705 4.99445 106.289 5.03847 105.798 5.0768C105.307 5.11512 104.816 5.16055 104.707 5.17769L104.509 5.20886L104.491 4.54831L104.474 3.88776L104.388 4.53992ZM106.629 5.77041C106.608 5.91355 106.544 6.34745 106.487 6.73469L106.383 7.43878L105.921 7.47894C105.667 7.50104 105.244 7.53735 104.982 7.55969L104.505 7.60022V6.55524V5.5102H105.586H106.667L106.629 5.77041ZM111.094 6.41835C111.094 6.91788 111.082 7.33849 111.067 7.35312C111.052 7.36775 110.582 7.34137 110.022 7.29441C109.148 7.22112 108.859 7.22131 107.983 7.29576C107.422 7.34339 106.95 7.36984 106.934 7.35447C106.919 7.3391 106.906 6.91788 106.906 6.41835V5.5102H109H111.094V6.41835ZM113.495 6.55524V7.60022L113.018 7.55969C112.756 7.53735 112.333 7.50104 112.079 7.47894L111.617 7.43878L111.513 6.73469C111.456 6.34745 111.392 5.91355 111.371 5.77041L111.333 5.5102H112.414H113.495V6.55524ZM106.323 8.91655C106.326 9.21735 106.327 9.37112 106.251 9.45392C106.171 9.54052 106.006 9.54948 105.668 9.5678C105.597 9.57171 105.517 9.57604 105.428 9.58163C105.106 9.60196 104.767 9.63318 104.674 9.65094L104.505 9.6832V8.79055V7.89796L105.413 7.8982L106.321 7.89845V8.69265C106.321 8.77515 106.322 8.84951 106.323 8.91655ZM111.094 8.66327V9.42857L110.832 9.42447C110.688 9.4222 110.21 9.3878 109.77 9.34794C109.161 9.2929 108.799 9.29235 108.261 9.34586C107.872 9.38455 107.407 9.41896 107.23 9.42239L106.906 9.42857V8.66327V7.89796H109H111.094V8.66327ZM113.495 8.79055V9.6832L113.326 9.65094C113.233 9.63318 112.894 9.60196 112.572 9.58163C112.483 9.57604 112.403 9.57171 112.332 9.5678C111.994 9.54948 111.829 9.54052 111.749 9.45392C111.673 9.37112 111.674 9.21735 111.677 8.91655C111.678 8.84951 111.679 8.77515 111.679 8.69265V7.89845L112.587 7.8982L113.495 7.89796V8.79055ZM106.433 10.1173C106.492 10.3633 106.62 11.4476 106.593 11.4722C106.579 11.4853 106.103 11.5159 105.536 11.5402L104.505 11.5845V10.782V9.97959H105.452C106.384 9.97959 106.401 9.98186 106.433 10.1173ZM111.094 10.718V11.4563L110.185 11.4067C109.686 11.3795 109.152 11.3571 109 11.3571C108.848 11.3571 108.314 11.3795 107.815 11.4067L106.906 11.4563V10.718V9.97959H109H111.094V10.718ZM113.495 10.782V11.5845L112.464 11.5402C111.897 11.5159 111.421 11.4853 111.406 11.4722C111.38 11.4476 111.508 10.3633 111.567 10.1173C111.599 9.98186 111.616 9.97959 112.548 9.97959H113.495V10.782ZM30.791 39.0612V59.8776H17.6432H4.49548L4.4964 60.2296C4.4969 60.4232 4.52418 61.05 4.55712 61.6224C4.59001 62.1949 4.70049 64.4128 4.80259 66.551C4.90469 68.6893 5.02983 71.2378 5.08063 72.2143C5.1315 73.1908 5.26981 75.9872 5.38811 78.4286C5.50641 80.8699 5.6587 83.9832 5.72656 85.3469C5.79443 86.7107 5.85004 87.8885 5.8501 87.9643C5.85028 88.102 5.85028 88.102 2.92514 88.102H0V92.051V96H109H218V92.051V88.102H215.075C212.489 88.102 212.189 88.102 212.154 88.0069C212.15 87.9944 212.15 87.9802 212.15 87.9643C212.15 87.8885 212.206 86.7107 212.274 85.3469C212.342 83.9832 212.494 80.8699 212.612 78.4286C212.73 75.9872 212.869 73.1908 212.919 72.2143C212.97 71.2378 213.096 68.6755 213.198 66.5204C213.3 64.3653 213.411 62.1474 213.444 61.5918C213.476 61.0362 213.504 60.4232 213.504 60.2296L213.505 59.8776H200.357H187.209V39.0612V18.2449H173.538H159.867V23.051V27.8571H151.933C147.569 27.8571 143.988 27.8686 143.973 27.8825C143.945 27.911 143.971 28.7735 144.193 35.0816C144.278 37.4893 144.389 40.7128 144.441 42.2449C144.492 43.777 144.603 46.9867 144.687 49.3776C144.771 51.7684 144.895 55.4051 144.963 57.4592C145.032 59.5133 145.115 61.9102 145.149 62.7857C145.183 63.6612 145.28 66.4577 145.364 69C145.449 71.5424 145.588 75.5923 145.673 78C145.758 80.4077 145.866 83.5157 145.913 84.9069C145.96 86.2979 146.015 87.4528 146.035 87.4731C146.056 87.4935 146.072 74.5566 146.072 58.7245V29.9388H147.602H149.131L149.172 32.0969C149.195 33.284 149.213 34.6836 149.213 35.2074L149.213 36.1597L147.72 36.2998C146.898 36.3768 146.215 36.451 146.201 36.4648C146.186 36.4785 146.856 36.4898 147.688 36.4898H149.201L149.239 37.2398C149.26 37.6523 149.283 38.8095 149.291 39.8113L149.305 41.633L149.121 41.6614C149.019 41.677 148.299 41.7527 147.519 41.8296L146.103 41.9694L147.72 41.9857L149.336 42.002V43.5831C149.336 44.4528 149.354 45.5347 149.376 45.9873L149.416 46.8103L148.186 46.9207C146.18 47.1008 146.137 47.1268 147.833 47.1352L149.378 47.1429L149.421 49.3548C149.445 50.5714 149.453 51.5775 149.44 51.5907C149.427 51.6039 148.712 51.6834 147.852 51.7674C146.992 51.8515 146.26 51.9315 146.226 51.9451C146.192 51.9588 146.902 51.9721 147.802 51.9748L149.44 51.9796L149.48 53.3671C149.503 54.1301 149.521 55.1309 149.521 55.591V56.4275L148.058 56.567C145.921 56.7709 145.889 56.8014 147.803 56.8093L149.502 56.8163L149.542 57.4687C149.564 57.8275 149.582 58.8181 149.582 59.67V61.2189L149.382 61.2501C149.272 61.2672 148.531 61.3477 147.735 61.429L146.288 61.5768L147.935 61.5844C148.841 61.5885 149.588 61.5987 149.595 61.6071C149.602 61.6156 149.622 62.6189 149.641 63.8369L149.675 66.0513L149.182 66.0943C148.911 66.118 148.108 66.1997 147.396 66.2761L146.103 66.4148L147.899 66.4217L149.695 66.4286L149.717 68.6173C149.729 69.8211 149.732 70.8175 149.723 70.8312C149.714 70.8451 148.937 70.9341 147.997 71.0291C147.057 71.1241 146.246 71.213 146.195 71.2265C146.145 71.24 146.923 71.2543 147.925 71.2582L149.747 71.2653L149.789 73.7846C149.812 75.1701 149.817 76.3177 149.8 76.3348C149.783 76.3518 148.977 76.4415 148.009 76.5341C147.041 76.6267 146.232 76.7189 146.212 76.739C146.191 76.7591 146.993 76.7755 147.992 76.7755H149.809L149.85 78.199C149.928 80.9523 149.912 81.4826 149.752 81.5183C149.676 81.5353 148.865 81.6197 147.951 81.7058C147.036 81.7919 146.26 81.8729 146.226 81.8856C146.192 81.8983 146.999 81.9109 148.018 81.9135L149.872 81.9184L149.912 82.6071C149.933 82.986 149.955 84.1225 149.96 85.1327C149.965 86.2623 149.987 86.8515 150.016 86.6633C150.043 86.4949 150.067 85.4862 150.07 84.4218C150.073 83.3574 150.093 82.3586 150.114 82.2025L150.153 81.9184H152.639H155.125L155.133 83.7398C155.137 84.7416 155.16 85.9883 155.184 86.5102L155.226 87.4592L155.237 86.1122C155.243 85.3714 155.267 84.1247 155.289 83.3418L155.329 81.9184H157.598H159.867V81.5589C159.867 81.5202 159.868 81.4856 159.87 81.4545C159.873 81.382 159.876 81.3283 159.855 81.2862C159.794 81.165 159.538 81.1401 158.546 81.0438C158.398 81.0294 158.233 81.0134 158.05 80.9953C156.947 80.8859 156.565 80.8711 155.993 80.9154L155.291 80.9698L155.331 79.7811C155.353 79.1274 155.371 78.1837 155.371 77.684V76.7755H157.619H159.867V76.4082C159.867 76.2061 159.86 76.0386 159.851 76.0359C159.516 75.929 156.482 75.7016 156.007 75.748C155.685 75.7794 155.416 75.7962 155.41 75.7852C155.403 75.7742 155.409 74.7528 155.421 73.5153L155.444 71.2653H157.658H159.873L159.854 70.8827L159.836 70.5L158.45 70.3657C156.853 70.2108 156.482 70.1948 155.91 70.2558L155.494 70.3V68.5556C155.494 67.5962 155.512 66.7251 155.533 66.6199L155.571 66.4286H157.719H159.867V66.065C159.867 66.0247 159.869 65.9887 159.87 65.9565C159.874 65.8863 159.877 65.8339 159.857 65.7928C159.797 65.6721 159.539 65.6484 158.522 65.5548C158.363 65.5402 158.186 65.5239 157.988 65.5052C157.051 65.417 156.468 65.3906 156.095 65.4198L155.556 65.462V64.2712C155.556 63.6163 155.574 62.7455 155.596 62.3361L155.636 61.5918H157.752H159.867V61.2245C159.867 60.9617 159.844 60.8571 159.786 60.8571C159.741 60.8571 158.993 60.7884 158.122 60.7045C156.949 60.5914 156.421 60.5646 156.079 60.601L155.618 60.6501V60.1207C155.618 59.8295 155.636 58.9668 155.658 58.2038L155.699 56.8163H157.783H159.867V56.4328V56.0492L158.202 55.8929C157 55.78 156.424 55.7502 156.128 55.7856C155.903 55.8126 155.712 55.8282 155.703 55.8202C155.695 55.8122 155.705 54.9448 155.724 53.8926L155.76 51.9796H157.813H159.867V51.615C159.867 51.5742 159.868 51.5378 159.87 51.5052C159.874 51.4317 159.877 51.3774 159.855 51.3351C159.795 51.2151 159.54 51.192 158.564 51.1033C158.411 51.0894 158.24 51.0739 158.05 51.0561C157.162 50.9734 156.464 50.9383 156.179 50.962L155.724 50.9998L155.763 50.7159C155.785 50.5597 155.802 49.6919 155.802 48.7873V47.1429H157.834H159.867V46.7755C159.867 46.5039 159.844 46.4082 159.782 46.4082C159.735 46.4082 158.994 46.3379 158.134 46.252C157.154 46.154 156.44 46.1106 156.217 46.1357L155.862 46.1754L155.878 44.1031L155.895 42.0306L157.881 42.0145L159.867 41.9983V41.6346C159.867 41.2718 159.866 41.2708 159.667 41.2381C159.119 41.1484 156.59 40.9498 156.28 40.9721L155.925 40.9976L155.926 39.6162C155.926 38.8564 155.944 37.8421 155.966 37.3622L156.006 36.4898H157.936H159.867V36.1224C159.867 35.9204 159.86 35.7551 159.851 35.7551C159.843 35.7551 159.162 35.6862 158.339 35.602C157.516 35.5179 156.646 35.449 156.405 35.449H155.967L156.008 33.9697C156.03 33.1561 156.049 31.9163 156.049 31.2146V29.9388H157.958H159.867V28.898V27.8571H164.974H170.082L170.054 28.2704C170.039 28.4977 169.984 29.7582 169.932 31.0714C169.881 32.3847 169.798 34.3408 169.749 35.4184C169.699 36.4959 169.575 39.3475 169.474 41.7551C169.373 44.1628 169.221 47.7168 169.136 49.6531C168.857 56.0388 168.736 58.8702 168.521 63.9796C168.405 66.7577 168.293 69.3061 168.274 69.6429C168.255 69.9796 168.17 71.9082 168.087 73.9286C168.003 75.949 167.878 78.8694 167.808 80.4184C167.739 81.9673 167.645 84.0474 167.601 85.0408C167.531 86.5932 167.519 82.8495 167.511 58.3929L167.503 29.9388H166.123H164.743L164.709 30.5051C164.69 30.8166 164.66 32.2321 164.643 33.6507L164.612 36.23L165.426 36.3053C166.726 36.4256 166.789 36.4768 165.647 36.4837L164.623 36.4898L164.577 39.0944C164.552 40.527 164.542 41.7091 164.555 41.7215C164.567 41.7338 165.104 41.7946 165.748 41.8566L166.918 41.9694L165.742 41.986L164.566 42.0026L164.526 42.9294C164.428 45.1667 164.471 46.8976 164.624 46.9015C164.7 46.9035 165.206 46.9553 165.748 47.0167L166.733 47.1283L165.613 47.1356L164.493 47.1429L164.46 47.4031C164.442 47.5461 164.418 48.5664 164.407 49.6703C164.387 51.6526 164.388 51.6776 164.513 51.7033C164.582 51.7176 165.138 51.7821 165.748 51.8466L166.856 51.9639L165.619 51.9718L164.382 51.9796L164.343 54.2265C164.322 55.4622 164.313 56.4815 164.323 56.4915C164.333 56.5015 164.838 56.5621 165.445 56.626L166.548 56.7424L165.433 56.7488L164.318 56.7551L164.273 58.9968C164.249 60.2297 164.252 61.2606 164.28 61.2876C164.308 61.3147 164.872 61.3907 165.532 61.4565L166.733 61.5762L165.496 61.584L164.259 61.5918L164.218 63.163C164.177 64.7644 164.165 66.1188 164.193 66.1269C164.201 66.1294 164.818 66.1949 165.563 66.2724L166.918 66.4135L165.557 66.421L164.197 66.4286L164.156 67.4847C164.067 69.8385 164.098 70.9586 164.254 70.9637C164.331 70.966 164.864 71.0176 165.44 71.0781L166.487 71.1882L165.31 71.1961L164.134 71.2041L164.094 72.0459C164.072 72.509 164.052 73.6867 164.05 74.6633L164.047 76.4388L165.267 76.5612L166.487 76.6837L165.255 76.7143L164.023 76.7449L163.981 79.1618C163.958 80.4911 163.944 81.5837 163.95 81.5897C163.957 81.5956 164.502 81.6514 165.163 81.7136L166.364 81.8265L165.163 81.8571L163.962 81.8878L163.896 84.0918L163.829 86.2959L163.818 84.6735C163.812 83.7811 163.789 82.782 163.767 82.4532L163.728 81.8553L161.936 81.8715L160.144 81.8878L160.09 84.9949L160.036 88.102H109H57.9647L57.9105 84.9949L57.8562 81.8878L56.0643 81.8715L54.2724 81.8553L54.2325 82.4532C54.2106 82.782 54.1877 83.7811 54.1816 84.6735L54.1706 86.2959L54.1043 84.0918L54.0381 81.8878L52.8373 81.8571L51.6364 81.8265L52.8373 81.7142C53.4978 81.6524 54.0434 81.5966 54.0498 81.5903C54.0563 81.584 54.0424 80.4911 54.019 79.1618L53.9766 76.7449L52.7449 76.7143L51.5133 76.6837L52.7295 76.5652L53.9458 76.4467L53.9455 74.606C53.9454 73.5936 53.9272 72.4141 53.9052 71.9847L53.8652 71.2041L52.6892 71.1961L51.5133 71.1882L52.5602 71.0781C53.136 71.0176 53.6694 70.966 53.7456 70.9637C53.9018 70.9586 53.9333 69.8385 53.8435 67.4847L53.8032 66.4286L52.4427 66.421L51.0822 66.4135L52.437 66.2724C53.1821 66.1949 53.7987 66.1294 53.8072 66.1269C53.8349 66.1188 53.8234 64.7644 53.782 63.163L53.7412 61.5918L52.5041 61.5836L51.2669 61.5754L52.5236 61.4515L53.7802 61.3275L53.7398 59.7661C53.7176 58.9073 53.6994 57.8785 53.6994 57.4799V56.7551L52.5756 56.7488L51.4517 56.7424L52.5553 56.626C53.1623 56.5621 53.6671 56.5015 53.6772 56.4915C53.6872 56.4815 53.6781 55.4622 53.6568 54.2265L53.618 51.9796H52.386C51.7084 51.9796 51.1656 51.9689 51.1797 51.9558C51.1938 51.9428 51.7042 51.8859 52.3138 51.8295C52.9235 51.773 53.4651 51.7148 53.5173 51.7C53.6116 51.6735 53.6317 47.9156 53.5407 47.3418L53.5091 47.1429L52.388 47.1357L51.2669 47.1285L52.2523 47.0176C52.7942 46.9566 53.3 46.9048 53.3761 46.9024C53.529 46.8975 53.5717 45.1665 53.4743 42.9294L53.434 42.0026L52.2581 41.986L51.0822 41.9694L52.2523 41.856C52.8958 41.7937 53.4327 41.7328 53.4454 41.7209C53.458 41.7089 53.4479 40.527 53.4227 39.0944L53.3771 36.4898H52.3579C51.7974 36.4898 51.3531 36.4756 51.3705 36.4583C51.3992 36.4297 53.0275 36.249 53.2821 36.2461C53.3892 36.2449 53.3958 32.2192 53.2913 30.5051L53.2568 29.9388H51.877H50.4972L50.4889 58.3929C50.4807 86.608 50.4797 86.8264 50.371 84.398C50.1285 78.9777 49.8849 73.379 49.5414 65.3265C49.4574 63.3566 49.3055 59.8301 49.2038 57.4898C49.1022 55.1495 48.9908 52.5597 48.9563 51.7347C48.9218 50.9097 48.8393 49.0224 48.7729 47.5408C48.7066 46.0592 48.596 43.4832 48.5272 41.8163C48.4583 40.1495 48.3475 37.5735 48.2809 36.0918C48.2143 34.6102 48.1182 32.351 48.0673 31.0714C48.0165 29.7918 47.9625 28.5451 47.9475 28.301L47.9202 27.8571H53.0268H58.1333V28.898V29.9388H60.0424H61.9514L61.9515 31.2092C61.9516 31.9079 61.9698 33.1546 61.9919 33.9796L62.0322 35.4796L61.6226 35.4591C61.2783 35.4418 59.3051 35.6095 58.3951 35.7334C58.2786 35.7492 58.214 35.758 58.1781 35.7947C58.1333 35.8404 58.1333 35.9294 58.1333 36.1294V36.4898H60.0636H61.9938L62.034 37.3622C62.056 37.8421 62.0742 38.8564 62.0743 39.6162L62.0746 40.9976L61.7154 40.9718C61.4065 40.9496 58.92 41.1461 58.3335 41.2391C58.1337 41.2708 58.1333 41.2716 58.1333 41.6346V41.9983L60.1194 42.0145L62.1054 42.0306L62.1216 44.1019L62.1378 46.1732L61.7521 46.1344C61.5057 46.1096 60.8112 46.1521 59.8301 46.2519C58.9851 46.3378 58.2577 46.4082 58.2136 46.4082C58.1565 46.4082 58.1333 46.5145 58.1333 46.7755V47.1429H60.1655H62.1977V48.7873C62.1977 49.6919 62.2153 50.5591 62.2367 50.7146L62.2757 50.9974L61.7903 50.9617C61.4871 50.9394 60.8075 50.9742 59.9808 51.0542C59.7875 51.073 59.6142 51.0894 59.4589 51.1041C58.4593 51.1987 58.2034 51.2229 58.1439 51.3432C58.1234 51.3846 58.1261 51.4373 58.1298 51.5082C58.1315 51.5402 58.1333 51.576 58.1333 51.616V51.9796H60.1868H62.2403L62.2757 53.8926C62.2952 54.9448 62.3064 55.81 62.3006 55.8153C62.2949 55.8206 62.1011 55.8053 61.8701 55.7813C61.5828 55.7514 60.9264 55.7868 59.7917 55.8934L58.1333 56.0492V56.4328V56.8163H60.2173H62.3013L62.3417 58.2398C62.364 59.0227 62.3822 59.8853 62.3824 60.1567L62.3825 60.6501L61.9184 60.6007C61.5728 60.5639 61.0502 60.5903 59.8708 60.7041C58.9999 60.7881 58.2527 60.857 58.2103 60.857C58.1573 60.8571 58.1333 60.9715 58.1333 61.2245V61.5918H60.2484H62.3636L62.4038 62.3361C62.426 62.7455 62.4441 63.6159 62.4441 64.2704V65.4604L61.8744 65.4193C61.4775 65.3906 60.9034 65.4168 59.9808 65.5055C59.784 65.5245 59.6079 65.541 59.4504 65.5558C58.4565 65.6492 58.2022 65.673 58.1433 65.7923C58.123 65.8333 58.1258 65.8856 58.1296 65.9558C58.1314 65.9882 58.1333 66.0243 58.1333 66.065V66.4286H60.281H62.4287L62.4672 66.6199C62.4883 66.7251 62.5056 67.5962 62.5056 68.5556V70.3L62.0903 70.2558C61.5178 70.1948 61.1473 70.2108 59.5497 70.3657L58.1641 70.5L58.1458 70.8827L58.1275 71.2653H60.3415H62.5557L62.5787 73.5153C62.5914 74.7528 62.5966 75.7742 62.5901 75.7852C62.5837 75.7962 62.3153 75.7794 61.9937 75.748C61.5082 75.7007 61.133 75.7185 59.7864 75.8533L58.1641 76.0157L58.1458 76.3956L58.1275 76.7755H60.3781H62.6288V77.684C62.6288 78.1837 62.6469 79.1278 62.6689 79.7819L62.7089 80.9713L62.0323 80.9165C61.4854 80.8722 61.0906 80.8873 59.9754 80.9951C59.7952 81.0125 59.6324 81.0279 59.4855 81.0419C58.4689 81.1381 58.2078 81.1629 58.146 81.2862C58.1247 81.3289 58.1271 81.3833 58.1304 81.4566C58.1318 81.4872 58.1333 81.5211 58.1333 81.5589V81.9184H60.402H62.6708L62.7112 83.3418C62.7335 84.1247 62.7567 85.3714 62.7629 86.1122L62.774 87.4592L62.8165 86.5102C62.8397 85.9883 62.8625 84.7416 62.867 83.7398L62.8751 81.9184H65.3608H67.8465L67.8857 82.2025C67.9072 82.3586 67.9273 83.3574 67.9303 84.4218C67.9332 85.4862 67.9573 86.4949 67.9836 86.6633C68.0131 86.8515 68.0348 86.2623 68.0401 85.1327C68.0448 84.1225 68.0666 82.986 68.0885 82.6071L68.1284 81.9184L69.9819 81.9135C71.0012 81.9109 71.8076 81.8983 71.7737 81.8856C71.7399 81.8729 70.9639 81.7919 70.0494 81.7058C69.1349 81.6197 68.3243 81.5353 68.2482 81.5183C68.0877 81.4826 68.072 80.9523 68.1504 78.199L68.1908 76.7755H70.0079C71.0073 76.7755 71.8085 76.7591 71.7883 76.739C71.7681 76.7189 70.9595 76.6267 69.9914 76.5341C69.0232 76.4415 68.2174 76.3521 68.2007 76.3354C68.1839 76.3188 68.1888 75.1712 68.2115 73.7852L68.2528 71.2653L70.0749 71.2582C71.077 71.2543 71.8553 71.24 71.8045 71.2265C71.7537 71.213 70.943 71.1241 70.0029 71.0291C69.0628 70.9341 68.2863 70.8451 68.2774 70.8312C68.2684 70.8175 68.2711 69.8211 68.2831 68.6173L68.3051 66.4286L70.101 66.4217L71.8969 66.4148L70.6037 66.2761C69.8924 66.1997 69.0888 66.1179 68.8178 66.0943L68.3251 66.0512L68.3395 64.0818C68.3474 62.9985 68.3698 61.9952 68.3894 61.852L68.4251 61.5918L70.0686 61.5844L71.7122 61.5768L70.265 61.429C69.469 61.3477 68.7277 61.2672 68.6177 61.2501L68.4175 61.2189V59.67C68.4175 58.8181 68.4356 57.8275 68.4577 57.4687L68.4978 56.8163L70.1973 56.8093C72.1112 56.8014 72.079 56.7709 69.9417 56.567L68.4791 56.4275V55.591C68.4791 55.1309 68.4974 54.1301 68.5197 53.3671L68.5603 51.9796L70.1979 51.9748C71.0984 51.9721 71.8076 51.9588 71.7737 51.9451C71.7399 51.9315 71.0083 51.8515 70.1481 51.7674C69.2879 51.6834 68.5732 51.6039 68.5601 51.5907C68.5468 51.5775 68.5553 50.5714 68.5789 49.3548L68.6218 47.1429L70.167 47.1352C71.8625 47.1268 71.8196 47.1008 69.8138 46.9207L68.5846 46.8103L68.624 46.0429C68.6456 45.6208 68.6635 44.539 68.6636 43.6388L68.6638 42.002L70.2804 41.9857L71.8969 41.9694L70.4805 41.8296C69.7015 41.7527 68.981 41.677 68.8794 41.6614L68.6946 41.633L68.7089 39.8113C68.7168 38.8095 68.7403 37.6523 68.7613 37.2398L68.7994 36.4898H70.3122C71.1443 36.4898 71.8135 36.4785 71.7994 36.4648C71.7853 36.451 71.1017 36.3768 70.2804 36.2998L68.787 36.1597L68.7871 35.2074C68.7871 34.6836 68.8055 33.284 68.8279 32.0969L68.8685 29.9388H70.3981H71.9277L71.9352 58.7296C71.9393 74.5646 71.9638 87.3689 71.9897 87.1837C72.0156 86.9985 72.0547 86.1995 72.0766 85.4082C72.0986 84.6168 72.1713 82.4265 72.2382 80.5408C72.3051 78.6551 72.4561 74.2607 72.5738 70.7755C72.6915 67.2903 72.8164 63.6949 72.8512 62.7857C72.8861 61.8765 72.9836 59.0663 73.0678 56.5408C73.152 54.0153 73.2625 50.8056 73.3132 49.4082C73.364 48.0107 73.475 44.7872 73.5599 42.2449C73.6448 39.7026 73.7689 36.1209 73.8355 34.2857C73.9022 32.4505 73.9756 30.2533 73.9987 29.4031L74.0407 27.8571H66.087H58.1333V23.051V18.2449H44.4621H30.791V39.0612ZM54.9718 31.9692C54.9021 35.4421 54.9122 36.061 55.0388 36.0625C55.0981 36.0631 55.6053 36.0173 56.166 35.9608L57.1854 35.8578L57.1661 34.0769C57.1555 33.0973 57.1303 31.7655 57.11 31.1173L57.073 29.9388H56.0428H55.0125L54.9718 31.9692ZM67.145 32.0969C67.1674 33.284 67.1858 34.648 67.1858 35.1283L67.1859 36.0015L66.9549 35.9705C66.828 35.9535 66.1143 35.8841 65.3692 35.8163C64.6241 35.7485 63.9243 35.6782 63.8143 35.6601L63.6141 35.6271V33.9866C63.6141 33.0844 63.6324 31.8045 63.6546 31.1425L63.6952 29.9388H65.3997H67.1043L67.145 32.0969ZM154.345 31.1425C154.368 31.8045 154.386 33.0844 154.386 33.9866V35.6271L154.186 35.66C154.076 35.6781 153.39 35.7479 152.662 35.8152C151.933 35.8825 151.22 35.9533 151.076 35.9726L150.814 36.0075L150.814 35.1313C150.814 34.6494 150.833 33.284 150.855 32.0969L150.896 29.9388H152.6H154.305L154.345 31.1425ZM160.89 31.1173C160.87 31.7655 160.844 33.0973 160.834 34.0769L160.815 35.8578L161.834 35.9608C162.395 36.0173 162.902 36.0631 162.961 36.0625C163.088 36.061 163.098 35.4421 163.028 31.9692L162.987 29.9388H161.957H160.927L160.89 31.1173ZM54.9046 36.8112C54.8852 36.988 54.8624 38.1347 54.854 39.3594L54.8387 41.5862L55.239 41.5506L55.4707 41.5299C55.7397 41.5059 56.1289 41.4712 56.4647 41.4413L57.2902 41.3676L57.2499 40.0821C57.2277 39.3751 57.2096 38.2775 57.2096 37.6432V36.4898H56.0748H54.9399L54.9046 36.8112ZM67.2608 38.9847C67.2768 40.3569 67.284 41.4873 67.277 41.4968C67.264 41.5143 63.5323 41.1432 63.5113 41.1222C63.5049 41.1159 63.5159 40.071 63.5357 38.8002L63.5718 36.4898H65.4018H67.2318L67.2608 38.9847ZM154.464 38.8002C154.484 40.071 154.495 41.1159 154.489 41.1222C154.468 41.1432 150.736 41.5143 150.723 41.4968C150.716 41.4873 150.723 40.3569 150.739 38.9847L150.768 36.4898H152.598H154.428L154.464 38.8002ZM160.79 37.6432C160.79 38.2775 160.772 39.3751 160.75 40.0821L160.71 41.3676L161.535 41.4413C161.989 41.4817 162.541 41.531 162.761 41.5506L163.161 41.5862L163.146 39.3594C163.138 38.1347 163.115 36.988 163.095 36.8112L163.06 36.4898H161.925H160.79V37.6432ZM119.284 39.47C118.929 39.6227 118.263 39.9138 117.806 40.1167C117.349 40.3197 116.753 40.5805 116.482 40.6963C115.907 40.942 114.021 41.9084 113.003 42.479C110.44 43.915 108.334 45.3879 106.013 47.3655C104.128 48.9722 100.768 52.5943 98.1457 55.847L97.9153 56.1329L97.9157 59.2144C97.9163 63.1816 97.9767 63.5188 98.8241 64.2901C98.8483 64.3121 98.8716 64.3334 98.8942 64.3542C99.0228 64.472 99.1308 64.5709 99.25 64.6539C99.8752 65.0892 100.809 65.0865 106.641 65.0697L107.245 65.068H107.246C113.711 65.0499 113.711 65.0499 114.064 64.9164C114.774 64.6479 115.318 64.1448 115.668 63.4328L115.866 63.0306L115.884 59.2213L115.902 55.4121L120.229 55.3948L124.556 55.3776L125.026 55.1468C125.772 54.7799 126.234 54.2642 126.488 53.5126C126.614 53.1431 126.615 53.0575 126.599 47.1864L126.582 41.2347L126.392 40.8367C126.004 40.0253 125.203 39.4038 124.341 39.2448C124.158 39.2112 123.092 39.1856 121.97 39.188L119.931 39.1924L119.284 39.47ZM54.79 44.3704C54.7693 45.674 54.7591 46.7473 54.7672 46.7555C54.7754 46.7636 55.3214 46.7165 55.9804 46.6509C56.6395 46.5852 57.2135 46.5312 57.2558 46.531C57.3458 46.5306 57.3567 45.5905 57.2921 43.3875L57.2515 42H56.0395H54.8276L54.79 44.3704ZM67.3092 42.9031C67.3093 43.3997 67.3276 44.451 67.3501 45.2392L67.3908 46.6723L66.9035 46.6296C65.3632 46.4945 63.4817 46.2969 63.4517 46.2671C63.4326 46.2481 63.4373 45.2802 63.4623 44.1162L63.5077 42H65.4084H67.309L67.3092 42.9031ZM154.538 44.1162C154.563 45.2802 154.567 46.2487 154.547 46.2685C154.498 46.3168 150.694 46.6763 150.654 46.6365C150.636 46.6192 150.642 45.569 150.666 44.3026L150.71 42H152.601H154.492L154.538 44.1162ZM160.708 43.3875C160.635 45.8615 160.65 46.5303 160.775 46.5326C160.834 46.5336 161.409 46.5869 162.052 46.651C162.695 46.715 163.227 46.7614 163.234 46.7541C163.242 46.7467 163.231 45.674 163.21 44.3704L163.172 42H161.96H160.748L160.708 43.3875ZM54.7171 49.3506C54.6921 50.5649 54.6815 51.5653 54.6936 51.5738C54.7057 51.5822 55.3113 51.5323 56.0395 51.463L57.3636 51.3367L57.383 50.1122C57.3936 49.4388 57.3838 48.4951 57.3612 48.0153L57.32 47.1429H56.0413H54.7626L54.7171 49.3506ZM67.3914 48.6582C67.4586 51.1695 67.451 51.4899 67.3244 51.4894C67.2651 51.4892 66.5516 51.4227 65.7387 51.3416C64.9258 51.2604 64.0598 51.1752 63.8143 51.152L63.3678 51.11L63.368 50.0908C63.3681 49.5301 63.3863 48.6375 63.4084 48.1071L63.4487 47.1429H65.3997H67.3509L67.3914 48.6582ZM154.592 48.1071C154.614 48.6375 154.632 49.5301 154.632 50.0908L154.632 51.11L154.186 51.1521C153.94 51.1752 153.065 51.2607 152.24 51.342C151.415 51.4233 150.702 51.4898 150.654 51.4898C150.553 51.4898 150.544 50.9585 150.608 48.6222L150.649 47.1429H152.6H154.551L154.592 48.1071ZM160.639 48.0153C160.616 48.4951 160.606 49.4388 160.617 50.1122L160.636 51.3367L161.96 51.463C162.689 51.5323 163.294 51.5822 163.306 51.5738C163.318 51.5653 163.308 50.5649 163.283 49.3506L163.237 47.1429H161.959H160.68L160.639 48.0153ZM54.6638 53.0357C54.6417 53.6166 54.6235 54.6084 54.6234 55.2398L54.6232 56.3878L54.7925 56.3874C55.1675 56.3868 57.4193 56.1416 57.4519 56.0979C57.471 56.0721 57.4791 55.135 57.4697 54.0153L57.4527 51.9796H56.0784H54.7041L54.6638 53.0357ZM67.4533 52.9996C67.4756 53.5606 67.4938 54.5424 67.4938 55.1814V56.3432L67.2321 56.3086C67.0881 56.2896 66.1805 56.2002 65.2153 56.11C64.25 56.0198 63.4256 55.936 63.3832 55.9239C63.2969 55.8991 63.2736 53.815 63.3464 52.632L63.3865 51.9796H65.3997H67.4129L67.4533 52.9996ZM154.654 52.632C154.726 53.815 154.703 55.8991 154.617 55.9239C154.574 55.936 153.75 56.0198 152.785 56.11C151.819 56.2002 150.912 56.2896 150.768 56.3086L150.506 56.3432V55.1814C150.506 54.5424 150.524 53.5606 150.547 52.9996L150.587 51.9796H152.6H154.613L154.654 52.632ZM160.53 54.0153C160.521 55.135 160.529 56.0721 160.548 56.0979C160.581 56.1416 162.833 56.3868 163.207 56.3874L163.377 56.3878V55.2037C163.377 54.5524 163.359 53.5606 163.336 52.9996L163.296 51.9796H161.922H160.547L160.53 54.0153ZM54.6011 57.1314C54.5794 57.3384 54.5616 58.3464 54.5616 59.3713V61.235L55.0388 61.1911C55.3014 61.1669 55.9733 61.1025 56.5322 61.048L57.5483 60.949L57.5464 60.5357C57.5453 60.3084 57.5384 59.3648 57.531 58.4388L57.5175 56.7551H56.0791H54.6407L54.6011 57.1314ZM160.469 58.4388C160.462 59.3648 160.455 60.3084 160.454 60.5357L160.452 60.949L161.468 61.048C162.027 61.1025 162.699 61.1669 162.961 61.1911L163.438 61.235V59.3713C163.438 58.3464 163.421 57.3384 163.399 57.1314L163.359 56.7551H161.921H160.482L160.469 58.4388ZM67.5152 57.4687C67.5373 57.8275 67.5554 58.8073 67.5554 59.6459V61.1708L67.2936 61.1353C67.03 61.0996 63.3875 60.7347 63.2946 60.7347C63.2374 60.7347 63.227 57.1637 63.2834 56.9541C63.2879 56.9374 63.2919 56.9227 63.2991 56.9097C63.3512 56.8163 63.5728 56.8163 65.3978 56.8163H67.4751L67.5152 57.4687ZM154.717 56.9541C154.775 57.1695 154.762 60.7347 154.703 60.7347C154.606 60.7347 150.971 61.0987 150.706 61.1349L150.445 61.1708L150.445 59.6823C150.445 58.8637 150.463 57.884 150.485 57.5051L150.525 56.8163H152.602C154.679 56.8163 154.679 56.8163 154.717 56.9541ZM54.4882 63.8112C54.4777 65.0319 54.4719 66.0379 54.4752 66.0468C54.4845 66.0718 57.5877 65.767 57.6165 65.7383C57.6305 65.7244 57.6233 64.7859 57.6005 63.6525L57.5592 61.5918H56.0331H54.5071L54.4882 63.8112ZM67.5826 61.852C67.6018 61.9952 67.6243 62.9849 67.6326 64.0515L67.6477 65.9907L67.3706 65.9591C67.2182 65.9418 66.2067 65.8401 65.1229 65.7334L63.1523 65.5392L63.1542 65.1267C63.1552 64.8999 63.1622 64.0117 63.1696 63.1531L63.1831 61.5918H65.3654H67.5478L67.5826 61.852ZM154.83 63.1531C154.838 64.0117 154.845 64.8999 154.846 65.1267L154.848 65.5392L152.877 65.7334C151.793 65.8401 150.782 65.9418 150.629 65.9591L150.352 65.9907L150.367 64.0515C150.376 62.9849 150.398 61.9952 150.417 61.852L150.452 61.5918H152.635H154.817L154.83 63.1531ZM160.399 63.6525C160.377 64.7859 160.37 65.7244 160.383 65.7383C160.412 65.767 163.515 66.0718 163.525 66.0468C163.528 66.0379 163.522 65.0319 163.512 63.8112L163.493 61.5918H161.967H160.441L160.399 63.6525ZM9.66836 63.8265V65.3878H8.65226H7.63616V63.8265V62.2653H8.65226H9.66836V63.8265ZM14.519 63.8418L14.5354 65.3878H13.4875H12.4395V63.8251V62.2624L13.471 62.2791L14.5025 62.2959L14.519 63.8418ZM19.3367 63.8265V65.3878H18.3206H17.3045V63.8265V62.2653H18.3206H19.3367V63.8265ZM24.2017 63.8265V65.3878H23.1856H22.1695V63.8265V62.2653H23.1856H24.2017V63.8265ZM29.0523 63.8418L29.0688 65.3878H28.0208H26.9729V63.8674C26.9729 63.0311 26.992 62.3279 27.0154 62.3047C27.0388 62.2814 27.503 62.27 28.0469 62.2791L29.0359 62.2959L29.0523 63.8418ZM191.013 63.8418L191.029 65.3878H189.981H188.933V63.8674C188.933 63.0311 188.952 62.3279 188.976 62.3047C188.999 62.2814 189.463 62.27 190.007 62.2791L190.996 62.2959L191.013 63.8418ZM195.831 63.8265V65.3878H194.814H193.798V63.8265V62.2653H194.814H195.831V63.8265ZM200.695 63.8265V65.3878H199.679H198.663V63.8265V62.2653H199.679H200.695V63.8265ZM205.56 63.8265V65.3878H204.514H203.467V63.8674C203.467 63.0311 203.485 62.3286 203.508 62.3061C203.53 62.2837 204.001 62.2653 204.555 62.2653H205.56V63.8265ZM210.364 63.8265V65.3878H209.348H208.332V63.8265V62.2653H209.348H210.364V63.8265ZM54.4244 68.648C54.4074 69.8687 54.3967 70.872 54.4007 70.8776C54.4134 70.896 57.6707 70.5789 57.6945 70.557C57.7072 70.5454 57.697 69.6117 57.672 68.4822L57.6264 66.4286H56.0408H54.4552L54.4244 68.648ZM67.6948 68.5866C67.7142 69.7735 67.7168 70.7579 67.7006 70.774C67.6691 70.8053 63.1172 70.3631 63.0789 70.3251C63.0665 70.3127 63.0754 69.4309 63.0987 68.3656L63.1411 66.4286H65.4003H67.6595L67.6948 68.5866ZM154.901 68.3656C154.925 69.4309 154.933 70.3133 154.92 70.3263C154.881 70.3649 150.331 70.8055 150.299 70.7737C150.283 70.7578 150.286 69.7735 150.305 68.5866L150.34 66.4286H152.6H154.859L154.901 68.3656ZM160.328 68.4822C160.303 69.6117 160.293 70.5452 160.305 70.5567C160.329 70.5781 163.586 70.8948 163.6 70.8771C163.605 70.8718 163.594 69.8687 163.576 68.648L163.544 66.4286H161.959H160.374L160.328 68.4822ZM9.66836 69.6735V71.2041H8.65226H7.63616V69.6735V68.1429H8.65226H9.66836V69.6735ZM14.5333 69.6735V71.2041H13.4864H12.4395V69.6735V68.1429H13.4864H14.5333V69.6735ZM19.3367 69.6735V71.2041H18.3206H17.3045V69.6735V68.1429H18.3206H19.3367V69.6735ZM24.2017 69.6735V71.2041H23.1856H22.1695V69.6735V68.1429H23.1856H24.2017V69.6735ZM29.0667 69.6735V71.2041H28.0198H26.9729V69.6735V68.1429H28.0198H29.0667V69.6735ZM191.027 69.6735V71.2041H189.98H188.933V69.6735V68.1429H189.98H191.027V69.6735ZM195.831 69.6735V71.2041H194.814H193.798V69.6735V68.1429H194.814H195.831V69.6735ZM200.695 69.6735V71.2041H199.679H198.663V69.6735V68.1429H199.679H200.695V69.6735ZM205.56 69.6735V71.2041H204.514H203.467V69.6735V68.1429H204.514H205.56V69.6735ZM210.364 69.6735V71.2041H209.348H208.332V69.6735V68.1429H209.348H210.364V69.6735ZM54.3532 73.7831C54.3294 75.2016 54.3206 76.3726 54.3335 76.3855C54.3464 76.3983 55.1166 76.3329 56.045 76.2402L57.7331 76.0714L57.753 75.3061C57.764 74.8852 57.7539 73.79 57.7307 72.8725L57.6882 71.2041H56.0423H54.3964L54.3532 73.7831ZM160.269 72.8725C160.246 73.79 160.236 74.8852 160.247 75.3061L160.267 76.0714L161.955 76.2402C162.883 76.3329 163.654 76.3981 163.667 76.3849C163.68 76.3717 163.672 75.2006 163.648 73.7825L163.604 71.2041H161.958H160.312L160.269 72.8725ZM67.761 73.112C67.83 76.2412 67.8271 76.3342 67.6631 76.3067C67.5498 76.2876 63.1068 75.8571 63.0235 75.8571C62.9853 75.8571 62.9937 74.0911 63.0391 72.5969L63.0795 71.2653H65.3999H67.7202L67.761 73.112ZM154.961 72.5969C155.006 74.0911 155.015 75.8571 154.977 75.8571C154.893 75.8571 150.45 76.2876 150.337 76.3067C150.173 76.3342 150.17 76.2412 150.239 73.112L150.28 71.2653H152.6H154.92L154.961 72.5969ZM9.66836 75.551V77.0816H8.65226H7.63616V75.551V74.0204H8.65226H9.66836V75.551ZM14.5333 75.551V77.0816H13.4864H12.4395V75.551V74.0204H13.4864H14.5333V75.551ZM19.3367 75.551V77.0816H18.3206H17.3045V75.551V74.0204H18.3206H19.3367V75.551ZM24.2017 75.551V77.0816H23.1856H22.1695V75.551V74.0204H23.1856H24.2017V75.551ZM29.0667 75.551V77.0816H28.0198H26.9729V75.551V74.0204H28.0198H29.0667V75.551ZM191.027 75.551V77.0816H189.98H188.933V75.551V74.0204H189.98H191.027V75.551ZM195.831 75.551V77.0816H194.814H193.798V75.551V74.0204H194.814H195.831V75.551ZM200.695 75.551V77.0816H199.679H198.663V75.551V74.0204H199.679H200.695V75.551ZM205.56 75.551V77.0816H204.514H203.467V75.551V74.0204H204.514H205.56V75.551ZM210.364 75.551V77.0816H209.348H208.332V75.551V74.0204H209.348H210.364V75.551ZM54.2944 78.0459C54.2721 78.7784 54.2539 79.8666 54.2538 80.4643L54.2537 81.551L54.4846 81.5473C54.6116 81.5453 55.4168 81.4696 56.2739 81.379L57.8323 81.2143L57.8273 79.1947C57.8245 78.084 57.8055 77.0715 57.7851 76.9447L57.7481 76.7143H56.0415H54.3349L54.2944 78.0459ZM160.215 76.9447C160.194 77.0715 160.175 78.084 160.173 79.1947L160.168 81.2143L161.726 81.3782C162.583 81.4684 163.388 81.5442 163.515 81.5466L163.746 81.551L163.746 80.4643C163.746 79.8666 163.728 78.7784 163.706 78.0459L163.665 76.7143H161.959H160.252L160.215 76.9447ZM67.8229 77.6117C67.8451 78.0716 67.8633 79.1333 67.8633 79.971V81.494L67.5708 81.4597C67.4099 81.4408 66.4192 81.3434 65.3692 81.2432C64.3192 81.143 63.3424 81.0442 63.1984 81.0236L62.9367 80.9861L62.9371 79.3859C62.9373 78.5058 62.9553 77.5584 62.977 77.2806L63.0165 76.7755H65.3996H67.7826L67.8229 77.6117ZM155.023 77.2806C155.045 77.5584 155.063 78.5058 155.063 79.3859L155.063 80.9861L154.802 81.0227C154.658 81.0429 153.681 81.1419 152.631 81.2427C151.581 81.3435 150.59 81.4413 150.429 81.46L150.137 81.494V79.971C150.137 79.1333 150.155 78.0716 150.177 77.6117L150.217 76.7755H152.6H154.983L155.023 77.2806ZM9.66836 81.3673V82.898H8.65226H7.63616V81.3673V79.8367H8.65226H9.66836V81.3673ZM14.5333 81.3673V82.898H13.4864H12.4395V81.3673V79.8367H13.4864H14.5333V81.3673ZM19.3367 81.3673V82.898H18.3206H17.3045V81.3673V79.8367H18.3206H19.3367V81.3673ZM24.2017 81.3673V82.898H23.1856H22.1695V81.3673V79.8367H23.1856H24.2017V81.3673ZM29.0667 81.3673V82.898H28.0198H26.9729V81.3673V79.8367H28.0198H29.0667V81.3673ZM191.027 81.3673V82.898H189.98H188.933V81.3673V79.8367H189.98H191.027V81.3673ZM195.831 81.3673V82.898H194.814H193.798V81.3673V79.8367H194.814H195.831V81.3673ZM200.695 81.3673V82.898H199.679H198.663V81.3673V79.8367H199.679H200.695V81.3673ZM205.56 81.3673V82.898H204.514H203.467V81.3673V79.8367H204.514H205.56V81.3673ZM210.364 81.3673V82.898H209.348H208.332V81.3673V79.8367H209.348H210.364V81.3673ZM9.66836 86.9082V88.102H8.65226H7.63616V86.9082V85.7143H8.65226H9.66836V86.9082ZM14.5333 86.9082V88.102H13.4864H12.4395V86.9082V85.7143H13.4864H14.5333V86.9082ZM19.3367 86.9082V88.102H18.3206H17.3045V86.9082V85.7143H18.3206H19.3367V86.9082ZM24.2017 86.9082V88.102H23.1856H22.1695V86.9082V85.7143H23.1856H24.2017V86.9082ZM29.0667 86.9082V88.102H28.0198H26.9729V86.9082V85.7143H28.0198H29.0667V86.9082ZM191.027 86.9082V88.102H189.98H188.933V86.9082V85.7143H189.98H191.027V86.9082ZM195.831 86.9082V88.102H194.814H193.798V86.9082V85.7143H194.814H195.831V86.9082ZM200.695 86.9082V88.102H199.679H198.663V86.9082V85.7143H199.679H200.695V86.9082ZM205.56 86.9082V88.102H204.514H203.467V86.9082V85.7143H204.514H205.56V86.9082ZM210.364 86.9082V88.102H209.348H208.332V86.9082V85.7143H209.348H210.364V86.9082Z" fill="white"/>
<path fill-rule="evenodd" clip-rule="evenodd" d="M74.8339 1.39286C74.8935 2.1589 75.0393 4.09439 75.158 5.69388C75.2766 7.29337 75.4855 10.0898 75.6222 11.9082C75.7588 13.7265 75.9665 16.523 76.0837 18.1224C76.2008 19.7219 76.3112 21.1684 76.3289 21.3367C76.3467 21.5051 76.4171 22.4281 76.4854 23.3878C76.5537 24.3474 76.6785 26.0281 76.7629 27.1224C76.8473 28.2168 76.9988 30.2281 77.0994 31.5918C77.2001 32.9556 77.3943 35.5592 77.5308 37.3776C77.7658 40.5052 78.0044 43.6968 78.3616 48.4898C78.4482 49.6515 78.601 51.6765 78.7012 52.9898C78.8013 54.3031 78.9262 55.9699 78.9788 56.6939C79.0779 58.0615 79.3084 61.1342 79.6253 65.3112C79.7269 66.6498 79.8925 68.8607 79.9934 70.2245C80.0944 71.5883 80.2874 74.1781 80.4222 75.9796C80.5572 77.7811 80.7385 80.2056 80.8252 81.3673C80.9119 82.5291 81.0515 84.3672 81.1355 85.4519C81.2195 86.5367 81.2881 87.4941 81.2881 87.5795C81.2881 87.621 81.2881 87.6514 81.3017 87.6737C81.3388 87.7347 81.4775 87.7347 81.9963 87.7347H82.7045V83.7857V79.8367H85.2197H87.7348L87.7753 80.9486C87.7976 81.5601 87.8196 82.8068 87.8241 83.719C87.8288 84.6312 87.8515 85.8184 87.8746 86.3571C87.9161 87.3204 87.9169 87.3102 87.928 85.7449C87.9341 84.8694 87.9575 83.1819 87.9799 81.9949L88.0205 79.8367H90.96H93.8994L93.9356 80.7704C93.9555 81.284 93.9863 82.448 94.0041 83.3571C94.0426 85.3296 94.1072 87.3782 94.1301 87.3541C94.1391 87.3445 94.1823 85.6493 94.2261 83.5867L94.3056 79.8367H98.287H102.268L102.309 80.7092C102.331 81.1891 102.353 82.298 102.357 83.1735C102.362 84.049 102.385 85.3301 102.408 86.0204L102.45 87.2755L102.461 85.6783C102.467 84.8 102.491 83.1262 102.513 81.959L102.554 79.8367H105.705H108.857L108.898 81.5357C108.92 82.4702 108.938 83.9579 108.938 84.8418C108.938 85.8724 108.961 86.449 109 86.449C109.039 86.449 109.062 85.8724 109.062 84.8418C109.062 83.9579 109.08 82.4702 109.102 81.5357L109.143 79.8367H112.295H115.446L115.487 81.959C115.509 83.1262 115.533 84.8 115.539 85.6783L115.55 87.2755L115.592 86.0204C115.615 85.3301 115.638 84.049 115.643 83.1735C115.647 82.298 115.669 81.1891 115.691 80.7092L115.732 79.8367H119.713H123.694L123.774 83.5867C123.818 85.6493 123.861 87.3445 123.87 87.3541C123.893 87.3782 123.957 85.3296 123.996 83.3571C124.014 82.448 124.044 81.284 124.064 80.7704L124.101 79.8367H127.04H129.979L130.02 81.959C130.043 83.1262 130.066 84.8137 130.072 85.709C130.083 87.2896 130.084 87.3084 130.125 86.3571C130.149 85.8184 130.171 84.6061 130.176 83.6633C130.181 82.7204 130.203 81.4737 130.225 80.8929L130.265 79.8367H132.78H135.295V83.7857V87.7347H136.004C136.515 87.7347 136.657 87.7347 136.697 87.6712C136.712 87.6468 136.712 87.6128 136.712 87.5657C136.712 87.4728 136.753 86.8873 136.803 86.2647C136.854 85.6421 136.992 83.824 137.111 82.2245C137.229 80.625 137.438 77.8286 137.575 76.0102C137.711 74.1918 137.906 71.5883 138.007 70.2245C138.107 68.8607 138.259 66.8495 138.343 65.7551C138.427 64.6607 138.566 62.8148 138.653 61.6531C138.842 59.1133 139.148 55.0158 139.48 50.5714C139.615 48.7699 139.796 46.3454 139.882 45.1837C139.969 44.0219 140.108 42.176 140.192 41.0816C140.276 39.9872 140.428 37.976 140.529 36.6122C140.629 35.2485 140.823 32.6587 140.958 30.8571C141.093 29.0556 141.274 26.6311 141.36 25.4694C141.446 24.3077 141.571 22.6408 141.639 21.7653C141.707 20.8898 141.845 19.0577 141.946 17.6939C142.047 16.3301 142.241 13.7265 142.378 11.9082C142.515 10.0898 142.709 7.48622 142.81 6.12245C143.012 3.37708 143.23 0.506082 143.258 0.19898L143.276 0H109.001H74.7255L74.8339 1.39286ZM118.36 9.61224V6.09184V2.57143H109H99.6395V6.09184V9.61224H97.7613H95.883V11.6939V13.7755H109H122.117V11.6939V9.61224H120.239H118.36ZM86.9227 20.4184C86.9051 18.9704 86.874 17.1176 86.8537 16.301L86.8167 14.8163H84.7606H82.7045V20.6327V26.449H84.8681H87.0318L86.9933 24.75C86.972 23.8156 86.9403 21.8663 86.9227 20.4184ZM92.5275 21.1224C92.4762 18.6811 92.4175 16.2635 92.3971 15.75L92.3599 14.8163H90.652H88.9441L88.9038 17.2806C88.8816 18.6359 88.845 21.2533 88.8224 23.0969L88.7814 26.449H90.7169H92.6524L92.6365 26.0051C92.6278 25.761 92.5788 23.5638 92.5275 21.1224ZM101.455 19.6531C101.437 17.9526 101.407 16.1686 101.387 15.6888L101.351 14.8163H98.6151C96.4797 14.8163 95.8741 14.8331 95.8562 14.8929C95.8436 14.935 95.7888 17.1872 95.7344 19.898C95.6801 22.6087 95.6186 25.1916 95.5979 25.6378L95.5603 26.449H98.5632H101.566L101.527 24.5969C101.505 23.5783 101.473 21.3536 101.455 19.6531ZM108.105 25.1173C108.076 23.9319 107.953 15.8445 107.953 15.1071L107.953 14.8163H105.715H103.477L103.437 17.25C103.415 18.5886 103.378 21.2059 103.356 23.0663L103.315 26.449H105.726H108.138L108.105 25.1173ZM114.644 23.0969C114.622 21.2533 114.585 18.6359 114.563 17.2806L114.523 14.8163H112.285H110.047L110.047 15.1071C110.047 15.8445 109.924 23.9319 109.895 25.1173L109.862 26.449H112.274H114.685L114.644 23.0969ZM122.403 25.6684C122.382 25.239 122.318 22.6217 122.26 19.852L122.154 14.8163H119.401H116.649L116.613 15.6888C116.593 16.1686 116.563 17.9526 116.545 19.6531C116.527 21.3536 116.495 23.5783 116.473 24.5969L116.434 26.449H119.437H122.441L122.403 25.6684ZM129.178 23.0969C129.155 21.2533 129.118 18.6359 129.096 17.2806L129.056 14.8163H127.348H125.64L125.603 15.75C125.583 16.2635 125.524 18.6811 125.473 21.1224C125.421 23.5638 125.372 25.761 125.363 26.0051L125.348 26.449H127.283H129.219L129.178 23.0969ZM135.295 26.449V20.6327V14.8163H133.239H131.183L131.146 16.301C131.126 17.1176 131.095 18.9704 131.077 20.4184C131.06 21.8663 131.028 23.8156 131.007 24.75L130.968 26.449H133.132H135.295ZM87.1164 33.8418C87.0941 31.8467 87.0581 29.5324 87.0364 28.699L86.997 27.1837H84.8508H82.7045V32.3265V37.4694H84.9308H87.1571L87.1164 33.8418ZM92.8029 32.5714C92.77 31.073 92.7251 29.2477 92.7031 28.5153L92.6631 27.1837H90.7107H88.7583L88.7177 30.199C88.6954 31.8574 88.6593 34.1717 88.6375 35.3418L88.5977 37.4694H90.7664H92.935L92.8989 36.3827C92.879 35.7849 92.8358 34.0699 92.8029 32.5714ZM101.549 28.1633V27.6735V27.1837H98.5684H95.5883L95.5513 28.1786C95.531 28.7258 95.4869 30.3168 95.4533 31.7143C95.4196 33.1117 95.3739 34.9775 95.3515 35.8603L95.3108 37.4656L96.1049 37.4828L96.8992 37.5V37.8367V38.1735L82.7045 38.2041V43.0102V47.8163H84.4288H86.1531V48.1837V48.551H84.4288H82.7045V53.3571V58.1633H85.0754H87.4463V56.8168V55.4702L87.7316 55.6867C87.8885 55.8058 88.098 55.9449 88.1971 55.9959L88.3772 56.0884L88.3338 57.1259C88.2904 58.1622 88.2905 58.1633 88.4238 58.1633C88.4693 58.1633 88.4999 58.1612 88.5169 58.1753C88.5501 58.2029 88.531 58.2927 88.4693 58.582L88.4576 58.6371C88.4379 58.7294 88.3941 58.8219 88.3602 58.8428C88.3045 58.877 88.1949 64.5216 88.1877 67.7296L88.1853 68.8163H90.9257H93.6661H94.5973H98.3777H102.158L102.121 67.4388L102.083 66.0612H102.401H102.719V67.4394V68.8175L105.714 68.8016L108.71 68.7857L108.697 67.4235L108.684 66.0612H109H109.316L109.303 67.4235L109.29 68.7857L112.292 68.8016L115.293 68.8175L115.274 67.1379L115.254 65.4582L115.584 65.1965L115.915 64.9348L115.884 66.8756L115.854 68.8163H119.642H123.43L123.391 67.4541C123.37 66.7049 123.322 64.549 123.285 62.6633C123.248 60.7776 123.204 59.1451 123.188 59.0357L123.158 58.8367H120.051H116.944V58.5V58.1633H120.054H123.164V57.3061V56.449L123.58 56.4484C123.808 56.4482 124.144 56.4301 124.326 56.4084L124.658 56.3688L124.613 57.266L124.567 58.1633H127.138H129.709L129.67 57.0765C129.649 56.4788 129.613 54.3161 129.591 52.2704L129.551 48.551H128.605H127.659V48.1837V47.8163H128.583H129.507V46.9526C129.507 46.2304 129.521 46.0944 129.595 46.1224C129.708 46.1658 129.781 46.0469 130.207 45.1224C130.401 44.7015 130.601 44.2745 130.651 44.1735C130.732 44.0088 130.739 44.1875 130.71 45.9031L130.679 47.8163H132.987H135.295V43.0102V38.2041H133.641H131.986L131.948 37.9745C131.916 37.7803 131.875 37.6602 131.916 37.586C131.994 37.448 132.358 37.4694 133.602 37.4694H135.295V32.3265V27.1837H133.15H131.004L130.964 28.5153C130.942 29.2477 130.92 30.6046 130.915 31.5306C130.911 32.4566 130.89 33.4177 130.869 33.6664L130.831 34.1186L130.584 33.7593C130.449 33.5617 130.109 33.1716 129.83 32.8926L129.321 32.3852L129.281 29.7844L129.24 27.1837H127.29H125.339L125.298 28.3316C125.276 28.963 125.258 29.7651 125.258 30.1139L125.258 30.7483L125.031 30.706C124.706 30.6455 123.459 30.5542 122.933 30.5525L122.486 30.551V29.6117C122.486 29.095 122.468 28.3373 122.446 27.928L122.406 27.1837H119.429H116.451L116.445 27.9949C116.441 28.4411 116.42 29.0592 116.398 29.3685L116.359 29.9309L116.04 29.5432C115.841 29.3004 115.536 29.0334 115.225 28.8285L114.727 28.5015V27.8426V27.1837H112.295H109.862V27.6735V28.1633H109H108.138V27.6735V27.1837H105.705H103.273V27.6735V28.1633H102.411H101.549ZM135.295 58.1633V53.3571V48.551H132.995H130.695L130.656 50.5867C130.634 51.7064 130.598 53.8691 130.576 55.3929L130.535 58.1633H132.915H135.295ZM87.5368 63.2449C87.5181 61.0393 87.4888 59.1451 87.4718 59.0357L87.4407 58.8367H85.0726H82.7045V63.8265V68.8163H85.1757H87.6469L87.6088 68.0357C87.588 67.6063 87.5555 65.4505 87.5368 63.2449ZM129.793 65.8622C129.771 64.2375 129.734 61.9921 129.712 60.8724L129.673 58.8367H127.133H124.594L124.556 59.9541C124.535 60.5686 124.491 62.3801 124.458 63.9796C124.424 65.5791 124.38 67.3217 124.36 67.852L124.322 68.8163H127.078H129.834L129.793 65.8622ZM135.295 68.8163V63.8265V58.8367H132.93H130.564L130.529 59.2806C130.51 59.5247 130.48 61.4051 130.462 63.4592C130.444 65.5133 130.412 67.559 130.392 68.0051L130.354 68.8163H132.825H135.295ZM87.7319 77.0357C87.7107 75.8656 87.6756 73.7028 87.6539 72.2296L87.6146 69.551H85.1595H82.7045V74.3571V79.1633H85.2376H87.7706L87.7319 77.0357ZM93.7883 73.9592C93.7539 72.225 93.7097 70.5238 93.69 70.1786L93.6543 69.551H90.8972H88.1401L88.1004 73.5459C88.0785 75.7431 88.0438 77.9059 88.0232 78.352L87.9857 79.1633H90.9561H93.9265L93.8887 78.1378C93.8679 77.5737 93.8227 75.6934 93.7883 73.9592ZM102.266 77.1582C102.244 76.0553 102.209 73.8926 102.187 72.352L102.147 69.551H98.3724H94.5974L94.5658 69.8112C94.5484 69.9544 94.5047 71.4352 94.4685 73.102C94.4323 74.7689 94.3851 76.8146 94.3635 77.648L94.3242 79.1633H98.3145H102.305L102.266 77.1582ZM108.855 77.6786C108.834 76.862 108.798 74.6993 108.776 72.8725L108.736 69.551H105.732H102.728L102.695 69.9337C102.653 70.4088 102.542 79.0542 102.577 79.1173C102.591 79.1426 104.018 79.1633 105.748 79.1633H108.894L108.855 77.6786ZM115.423 79.1173C115.458 79.0542 115.347 70.4088 115.305 69.9337L115.272 69.551H112.268H109.264L109.224 72.8725C109.202 74.6993 109.166 76.862 109.145 77.6786L109.106 79.1633H112.252C113.982 79.1633 115.409 79.1426 115.423 79.1173ZM123.658 78.9031C123.662 78.1894 123.46 69.9219 123.434 69.75L123.405 69.551H119.629H115.853L115.813 72.352C115.791 73.8926 115.756 76.0553 115.734 77.1582L115.695 79.1633H119.676H123.656L123.658 78.9031ZM129.977 78.4133C129.956 78.0008 129.922 75.838 129.9 73.6071L129.86 69.551H127.103H124.346L124.31 70.1786C124.291 70.5238 124.247 72.225 124.212 73.9592C124.177 75.6934 124.132 77.5737 124.111 78.1378L124.073 79.1633H127.044H130.014L129.977 78.4133ZM135.295 79.1633V74.3571V69.551H132.84H130.385L130.346 72.2602C130.324 73.7503 130.289 75.913 130.268 77.0663L130.23 79.1633H132.763H135.295Z" fill="white"/>
</svg>
