<svg width="348" height="64" viewBox="0 0 348 64" fill="none" xmlns="http://www.w3.org/2000/svg">
<path d="M62.4486 19.3057C61.9828 19.4188 61.5097 19.7892 61.297 20.2073C61.0945 20.6053 61.0861 20.7235 61.0854 23.2017L61.0847 25.4864L58.4435 25.4984C55.4907 25.5119 55.6632 25.4963 55.1777 25.7939C54.8285 26.0078 54.5309 26.4408 54.4399 26.8673C54.3538 27.2706 54.4022 34.2258 54.4927 34.463C54.7634 35.1723 55.317 35.5741 56.0936 35.6251L56.4618 35.6492L56.3126 36.0444C55.226 38.9237 55.6282 41.2649 57.4079 42.4203C58.1181 42.8814 58.9039 43.1211 59.9706 43.2018C60.3747 43.2324 60.4914 43.2248 60.3147 43.1793C59.6238 43.0014 58.8199 42.327 58.477 41.6378C57.6856 40.0467 58.3097 37.2303 59.9272 35.0944C63.584 30.2654 66.4897 27.8157 71.5684 25.2801C74.2416 23.9454 77.3276 23.571 78.9684 24.3822C79.939 24.8621 80.4893 25.5662 80.6989 26.5965C80.795 27.0691 80.7598 28.074 80.6276 28.6276C80.5748 28.8485 80.5213 29.081 80.5087 29.1441C80.4697 29.3397 80.8554 28.5215 81.0588 27.977C83.1559 22.3657 79.7201 19.4409 73.2411 21.322C72.9469 21.4074 72.6544 21.4906 72.591 21.507C72.5276 21.5233 72.4385 21.5485 72.393 21.5631C72.3114 21.5892 72.3101 21.5821 72.2969 21.062C72.2843 20.5608 72.2774 20.5214 72.1601 20.2747C71.9241 19.7785 71.429 19.3844 70.9242 19.2909C70.6049 19.2318 62.6962 19.2456 62.4486 19.3057Z" fill="white"/>
<path fill-rule="evenodd" clip-rule="evenodd" d="M65.123 3.83745L65.0698 4.24501L64.8733 4.26736C64.7652 4.27964 64.357 4.31665 63.9661 4.34959C63.5752 4.38254 63.2381 4.41587 63.217 4.42367C63.1958 4.43144 63.5944 4.43921 64.1028 4.44085L65.0271 4.44388L64.9358 5.10338C64.8856 5.4661 64.8408 5.76656 64.8363 5.77107C64.8317 5.77559 64.5001 5.80658 64.0993 5.83995C63.6985 5.87332 63.3447 5.90665 63.313 5.91399C63.2813 5.92134 63.6041 5.92934 64.0303 5.93179L64.8052 5.93622L64.8001 6.29018C64.7974 6.48483 64.8083 6.74045 64.8244 6.85815L64.8538 7.07217L63.9969 7.15L63.1401 7.22783L64.0094 7.23254L64.8788 7.23725L64.9233 7.5338C65.0186 8.16946 65.0215 8.27041 64.9442 8.27041C64.7611 8.27041 60.9071 8.50406 60.8734 8.51722C60.8523 8.52549 61.7878 8.5336 62.9524 8.53524L65.0697 8.53827L65.1278 8.93048L65.1858 9.3227L65.1906 8.93048L65.1955 8.53827H65.8853H66.575L66.5973 8.66263C66.6096 8.73105 66.6342 8.89031 66.652 9.01658C66.6844 9.24617 66.6844 9.24617 66.6891 8.89222L66.6938 8.53827H68H69.3062L69.3109 8.89222C69.3135 9.0879 69.3147 9.1754 69.3206 9.17573C69.3255 9.176 69.3335 9.11929 69.348 9.01671L69.348 9.01658C69.3658 8.89031 69.3904 8.73105 69.4027 8.66263L69.425 8.53827H70.1147H70.8045L70.8094 8.93048L70.8142 9.3227L70.8723 8.93048L70.9303 8.53827L73.0668 8.53383C74.2419 8.53138 75.1775 8.52304 75.1458 8.51527C75.0932 8.50241 71.2183 8.27041 71.0559 8.27041C70.9785 8.27041 70.9814 8.16946 71.0767 7.5338L71.1212 7.23725L71.9906 7.23204L72.8599 7.22684L72.0031 7.14966L71.1462 7.07244L71.1756 6.8583C71.1917 6.74052 71.2027 6.48483 71.1999 6.29018L71.1948 5.93622L71.9697 5.93179C72.396 5.92934 72.7187 5.92134 72.687 5.91399C72.6553 5.90665 72.3015 5.87332 71.9007 5.83995C71.4999 5.80658 71.1683 5.77559 71.1638 5.77111C71.1593 5.76659 71.119 5.49625 71.0744 5.17034C71.0298 4.84444 70.9843 4.54769 70.9732 4.51084C70.9544 4.44839 71.0162 4.44369 71.8873 4.44085C72.4011 4.43921 72.8042 4.43102 72.7831 4.42272C72.7619 4.41438 72.3406 4.37351 71.8468 4.33187C71.353 4.29024 70.9449 4.25106 70.9398 4.24478C70.9348 4.23855 70.9044 4.05261 70.8724 3.83163L70.8142 3.42985L70.8094 3.83756L70.8045 4.24528L70.5644 4.22443C70.4324 4.21295 70.1168 4.18444 69.8633 4.1611L69.4023 4.11862L69.3591 3.8125L69.3159 3.50638L69.3111 3.80293C69.3106 3.83254 69.3107 3.85943 69.3108 3.88381C69.3113 3.96895 69.3115 4.02343 69.2848 4.05574C69.2373 4.11317 69.1044 4.10052 68.7353 4.06537C68.6758 4.05971 68.6102 4.05347 68.5379 4.04684C68.1222 4.00876 67.9085 4.00895 67.4622 4.04783C67.3802 4.05497 67.3068 4.06168 67.2413 4.06769C66.8856 4.10026 66.7579 4.11195 66.7127 4.0567C66.6874 4.02574 66.688 3.97378 66.6889 3.8927C66.6892 3.86602 66.6895 3.8362 66.6889 3.80293L66.6841 3.50638L66.6409 3.80041C66.6172 3.96208 66.5891 4.10228 66.5785 4.11193C66.568 4.12153 66.3086 4.14904 66.0023 4.173C65.6959 4.19695 65.3896 4.22534 65.3216 4.23606L65.1981 4.25554L65.1872 3.84269L65.1763 3.42985L65.123 3.83745ZM66.5209 4.60651C66.5078 4.69597 66.4678 4.96716 66.4322 5.20918L66.3672 5.64923L66.0791 5.67434C65.9206 5.68815 65.657 5.71084 65.4932 5.72481L65.1955 5.75014V5.09703V4.44388H65.8701H66.5448L66.5209 4.60651ZM69.3062 5.01147C69.3062 5.32367 69.2987 5.58656 69.2895 5.5957C69.2803 5.60485 68.987 5.58835 68.6376 5.55901C68.0923 5.5132 67.9123 5.51332 67.3656 5.55985C67.0154 5.58962 66.721 5.60615 66.7113 5.59654C66.7017 5.58694 66.6938 5.32367 66.6938 5.01147V4.44388H68H69.3062V5.01147ZM70.8045 5.09703V5.75014L70.5068 5.72481C70.343 5.71084 70.0794 5.68815 69.9209 5.67434L69.6328 5.64923L69.5678 5.20918C69.5322 4.96716 69.4922 4.69597 69.4791 4.60651L69.4552 4.44388H70.1299H70.8045V5.09703ZM66.3297 6.57285C66.3317 6.76084 66.3327 6.85695 66.2851 6.9087C66.2353 6.96283 66.1323 6.96842 65.9216 6.97988C65.8767 6.98232 65.827 6.98502 65.7718 6.98852C65.571 7.00122 65.3593 7.02074 65.3011 7.03184L65.1955 7.052V6.49409V5.93622L65.7621 5.93638L66.3288 5.93653V6.43291C66.3288 6.48447 66.3293 6.53094 66.3297 6.57285ZM69.3062 6.41454V6.89286L69.1429 6.89029C69.0531 6.88888 68.7549 6.86737 68.4802 6.84246C68.1005 6.80806 67.8749 6.80772 67.539 6.84116C67.296 6.86534 67.0064 6.88685 66.8955 6.88899L66.6938 6.89286V6.41454V5.93622H68H69.3062V6.41454ZM70.8045 6.49409V7.052L70.6989 7.03184C70.6408 7.02074 70.429 7.00122 70.2282 6.98852C70.173 6.98502 70.1233 6.98232 70.0784 6.97988C69.8677 6.96842 69.7647 6.96283 69.7149 6.9087C69.6673 6.85695 69.6683 6.76084 69.6703 6.57285C69.6707 6.53094 69.6712 6.48447 69.6712 6.43291V5.93653L70.2379 5.93638L70.8045 5.93622V6.49409ZM66.3987 7.32334C66.4353 7.47705 66.5154 8.15477 66.4987 8.17011C66.4898 8.1783 66.1929 8.19744 65.839 8.21263L65.1955 8.24029V7.73875V7.23725H65.7868C66.3683 7.23725 66.3784 7.23866 66.3987 7.32334ZM69.3062 7.69872V8.1602L68.7395 8.12921C68.4279 8.11218 68.0951 8.09821 68 8.09821C67.9049 8.09821 67.5721 8.11218 67.2605 8.12921L66.6938 8.1602V7.69872V7.23725H68H69.3062V7.69872ZM70.8045 7.73875V8.24029L70.161 8.21263C69.8071 8.19744 69.5102 8.1783 69.5013 8.17011C69.4846 8.15477 69.5647 7.47705 69.6013 7.32334C69.6216 7.23866 69.6317 7.23725 70.2132 7.23725H70.8045V7.73875ZM19.209 25.4133V38.4235H11.0068H2.80452L2.8051 38.6435C2.8054 38.7645 2.82242 39.1562 2.84298 39.514C2.86349 39.8718 2.93241 41.258 2.99611 42.5944C3.05981 43.9308 3.13787 45.5236 3.16957 46.1339C3.2013 46.7443 3.28759 48.492 3.36139 50.0179C3.43519 51.5437 3.5302 53.4895 3.57254 54.3418C3.61487 55.1942 3.64956 55.9303 3.6496 55.9777C3.64972 56.0638 3.64972 56.0638 1.82486 56.0638H0V58.5319V61H68H136V58.5319V56.0638H134.175C132.562 56.0638 132.375 56.0638 132.353 56.0043C132.35 55.9965 132.35 55.9877 132.35 55.9777C132.351 55.9303 132.385 55.1942 132.428 54.3418C132.47 53.4895 132.565 51.5437 132.639 50.0179C132.712 48.492 132.799 46.7443 132.83 46.1339C132.862 45.5236 132.94 43.9222 133.004 42.5753C133.068 41.2283 133.137 39.8422 133.157 39.4949C133.178 39.1476 133.195 38.7645 133.195 38.6435L133.195 38.4235H124.993H116.791V25.4133V12.4031H108.262H99.7333V15.4069V18.4107H94.7838C92.0616 18.4107 89.8271 18.4179 89.8183 18.4266C89.8004 18.4443 89.8168 18.9834 89.9553 22.926C90.0081 24.4308 90.0777 26.4455 90.1099 27.4031C90.1421 28.3607 90.2111 30.3667 90.2634 31.861C90.3156 33.3552 90.3932 35.6282 90.4358 36.912C90.4784 38.1958 90.5305 39.6939 90.5517 40.2411C90.5729 40.7883 90.6333 42.536 90.686 44.125C90.7388 45.714 90.8254 48.2452 90.8785 49.75C90.9317 51.2548 90.9991 53.1973 91.0282 54.0668C91.0573 54.9362 91.0917 55.658 91.1044 55.6707C91.1172 55.6835 91.1277 47.5979 91.1277 37.7028V19.7117H92.0819H93.0361L93.0615 21.0606C93.0755 21.8025 93.0869 22.6773 93.0869 23.0046L93.087 23.5998L92.1554 23.6873C91.643 23.7355 91.2165 23.7819 91.2077 23.7905C91.1989 23.7991 91.6164 23.8061 92.1355 23.8061H93.0793L93.103 24.2749C93.1161 24.5327 93.1308 25.256 93.1357 25.8821L93.1446 27.0206L93.0294 27.0384C92.966 27.0482 92.5165 27.0954 92.0305 27.1435L91.1469 27.2309L92.1554 27.2411L93.1638 27.2513V28.2395C93.1638 28.783 93.175 29.4592 93.1886 29.7421L93.2134 30.2565L92.4465 30.3254C91.1951 30.438 91.1683 30.4543 92.2261 30.4595L93.19 30.4643L93.2168 31.8468C93.2315 32.6071 93.2368 33.236 93.2286 33.2442C93.2204 33.2524 92.7745 33.3021 92.2379 33.3547C91.7012 33.4072 91.2449 33.4572 91.2237 33.4657C91.2026 33.4742 91.645 33.4826 92.2069 33.4842L93.2284 33.4872L93.2537 34.3544C93.2677 34.8313 93.2791 35.4568 93.2791 35.7444V36.2672L92.3667 36.3544C91.0333 36.4818 91.0132 36.5009 92.2072 36.5058L93.2674 36.5102L93.2925 36.918C93.3063 37.1422 93.3175 37.7613 93.3175 38.2938V39.2618L93.1927 39.2813C93.124 39.292 92.6615 39.3423 92.165 39.3932L91.2622 39.4855L92.2898 39.4902C92.8551 39.4928 93.321 39.4992 93.3252 39.5045C93.3295 39.5097 93.3424 40.1368 93.354 40.898L93.3751 42.2821L93.0678 42.3089C92.8988 42.3237 92.3974 42.3748 91.9537 42.4225L91.1469 42.5093L92.2673 42.5136L93.3876 42.5179L93.4013 43.8858C93.4089 44.6382 93.4105 45.2609 93.405 45.2695C93.3994 45.2782 92.915 45.3338 92.3285 45.3932C91.742 45.4526 91.2362 45.5081 91.2045 45.5166C91.1728 45.525 91.6584 45.5339 92.2836 45.5364L93.4203 45.5408L93.4465 47.1154C93.4609 47.9813 93.4639 48.6986 93.4532 48.7092C93.4425 48.7199 92.9396 48.7759 92.3357 48.8338C91.7317 48.8917 91.2272 48.9493 91.2146 48.9619C91.202 48.9744 91.7019 48.9847 92.3253 48.9847H93.4589L93.4842 49.8744C93.533 51.5952 93.5233 51.9266 93.4232 51.949C93.3756 51.9596 92.8699 52.0123 92.2994 52.0661C91.7289 52.12 91.2449 52.1705 91.2237 52.1785C91.2026 52.1864 91.7056 52.1943 92.3416 52.196L93.4979 52.199L93.5228 52.6295C93.5365 52.8662 93.5501 53.5765 93.553 54.2079C93.5562 54.9139 93.5698 55.2822 93.5882 55.1645C93.6047 55.0593 93.6196 54.4289 93.6215 53.7636C93.6234 53.0984 93.6358 52.4741 93.6493 52.3765L93.6737 52.199H95.2244H96.7751L96.7802 53.3374C96.783 53.9635 96.7972 54.7427 96.8118 55.0689L96.8382 55.662L96.8452 54.8202C96.849 54.3571 96.8635 53.5779 96.8774 53.0886L96.9027 52.199H98.318H99.7333V51.9743C99.7333 51.9501 99.7344 51.9285 99.7353 51.9091C99.7374 51.8638 99.739 51.8302 99.7259 51.8039C99.6881 51.7281 99.5285 51.7126 98.9095 51.6524C98.817 51.6434 98.7142 51.6334 98.6 51.6221C97.9119 51.5537 97.6734 51.5444 97.3168 51.5721L96.8789 51.6061L96.9038 50.8632C96.9176 50.4547 96.9288 49.8648 96.9288 49.5525V48.9847H98.3311H99.7333V48.7551C99.7333 48.6288 99.729 48.5241 99.7237 48.5224C99.5147 48.4556 97.6216 48.3135 97.3256 48.3425C97.1246 48.3621 96.9569 48.3726 96.9529 48.3657C96.9489 48.3589 96.9521 47.7205 96.9601 46.9471L96.9745 45.5408H98.3557H99.737L99.7256 45.3017L99.7141 45.0625L98.8497 44.9785C97.853 44.8818 97.6219 44.8717 97.2647 44.9099L97.0057 44.9375V43.8472C97.0057 43.2476 97.0164 42.7032 97.0297 42.6374L97.0537 42.5179H98.3935H99.7333V42.2906C99.7333 42.2654 99.7345 42.243 99.7356 42.2228C99.738 42.1789 99.7397 42.1462 99.7271 42.1205C99.69 42.0451 99.5288 42.0302 98.8946 41.9718C98.7956 41.9626 98.685 41.9524 98.5616 41.9408C97.9769 41.8856 97.6128 41.8691 97.3802 41.8874L97.0441 41.9137V41.1695C97.0441 40.7602 97.0554 40.2159 97.0692 39.9601L97.0943 39.4949H98.4138H99.7333V39.2653C99.7333 39.1011 99.719 39.0357 99.6828 39.0357C99.655 39.0357 99.188 38.9928 98.6451 38.9403C97.9131 38.8696 97.5835 38.8529 97.3702 38.8757L97.0825 38.9063V38.5754C97.0825 38.3934 97.0939 37.8543 97.1078 37.3774L97.1332 36.5102H98.4333H99.7333V36.2705V36.0307L98.6951 35.933C97.9451 35.8625 97.5857 35.8439 97.401 35.866C97.2603 35.8829 97.1412 35.8926 97.1361 35.8876C97.1311 35.8827 97.137 35.3405 97.1491 34.6829L97.1712 33.4872H98.4522H99.7333V33.2594C99.7333 33.2339 99.7345 33.2111 99.7355 33.1908C99.7378 33.1448 99.7395 33.1109 99.7262 33.0844C99.6884 33.0094 99.5296 32.995 98.9205 32.9395C98.8251 32.9309 98.7187 32.9212 98.6 32.9101C98.046 32.8584 97.6105 32.8364 97.4326 32.8513L97.1489 32.8749L97.1733 32.6974C97.1868 32.5998 97.1977 32.0574 97.1977 31.4921V30.4643H98.4655H99.7333V30.2347C99.7333 30.0649 99.7195 30.0051 99.6803 30.0051C99.6511 30.0051 99.1887 29.9612 98.6526 29.9075C98.0408 29.8462 97.5955 29.8191 97.4566 29.8348L97.2351 29.8597L97.2453 28.5644L97.2554 27.2691L98.4944 27.259L99.7333 27.2489V27.0216C99.7333 26.7949 99.733 26.7942 99.6085 26.7738C99.2672 26.7178 97.6894 26.5936 97.4959 26.6076L97.2746 26.6235L97.2747 25.7601C97.2748 25.2852 97.2861 24.6513 97.2999 24.3514L97.325 23.8061H98.5292H99.7333V23.5765C99.7333 23.4503 99.729 23.3469 99.7237 23.3469C99.7185 23.3469 99.294 23.3039 98.7805 23.2513C98.267 23.1987 97.724 23.1556 97.5738 23.1556H97.3007L97.3261 22.231C97.34 21.7225 97.3514 20.9477 97.3514 20.5091V19.7117H98.5424H99.7333V19.0612V18.4107H102.92H106.106L106.089 18.669C106.079 18.811 106.045 19.5989 106.013 20.4196C105.981 21.2404 105.929 22.463 105.898 23.1365C105.867 23.8099 105.79 25.5922 105.727 27.0969C105.664 28.6017 105.569 30.823 105.516 32.0332C105.342 36.0242 105.266 37.7939 105.133 40.9872C105.06 42.7235 104.99 44.3163 104.978 44.5268C104.966 44.7372 104.914 45.9426 104.861 47.2054C104.809 48.4681 104.731 50.2934 104.688 51.2615C104.644 52.2296 104.586 53.5297 104.558 54.1505C104.515 55.1208 104.507 52.7809 104.503 37.4955L104.497 19.7117H103.636H102.776L102.754 20.0657C102.742 20.2603 102.724 21.1451 102.713 22.0317L102.694 23.6437L103.202 23.6908C104.013 23.766 104.052 23.798 103.34 23.8023L102.701 23.8061L102.672 25.434C102.656 26.3294 102.65 27.0682 102.658 27.0759C102.666 27.0836 103.001 27.1216 103.402 27.1604L104.132 27.2309L103.399 27.2412L102.665 27.2516L102.64 27.8309C102.579 29.2292 102.606 30.311 102.701 30.3134C102.749 30.3147 103.064 30.3471 103.402 30.3854L104.017 30.4552L103.318 30.4597L102.619 30.4643L102.599 30.6269C102.588 30.7163 102.573 31.354 102.566 32.0439C102.553 33.2829 102.554 33.2985 102.632 33.3146C102.675 33.3235 103.022 33.3638 103.402 33.4041L104.094 33.4775L103.322 33.4823L102.55 33.4872L102.526 34.8915C102.513 35.6639 102.507 36.3009 102.513 36.3072C102.52 36.3134 102.835 36.3513 103.213 36.3913L103.902 36.464L103.206 36.468L102.511 36.4719L102.482 37.873C102.467 38.6436 102.469 39.2878 102.487 39.3048C102.504 39.3217 102.856 39.3692 103.268 39.4103L104.017 39.4851L103.245 39.49L102.473 39.4949L102.448 40.4769C102.422 41.4777 102.415 42.3243 102.432 42.3293C102.437 42.3309 102.822 42.3718 103.287 42.4203L104.132 42.5084L103.283 42.5131L102.435 42.5179L102.41 43.1779C102.354 44.6491 102.373 45.3491 102.471 45.3523C102.518 45.3538 102.851 45.386 103.21 45.4238L103.863 45.4926L103.129 45.4976L102.396 45.5026L102.371 46.0287C102.357 46.3181 102.345 47.0542 102.343 47.6645L102.341 48.7742L103.102 48.8508L103.863 48.9273L103.095 48.9464L102.327 48.9656L102.3 50.4761C102.285 51.3069 102.277 51.9898 102.281 51.9935C102.285 51.9973 102.625 52.0321 103.037 52.071L103.786 52.1416L103.037 52.1607L102.288 52.1798L102.247 53.5574L102.206 54.9349L102.199 53.9209C102.195 53.3632 102.181 52.7388 102.167 52.5332L102.142 52.1596L101.024 52.1697L99.9062 52.1798L99.8726 54.1218L99.8389 56.0638H68.0002H36.1615L36.1276 54.1218L36.0938 52.1798L34.9759 52.1697L33.858 52.1596L33.8332 52.5332C33.8195 52.7388 33.8052 53.3632 33.8014 53.9209L33.7945 54.9349L33.7532 53.5574L33.7119 52.1798L32.9627 52.1607L32.2136 52.1416L32.9627 52.0714C33.3747 52.0328 33.7152 51.9979 33.7192 51.9939C33.7232 51.99 33.7146 51.3069 33.7 50.4761L33.6734 48.9656L32.9051 48.9464L32.1367 48.9273L32.8955 48.8533L33.6542 48.7792L33.6541 47.6288C33.654 46.996 33.6427 46.2588 33.629 45.9904L33.604 45.5026L32.8704 45.4976L32.1367 45.4926L32.7898 45.4238C33.149 45.386 33.4819 45.3538 33.5294 45.3523C33.6268 45.3491 33.6465 44.6491 33.5905 43.1779L33.5653 42.5179L32.7166 42.5131L31.8678 42.5084L32.713 42.4203C33.1779 42.3718 33.5625 42.3309 33.5678 42.3293C33.5851 42.3243 33.5779 41.4777 33.552 40.4769L33.5266 39.4949L32.7549 39.4898L31.9831 39.4846L32.767 39.4072L33.551 39.3297L33.5258 38.3538C33.5119 37.817 33.5006 37.1741 33.5006 36.9249V36.4719L32.7994 36.468L32.0983 36.464L32.7868 36.3913C33.1654 36.3513 33.4804 36.3134 33.4867 36.3072C33.493 36.3009 33.4872 35.6639 33.4739 34.8915L33.4498 33.4872H32.6812C32.2585 33.4872 31.9198 33.4805 31.9286 33.4724C31.9374 33.4642 32.2558 33.4287 32.6362 33.3934C33.0165 33.3581 33.3543 33.3217 33.387 33.3125C33.4457 33.2959 33.4583 30.9473 33.4015 30.5886L33.3818 30.4643L32.6825 30.4598L31.9831 30.4553L32.5977 30.386C32.9358 30.3479 33.2513 30.3155 33.2989 30.314C33.3942 30.311 33.4209 29.2291 33.3601 27.8309L33.335 27.2516L32.6014 27.2412L31.8678 27.2309L32.5977 27.16C32.9992 27.121 33.3341 27.083 33.3421 27.0755C33.35 27.068 33.3436 26.3294 33.328 25.434L33.2994 23.8061H32.6637C32.314 23.8061 32.0368 23.7972 32.0477 23.7864C32.0656 23.7686 33.0814 23.6556 33.2402 23.6538C33.3071 23.6531 33.3111 21.137 33.246 20.0657L33.2245 19.7117H32.3637H31.5028L31.4976 37.4955C31.4925 55.13 31.4919 55.2665 31.4241 53.7487C31.2728 50.3611 31.1209 46.8619 30.9066 41.8291C30.8542 40.5979 30.7594 38.3938 30.696 36.9311C30.6325 35.4684 30.563 33.8498 30.5415 33.3342C30.52 32.8186 30.4686 31.639 30.4272 30.713C30.3858 29.787 30.3168 28.177 30.2738 27.1352C30.2309 26.0934 30.1618 24.4834 30.1202 23.5574C30.0787 22.6314 30.0187 21.2194 29.987 20.4196C29.9552 19.6199 29.9216 18.8407 29.9122 18.6881L29.8952 18.4107H33.0809H36.2667V19.0612V19.7117H37.4576H38.6486L38.6487 20.5057C38.6487 20.9425 38.66 21.7216 38.6738 22.2372L38.699 23.1747L38.4434 23.1619C38.2287 23.1511 36.9977 23.2559 36.4299 23.3334C36.3573 23.3433 36.317 23.3488 36.2946 23.3717C36.2667 23.4002 36.2667 23.4559 36.2667 23.5809V23.8061H37.4708H38.6751L38.7001 24.3514C38.7139 24.6513 38.7252 25.2852 38.7253 25.7601L38.7254 26.6235L38.5013 26.6074C38.3087 26.5935 36.7575 26.7163 36.3915 26.7744C36.2669 26.7943 36.2667 26.7947 36.2667 27.0216V27.2489L37.5056 27.259L38.7446 27.2691L38.7547 28.5637L38.7649 29.8582L38.5242 29.834C38.3706 29.8185 37.9373 29.845 37.3252 29.9074C36.7981 29.9611 36.3442 30.0051 36.3167 30.0051C36.2812 30.0051 36.2667 30.0716 36.2667 30.2347V30.4643H37.5345H38.8023V31.4921C38.8023 32.0574 38.8132 32.5995 38.8266 32.6966L38.8509 32.8734L38.548 32.8511C38.359 32.8372 37.9349 32.8589 37.4192 32.9089C37.2986 32.9206 37.1905 32.9309 37.0936 32.94C36.47 32.9992 36.3104 33.0143 36.2732 33.0895C36.2605 33.1154 36.2622 33.1483 36.2645 33.1926C36.2655 33.2127 36.2667 33.235 36.2667 33.26V33.4872H37.5478H38.8288L38.8509 34.6829C38.863 35.3405 38.87 35.8813 38.8664 35.8846C38.8629 35.8879 38.742 35.8783 38.5979 35.8633C38.4187 35.8447 38.0091 35.8668 37.3013 35.9334L36.2667 36.0307V36.2705V36.5102H37.5667H38.8668L38.8921 37.3999C38.906 37.8892 38.9174 38.4283 38.9174 38.598L38.9175 38.9063L38.628 38.8755C38.4124 38.8524 38.0863 38.8689 37.3506 38.9401C36.8072 38.9926 36.3411 39.0356 36.3147 39.0356C36.2816 39.0357 36.2667 39.1072 36.2667 39.2653V39.4949H37.5862H38.9057L38.9308 39.9601C38.9446 40.2159 38.9559 40.7599 38.9559 41.169V41.9128L38.6006 41.8871C38.353 41.8691 37.9948 41.8855 37.4192 41.941C37.2964 41.9528 37.1866 41.9631 37.0883 41.9724C36.4683 42.0307 36.3096 42.0456 36.2729 42.1202C36.2602 42.1458 36.262 42.1785 36.2644 42.2224C36.2654 42.2426 36.2667 42.2652 36.2667 42.2906V42.5179H37.6065H38.9463L38.9703 42.6374C38.9836 42.7032 38.9944 43.2476 38.9944 43.8472V44.9375L38.7353 44.9099C38.3781 44.8717 38.147 44.8818 37.1503 44.9785L36.2859 45.0625L36.2744 45.3017L36.263 45.5408H37.6443H39.0255L39.04 46.9471C39.0479 47.7205 39.0511 48.3589 39.0471 48.3657C39.0431 48.3726 38.8756 48.3622 38.6749 48.3425C38.3721 48.3129 38.1381 48.3241 37.298 48.4083L36.2859 48.5098L36.2744 48.7473L36.263 48.9847H37.6671H39.0712V49.5525C39.0712 49.8648 39.0824 50.4548 39.0962 50.8637L39.1212 51.6071L38.699 51.5728C38.3579 51.5451 38.1116 51.5546 37.4158 51.6219C37.3034 51.6328 37.2019 51.6425 37.1102 51.6512C36.476 51.7113 36.3131 51.7268 36.2746 51.8039C36.2613 51.8306 36.2628 51.8646 36.2648 51.9104C36.2657 51.9295 36.2667 51.9507 36.2667 51.9743V52.199H37.682H39.0974L39.1226 53.0886C39.1365 53.5779 39.151 54.3571 39.1548 54.8202L39.1618 55.662L39.1882 55.0689C39.2028 54.7427 39.217 53.9635 39.2198 53.3374L39.2249 52.199H40.7756H42.3263L42.3507 52.3765C42.3642 52.4741 42.3766 53.0984 42.3785 53.7636C42.3804 54.4289 42.3954 55.0593 42.4118 55.1645C42.4302 55.2822 42.4438 54.9139 42.447 54.2079C42.4499 53.5765 42.4635 52.8662 42.4772 52.6295L42.5022 52.199L43.6584 52.196C44.2944 52.1943 44.7974 52.1864 44.7763 52.1785C44.7551 52.1705 44.2711 52.12 43.7006 52.0661C43.1301 52.0123 42.6244 51.9596 42.5768 51.949C42.4767 51.9266 42.467 51.5952 42.5158 49.8744L42.5411 48.9847H43.6747C44.2982 48.9847 44.798 48.9744 44.7854 48.9619C44.7728 48.9493 44.2683 48.8917 43.6643 48.8338C43.0604 48.7759 42.5577 48.7201 42.5472 48.7096C42.5368 48.6992 42.5398 47.982 42.554 47.1158L42.5797 45.5408L43.7164 45.5364C44.3416 45.5339 44.8272 45.525 44.7955 45.5166C44.7638 45.5081 44.258 45.4526 43.6715 45.3932C43.085 45.3338 42.6006 45.2782 42.595 45.2695C42.5895 45.2609 42.5911 44.6382 42.5987 43.8858L42.6124 42.5179L43.7327 42.5136L44.8531 42.5093L44.0463 42.4225C43.6026 42.3748 43.1012 42.3237 42.9322 42.3089L42.6249 42.282L42.6338 41.0511C42.6387 40.3741 42.6527 39.747 42.665 39.6575L42.6872 39.4949L43.7125 39.4902L44.7379 39.4855L43.835 39.3932C43.3385 39.3423 42.876 39.292 42.8073 39.2813L42.6825 39.2618V38.2938C42.6825 37.7613 42.6937 37.1422 42.7075 36.918L42.7326 36.5102L43.7928 36.5058C44.9868 36.5009 44.9668 36.4818 43.6333 36.3544L42.7209 36.2672V35.7444C42.7209 35.4568 42.7323 34.8313 42.7463 34.3544L42.7716 33.4872L43.7932 33.4842C44.355 33.4826 44.7974 33.4742 44.7763 33.4657C44.7551 33.4572 44.2988 33.4072 43.7621 33.3547C43.2255 33.3021 42.7796 33.2524 42.7714 33.2442C42.7632 33.236 42.7685 32.6071 42.7832 31.8468L42.81 30.4643L43.7739 30.4595C44.8317 30.4543 44.8049 30.438 43.5536 30.3254L42.7867 30.2565L42.8113 29.7768C42.8248 29.513 42.8359 28.8369 42.836 28.2742L42.8362 27.2513L43.8446 27.2411L44.8531 27.2309L43.9695 27.1435C43.4835 27.0954 43.034 27.0482 42.9706 27.0384L42.8554 27.0206L42.8643 25.8821C42.8692 25.256 42.8839 24.5327 42.897 24.2749L42.9207 23.8061H43.8645C44.3836 23.8061 44.8011 23.7991 44.7923 23.7905C44.7835 23.7819 44.3571 23.7355 43.8446 23.6873L42.913 23.5998L42.9131 23.0046C42.9131 22.6773 42.9245 21.8025 42.9385 21.0606L42.9639 19.7117H43.9181H44.8723L44.877 37.706C44.8796 47.6029 44.8949 55.6055 44.911 55.4898C44.9271 55.374 44.9515 54.8747 44.9652 54.3801C44.9789 53.8855 45.0243 52.5166 45.066 51.338C45.1077 50.1594 45.202 47.4129 45.2754 45.2347C45.3489 43.0564 45.4267 40.8093 45.4485 40.2411C45.4703 39.6728 45.531 37.9165 45.5836 36.338C45.6361 34.7596 45.705 32.7535 45.7367 31.8801C45.7684 31.0067 45.8376 28.992 45.8906 27.4031C45.9436 25.8141 46.0209 23.5756 46.0625 22.4286C46.1042 21.2816 46.1499 19.9083 46.1644 19.3769L46.1906 18.4107H41.2286H36.2667V15.4069V12.4031H27.7379H19.209V25.4133ZM34.2944 20.9807C34.2509 23.1513 34.2572 23.5382 34.3362 23.539C34.3732 23.5394 34.6896 23.5108 35.0393 23.4755L35.6753 23.4111L35.6633 22.298C35.6567 21.6858 35.6409 20.8535 35.6282 20.4483L35.6051 19.7117H34.9625H34.3198L34.2944 20.9807ZM41.8886 21.0606C41.9026 21.8025 41.9141 22.655 41.9141 22.9552L41.9141 23.5009L41.7701 23.4816C41.6908 23.4709 41.2457 23.4276 40.7808 23.3852C40.3159 23.3428 39.8794 23.2989 39.8107 23.2876L39.6859 23.2669V22.2416C39.6859 21.6778 39.6972 20.8778 39.7112 20.4641L39.7365 19.7117H40.7998H41.8633L41.8886 21.0606ZM96.2888 20.4641C96.3028 20.8778 96.3141 21.6778 96.3141 22.2416V23.2669L96.1893 23.2875C96.1206 23.2988 95.6927 23.3425 95.2384 23.3845C94.7841 23.4266 94.339 23.4708 94.2492 23.4829L94.0859 23.5047L94.086 22.9571C94.086 22.6559 94.0974 21.8025 94.1114 21.0606L94.1367 19.7117H95.2002H96.2635L96.2888 20.4641ZM100.372 20.4483C100.359 20.8535 100.343 21.6858 100.337 22.298L100.325 23.4111L100.961 23.4755C101.31 23.5108 101.627 23.5394 101.664 23.539C101.743 23.5382 101.749 23.1513 101.706 20.9807L101.68 19.7117H101.038H100.395L100.372 20.4483ZM34.2524 24.007C34.2403 24.1175 34.2261 24.8342 34.2208 25.5997L34.2113 26.9914L34.461 26.9691L34.6056 26.9562C34.7734 26.9412 35.0162 26.9195 35.2257 26.9008L35.7406 26.8548L35.7155 26.0513C35.7017 25.6094 35.6904 24.9235 35.6904 24.527V23.8061H34.9824H34.2745L34.2524 24.007ZM41.9608 25.3654C41.9708 26.2231 41.9754 26.9296 41.971 26.9355C41.9628 26.9464 39.6349 26.7145 39.6217 26.7014C39.6177 26.6974 39.6246 26.0444 39.637 25.2501L39.6595 23.8061H40.8011H41.9427L41.9608 25.3654ZM96.363 25.2501C96.3754 26.0444 96.3823 26.6974 96.3783 26.7014C96.3651 26.7145 94.0372 26.9464 94.029 26.9355C94.0246 26.9296 94.0292 26.2231 94.0392 25.3654L94.0573 23.8061H95.1989H96.3405L96.363 25.2501ZM100.31 24.527C100.31 24.9235 100.298 25.6094 100.284 26.0513L100.259 26.8548L100.774 26.9008C101.058 26.9261 101.402 26.9569 101.539 26.9691L101.789 26.9914L101.779 25.5997C101.774 24.8342 101.76 24.1175 101.748 24.007L101.726 23.8061H101.018H100.31V24.527ZM74.4158 25.6688C74.194 25.7642 73.779 25.9461 73.4938 26.073C73.2085 26.1998 72.8368 26.3628 72.6678 26.4352C72.3091 26.5887 71.1323 27.1928 70.4972 27.5493C68.8986 28.4469 67.5843 29.3675 66.1367 30.6035C64.9607 31.6076 62.8646 33.8714 61.2285 35.9044L61.0847 36.083L61.0851 38.009C61.0854 40.4885 61.1231 40.6992 61.6518 41.1813C61.6668 41.195 61.6813 41.2084 61.6955 41.2214C61.7757 41.295 61.8431 41.3568 61.9174 41.4087C62.3075 41.6808 62.89 41.6791 66.5282 41.6686L66.9051 41.6675H66.9058C70.939 41.6562 70.939 41.6562 71.1592 41.5727C71.6021 41.4049 71.9415 41.0905 72.1601 40.6455L72.2836 40.3941L72.2946 38.0133L72.3056 35.6325L75.0051 35.6218L77.7046 35.611L77.9976 35.4667C78.4634 35.2374 78.7513 34.9151 78.9102 34.4454C78.9883 34.2144 78.9893 34.1609 78.9789 30.4915L78.9684 26.7717L78.8498 26.523C78.608 26.0158 78.1086 25.6274 77.5705 25.528C77.4566 25.507 76.7911 25.491 76.0914 25.4925L74.8192 25.4952L74.4158 25.6688ZM34.1809 28.7315C34.168 29.5463 34.1616 30.2171 34.1667 30.2222C34.1718 30.2273 34.5124 30.1978 34.9236 30.1568C35.3348 30.1157 35.6928 30.082 35.7192 30.0819C35.7753 30.0816 35.7821 29.494 35.7419 28.1172L35.7166 27.25H34.9605H34.2043L34.1809 28.7315ZM41.991 27.8144C41.9911 28.1248 42.0026 28.7819 42.0165 29.2745L42.042 30.1702L41.7379 30.1435C40.777 30.0591 39.6033 29.9356 39.5846 29.9169C39.5726 29.905 39.5756 29.3001 39.5912 28.5726L39.6195 27.25H40.8052H41.991L41.991 27.8144ZM96.4088 28.5726C96.4244 29.3001 96.427 29.9054 96.4146 29.9178C96.3843 29.948 94.0108 30.1727 93.9858 30.1478C93.975 30.137 93.9785 29.4806 93.9936 28.6891L94.021 27.25H95.2007H96.3805L96.4088 28.5726ZM100.258 28.1172C100.213 29.6634 100.222 30.0814 100.3 30.0829C100.337 30.0835 100.695 30.1168 101.097 30.1569C101.498 30.1969 101.83 30.2259 101.834 30.2213C101.839 30.2167 101.832 29.5463 101.819 28.7315L101.796 27.25H101.04H100.283L100.258 28.1172ZM34.1355 31.8441C34.1199 32.6031 34.1133 33.2283 34.1208 33.2336C34.1283 33.2389 34.5062 33.2077 34.9605 33.1644L35.7864 33.0855L35.7985 32.3202C35.8052 31.8992 35.7991 31.3095 35.7849 31.0096L35.7592 30.4643H34.9616H34.1639L34.1355 31.8441ZM42.0424 31.4114C42.0842 32.981 42.0795 33.1812 42.0006 33.1809C41.9636 33.1807 41.5184 33.1392 41.0113 33.0885C40.5042 33.0378 39.9639 32.9845 39.8107 32.97L39.5322 32.9438L39.5323 32.3067C39.5324 31.9563 39.5438 31.3985 39.5576 31.067L39.5826 30.4643H40.7998H42.0171L42.0424 31.4114ZM96.4425 31.067C96.4562 31.3985 96.4676 31.9563 96.4677 32.3067L96.4678 32.9438L96.1893 32.9701C96.0361 32.9845 95.4898 33.0379 94.9753 33.0887C94.4609 33.1396 94.0157 33.1811 93.9861 33.1811C93.9228 33.1811 93.9175 32.8491 93.9576 31.3889L93.9829 30.4643H95.2001H96.4174L96.4425 31.067ZM100.215 31.0096C100.201 31.3095 100.195 31.8992 100.201 32.3202L100.214 33.0855L101.04 33.1644C101.494 33.2077 101.872 33.2389 101.879 33.2336C101.887 33.2283 101.88 32.6031 101.865 31.8441L101.836 30.4643H101.038H100.241L100.215 31.0096ZM34.1022 34.1473C34.0884 34.5103 34.077 35.1303 34.077 35.5249L34.0768 36.2423L34.1825 36.2422C34.4164 36.2418 35.8212 36.0885 35.8415 36.0612C35.8535 36.0451 35.8585 35.4594 35.8527 34.7596L35.842 33.4872H34.9847H34.1274L34.1022 34.1473ZM42.081 34.1247C42.0948 34.4754 42.1062 35.089 42.1062 35.4884V36.2145L41.9429 36.1929C41.8531 36.181 41.2869 36.1251 40.6847 36.0687C40.0825 36.0124 39.5682 35.96 39.5418 35.9524C39.4879 35.937 39.4734 34.6344 39.5188 33.895L39.5439 33.4872H40.7998H42.0557L42.081 34.1247ZM96.4812 33.895C96.5266 34.6344 96.5121 35.937 96.4582 35.9524C96.4318 35.96 95.9175 36.0124 95.3153 36.0687C94.7131 36.1251 94.1469 36.181 94.0571 36.1929L93.8938 36.2145V35.4884C93.8938 35.089 93.9052 34.4754 93.919 34.1247L93.9443 33.4872H95.2002H96.4561L96.4812 33.895ZM100.147 34.7596C100.141 35.4594 100.147 36.0451 100.158 36.0612C100.179 36.0885 101.584 36.2418 101.818 36.2422L101.923 36.2423V35.5023C101.923 35.0953 101.912 34.4754 101.898 34.1247L101.873 33.4872H101.015H100.158L100.147 34.7596ZM34.0631 36.7072C34.0495 36.8365 34.0384 37.4665 34.0384 38.1071V39.2719L34.3362 39.2444C34.4999 39.2293 34.9192 39.1891 35.2678 39.155L35.9017 39.0931L35.9005 38.8348C35.8999 38.6927 35.8955 38.103 35.8909 37.5242L35.8825 36.4719H34.9851H34.0878L34.0631 36.7072ZM100.109 37.5242C100.104 38.103 100.1 38.6927 100.1 38.8348L100.098 39.0931L100.732 39.155C101.081 39.1891 101.5 39.2293 101.664 39.2444L101.962 39.2719V38.1071C101.962 37.4665 101.95 36.8365 101.937 36.7072L101.912 36.4719H101.015H100.118L100.109 37.5242ZM42.1196 36.918C42.1334 37.1422 42.1446 37.7546 42.1446 38.2787V39.2318L41.9814 39.2096C41.8169 39.1872 39.5445 38.9592 39.4865 38.9592C39.4509 38.9592 39.4443 36.7273 39.4796 36.5963C39.4824 36.5858 39.4849 36.5767 39.4893 36.5686C39.5218 36.5102 39.6601 36.5102 40.7987 36.5102H42.0945L42.1196 36.918ZM96.5204 36.5963C96.5566 36.7309 96.5486 38.9592 96.5119 38.9592C96.4513 38.9592 94.1835 39.1867 94.0186 39.2093L93.8554 39.2318L93.8556 38.3014C93.8556 37.7898 93.8669 37.1775 93.8806 36.9407L93.9055 36.5102H95.2014C96.4973 36.5102 96.4973 36.5102 96.5204 36.5963ZM33.9926 40.882C33.9861 41.645 33.9825 42.2737 33.9846 42.2793C33.9904 42.2948 35.9263 42.1044 35.9443 42.0865C35.9529 42.0778 35.9485 41.4912 35.9343 40.7828L35.9085 39.4949H34.9565H34.0044L33.9926 40.882ZM42.1617 39.6575C42.1736 39.747 42.1876 40.3655 42.1928 41.0322L42.2023 42.2442L42.0294 42.2244C41.9343 42.2136 41.3033 42.1501 40.6271 42.0834L39.3977 41.962L39.3989 41.7042C39.3996 41.5624 39.4039 41.0073 39.4085 40.4707L39.417 39.4949H40.7784H42.1399L42.1617 39.6575ZM96.5915 40.4707C96.5961 41.0073 96.6004 41.5624 96.6011 41.7042L96.6023 41.962L95.3729 42.0834C94.6967 42.1501 94.0657 42.2136 93.9706 42.2244L93.7977 42.2442L93.8072 41.0322C93.8124 40.3655 93.8264 39.747 93.8383 39.6575L93.8601 39.4949H95.2216H96.5831L96.5915 40.4707ZM100.066 40.7828C100.052 41.4912 100.047 42.0778 100.056 42.0865C100.074 42.1044 102.01 42.2948 102.015 42.2793C102.018 42.2737 102.014 41.645 102.007 40.882L101.996 39.4949H101.044H100.092L100.066 40.7828ZM6.03164 40.8916V41.8673H5.39774H4.76384V40.8916V39.9158H5.39774H6.03164V40.8916ZM9.05772 40.9011L9.06797 41.8673H8.41421H7.76045V40.8907V39.914L8.40396 39.9245L9.04746 39.9349L9.05772 40.9011ZM12.0633 40.8916V41.8673H11.4294H10.7955V40.8916V39.9158H11.4294H12.0633V40.8916ZM15.0983 40.8916V41.8673H14.4644H13.8305V40.8916V39.9158H14.4644H15.0983V40.8916ZM18.1244 40.9011L18.1346 41.8673H17.4809H16.8271V40.9171C16.8271 40.3944 16.8391 39.955 16.8537 39.9404C16.8682 39.9259 17.1578 39.9187 17.4972 39.9245L18.1141 39.9349L18.1244 40.9011ZM119.164 40.9011L119.174 41.8673H118.52H117.867V40.9171C117.867 40.3944 117.879 39.955 117.893 39.9404C117.908 39.9259 118.197 39.9187 118.537 39.9245L119.154 39.9349L119.164 40.9011ZM122.169 40.8916V41.8673H121.536H120.902V40.8916V39.9158H121.536H122.169V40.8916ZM125.205 40.8916V41.8673H124.571H123.937V40.8916V39.9158H124.571H125.205V40.8916ZM128.24 40.8916V41.8673H127.586H126.933V40.9171C126.933 40.3944 126.945 39.9553 126.959 39.9413C126.973 39.9273 127.267 39.9158 127.612 39.9158H128.24V40.8916ZM131.236 40.8916V41.8673H130.602H129.968V40.8916V39.9158H130.602H131.236V40.8916ZM33.9528 43.905C33.9422 44.6679 33.9356 45.295 33.938 45.2985C33.946 45.31 35.978 45.1118 35.9929 45.0981C36.0008 45.0909 35.9945 44.5073 35.9788 43.8014L35.9504 42.5179H34.9613H33.9721L33.9528 43.905ZM42.2316 43.8666C42.2437 44.6084 42.2454 45.2237 42.2352 45.2338C42.2156 45.2533 39.3759 44.9769 39.352 44.9532C39.3442 44.9454 39.3498 44.3943 39.3644 43.7285L39.3908 42.5179H40.8002H42.2096L42.2316 43.8666ZM96.6356 43.7285C96.6502 44.3943 96.6554 44.9458 96.6472 44.9539C96.623 44.9781 93.7846 45.2534 93.7646 45.2336C93.7546 45.2236 93.7563 44.6084 93.7684 43.8666L93.7904 42.5179H95.1998H96.6092L96.6356 43.7285ZM100.021 43.8014C100.006 44.5073 99.9992 45.0907 100.007 45.0979C100.022 45.1113 102.054 45.3093 102.063 45.2982C102.065 45.2948 102.058 44.6679 102.047 43.905L102.028 42.5179H101.039H100.05L100.021 43.8014ZM6.03164 44.5459V45.5026H5.39774H4.76384V44.5459V43.5893H5.39774H6.03164V44.5459ZM9.06667 44.5459V45.5026H8.41356H7.76045V44.5459V43.5893H8.41356H9.06667V44.5459ZM12.0633 44.5459V45.5026H11.4294H10.7955V44.5459V43.5893H11.4294H12.0633V44.5459ZM15.0983 44.5459V45.5026H14.4644H13.8305V44.5459V43.5893H14.4644H15.0983V44.5459ZM18.1333 44.5459V45.5026H17.4802H16.8271V44.5459V43.5893H17.4802H18.1333V44.5459ZM119.173 44.5459V45.5026H118.52H117.867V44.5459V43.5893H118.52H119.173V44.5459ZM122.169 44.5459V45.5026H121.536H120.902V44.5459V43.5893H121.536H122.169V44.5459ZM125.205 44.5459V45.5026H124.571H123.937V44.5459V43.5893H124.571H125.205V44.5459ZM128.24 44.5459V45.5026H127.586H126.933V44.5459V43.5893H127.586H128.24V44.5459ZM131.236 44.5459V45.5026H130.602H129.968V44.5459V43.5893H130.602H131.236V44.5459ZM33.9084 47.1144C33.8936 48.001 33.8881 48.7329 33.8961 48.7409C33.9042 48.7489 34.3847 48.7081 34.9639 48.6501L36.017 48.5446L36.0294 48.0663C36.0363 47.8033 36.03 47.1188 36.0155 46.5453L35.989 45.5026H34.9622H33.9354L33.9084 47.1144ZM99.9846 46.5453C99.97 47.1188 99.9637 47.8033 99.9706 48.0663L99.9831 48.5446L101.036 48.6501C101.615 48.7081 102.096 48.7488 102.104 48.7406C102.113 48.7323 102.107 48.0004 102.092 47.1141L102.065 45.5026H101.038H100.011L99.9846 46.5453ZM42.2729 46.695C42.3159 48.6508 42.3142 48.7089 42.2119 48.6917C42.1412 48.6798 39.3694 48.4107 39.3174 48.4107C39.2936 48.4107 39.2988 47.307 39.3271 46.3731L39.3524 45.5408H40.7999H42.2475L42.2729 46.695ZM96.6729 46.3731C96.7012 47.307 96.7065 48.4107 96.6826 48.4107C96.6306 48.4107 93.8588 48.6798 93.7881 48.6917C93.6858 48.7089 93.6841 48.6508 93.7271 46.695L93.7525 45.5408H95.2001H96.6476L96.6729 46.3731ZM6.03164 48.2194V49.176H5.39774H4.76384V48.2194V47.2628H5.39774H6.03164V48.2194ZM9.06667 48.2194V49.176H8.41356H7.76045V48.2194V47.2628H8.41356H9.06667V48.2194ZM12.0633 48.2194V49.176H11.4294H10.7955V48.2194V47.2628H11.4294H12.0633V48.2194ZM15.0983 48.2194V49.176H14.4644H13.8305V48.2194V47.2628H14.4644H15.0983V48.2194ZM18.1333 48.2194V49.176H17.4802H16.8271V48.2194V47.2628H17.4802H18.1333V48.2194ZM119.173 48.2194V49.176H118.52H117.867V48.2194V47.2628H118.52H119.173V48.2194ZM122.169 48.2194V49.176H121.536H120.902V48.2194V47.2628H121.536H122.169V48.2194ZM125.205 48.2194V49.176H124.571H123.937V48.2194V47.2628H124.571H125.205V48.2194ZM128.24 48.2194V49.176H127.586H126.933V48.2194V47.2628H127.586H128.24V48.2194ZM131.236 48.2194V49.176H130.602H129.968V48.2194V47.2628H130.602H131.236V48.2194ZM33.8718 49.7787C33.8579 50.2365 33.8465 50.9166 33.8464 51.2902L33.8463 51.9694L33.9904 51.9671C34.0697 51.9658 34.572 51.9185 35.1067 51.8619L36.0788 51.7589L36.0757 50.4967C36.074 49.8025 36.0622 49.1697 36.0494 49.0905L36.0263 48.9464H34.9616H33.897L33.8718 49.7787ZM99.9506 49.0905C99.9378 49.1697 99.926 49.8025 99.9243 50.4967L99.9211 51.7589L100.893 51.8614C101.428 51.9177 101.93 51.9651 102.01 51.9666L102.154 51.9694L102.154 51.2902C102.154 50.9166 102.142 50.2365 102.128 49.7787L102.103 48.9464H101.038H99.9737L99.9506 49.0905ZM42.3116 49.5073C42.3254 49.7948 42.3367 50.4583 42.3367 50.9819V51.9338L42.1542 51.9123C42.0539 51.9005 41.4358 51.8396 40.7808 51.777C40.1258 51.7144 39.5164 51.6526 39.4266 51.6397L39.2633 51.6163L39.2635 50.6162C39.2636 50.0661 39.2748 49.474 39.2884 49.3004L39.3131 48.9847H40.7997H42.2864L42.3116 49.5073ZM96.7116 49.3004C96.7252 49.474 96.7364 50.0661 96.7365 50.6162L96.7367 51.6163L96.5734 51.6392C96.4836 51.6518 95.8742 51.7137 95.2192 51.7767C94.5642 51.8397 93.9462 51.9008 93.8458 51.9125L93.6633 51.9338V50.9819C93.6633 50.4583 93.6746 49.7948 93.6884 49.5073L93.7136 48.9847H95.2003H96.6869L96.7116 49.3004ZM6.03164 51.8546V52.8112H5.39774H4.76384V51.8546V50.898H5.39774H6.03164V51.8546ZM9.06667 51.8546V52.8112H8.41356H7.76045V51.8546V50.898H8.41356H9.06667V51.8546ZM12.0633 51.8546V52.8112H11.4294H10.7955V51.8546V50.898H11.4294H12.0633V51.8546ZM15.0983 51.8546V52.8112H14.4644H13.8305V51.8546V50.898H14.4644H15.0983V51.8546ZM18.1333 51.8546V52.8112H17.4802H16.8271V51.8546V50.898H17.4802H18.1333V51.8546ZM119.173 51.8546V52.8112H118.52H117.867V51.8546V50.898H118.52H119.173V51.8546ZM122.169 51.8546V52.8112H121.536H120.902V51.8546V50.898H121.536H122.169V51.8546ZM125.205 51.8546V52.8112H124.571H123.937V51.8546V50.898H124.571H125.205V51.8546ZM128.24 51.8546V52.8112H127.586H126.933V51.8546V50.898H127.586H128.24V51.8546ZM131.236 51.8546V52.8112H130.602H129.968V51.8546V50.898H130.602H131.236V51.8546ZM6.03164 55.3176V56.0638H5.39774H4.76384V55.3176V54.5714H5.39774H6.03164V55.3176ZM9.06667 55.3176V56.0638H8.41356H7.76045V55.3176V54.5714H8.41356H9.06667V55.3176ZM12.0633 55.3176V56.0638H11.4294H10.7955V55.3176V54.5714H11.4294H12.0633V55.3176ZM15.0983 55.3176V56.0638H14.4644H13.8305V55.3176V54.5714H14.4644H15.0983V55.3176ZM18.1333 55.3176V56.0638H17.4802H16.8271V55.3176V54.5714H17.4802H18.1333V55.3176ZM119.173 55.3176V56.0638H118.52H117.867V55.3176V54.5714H118.52H119.173V55.3176ZM122.169 55.3176V56.0638H121.536H120.902V55.3176V54.5714H121.536H122.169V55.3176ZM125.205 55.3176V56.0638H124.571H123.937V55.3176V54.5714H124.571H125.205V55.3176ZM128.24 55.3176V56.0638H127.586H126.933V55.3176V54.5714H127.586H128.24V55.3176ZM131.236 55.3176V56.0638H130.602H129.968V55.3176V54.5714H130.602H131.236V55.3176Z" fill="white"/>
<path fill-rule="evenodd" clip-rule="evenodd" d="M46.6853 1.87054C46.7225 2.34931 46.8135 3.55899 46.8875 4.55867C46.9616 5.55835 47.0919 7.30612 47.1771 8.4426C47.2623 9.57908 47.3919 11.3268 47.465 12.3265C47.5381 13.3262 47.607 14.2302 47.6181 14.3355C47.6291 14.4407 47.673 15.0175 47.7156 15.6173C47.7582 16.2172 47.8362 17.2675 47.8888 17.9515C47.9415 18.6355 48.0359 19.8925 48.0987 20.7449C48.1615 21.5973 48.2827 23.2245 48.3679 24.361C48.5145 26.3158 48.6633 28.3105 48.8862 31.3061C48.9402 32.0322 49.0355 33.2978 49.098 34.1186C49.1605 34.9394 49.2384 35.9812 49.2712 36.4337C49.333 37.2884 49.4768 39.2089 49.6745 41.8195C49.7379 42.6561 49.8412 44.0379 49.9042 44.8903C49.9671 45.7427 50.0875 47.3613 50.1717 48.4872C50.2558 49.6132 50.3689 51.1285 50.423 51.8546C50.4771 52.5807 50.5643 53.7295 50.6166 54.4075C50.669 55.0854 50.7119 55.6838 50.7119 55.7372C50.7119 55.7631 50.7119 55.7821 50.7203 55.796C50.7434 55.8342 50.83 55.8342 51.1537 55.8342H51.5955V53.3661V50.898H53.1646H54.7336L54.7589 51.5929C54.7728 51.9751 54.7865 52.7542 54.7894 53.3244C54.7923 53.8945 54.8064 54.6365 54.8209 54.9732C54.8467 55.5753 54.8473 55.5689 54.8541 54.5906C54.858 54.0434 54.8725 52.9887 54.8865 52.2468L54.9119 50.898H56.7457H58.5795L58.6021 51.4815C58.6145 51.8025 58.6337 52.53 58.6448 53.0982C58.6688 54.331 58.7091 55.6114 58.7233 55.5963C58.729 55.5903 58.7559 54.5308 58.7832 53.2417L58.8329 50.898H61.3167H63.8005L63.8255 51.4432C63.8393 51.7432 63.853 52.4362 63.856 52.9834C63.859 53.5306 63.8731 54.3313 63.8875 54.7628L63.9135 55.5472L63.9206 54.549C63.9245 54 63.9391 52.9539 63.9531 52.2243L63.9785 50.898H65.9447H67.9108L67.9361 51.9598C67.9501 52.5439 67.9615 53.4737 67.9615 54.0261C67.9615 54.6702 67.9754 55.0306 68 55.0306C68.0246 55.0306 68.0385 54.6702 68.0385 54.0261C68.0385 53.4737 68.0499 52.5439 68.0639 51.9598L68.0892 50.898H70.0553H72.0215L72.0469 52.2243C72.0609 52.9539 72.0755 54 72.0794 54.549L72.0865 55.5472L72.1125 54.7628C72.1269 54.3313 72.141 53.5306 72.144 52.9834C72.147 52.4362 72.1607 51.7432 72.1745 51.4432L72.1995 50.898H74.6833H77.1671L77.2168 53.2417C77.2441 54.5308 77.271 55.5903 77.2767 55.5963C77.2909 55.6114 77.3312 54.331 77.3552 53.0982C77.3663 52.53 77.3855 51.8025 77.3979 51.4815L77.4205 50.898H79.2543H81.0881L81.1135 52.2243C81.1275 52.9539 81.1421 54.0086 81.1459 54.5681C81.1527 55.556 81.1536 55.5677 81.1791 54.9732C81.1936 54.6365 81.2078 53.8788 81.2107 53.2895C81.2137 52.7003 81.2274 51.9211 81.2412 51.558L81.2663 50.898H82.8354H84.4045V53.3661V55.8342H84.8463C85.1651 55.8342 85.2538 55.8342 85.2786 55.7945C85.2881 55.7792 85.2881 55.758 85.2881 55.7286C85.2881 55.6705 85.3138 55.3046 85.3452 54.9154C85.3766 54.5263 85.4628 53.39 85.5369 52.3903C85.6109 51.3906 85.7413 49.6429 85.8265 48.5064C85.9117 47.3699 86.0329 45.7427 86.0958 44.8903C86.1587 44.0379 86.253 42.7809 86.3055 42.0969C86.3579 41.4129 86.4451 40.2592 86.4991 39.5332C86.6172 37.9458 86.808 35.3849 87.0151 32.6071C87.099 31.4812 87.2119 29.9659 87.2659 29.2398C87.3199 28.5137 87.4071 27.36 87.4595 26.676C87.5119 25.992 87.6063 24.735 87.6692 23.8827C87.7321 23.0303 87.8526 21.4117 87.937 20.2857C88.0214 19.1598 88.1343 17.6445 88.1878 16.9184C88.2414 16.1923 88.3198 15.1505 88.362 14.6033C88.4043 14.0561 88.4904 12.911 88.5534 12.0587C88.6165 11.2063 88.7378 9.57908 88.8231 8.4426C88.9083 7.30612 89.0294 5.67889 89.0922 4.82653C89.2186 3.11068 89.3542 1.3163 89.3719 1.12436L89.3834 1H68.0006H46.6177L46.6853 1.87054ZM73.8396 7.00765V4.8074V2.60714H68H62.1605V4.8074V7.00765H60.9887H59.817V8.30867V9.60969H68H76.1831V8.30867V7.00765H75.0113H73.8396ZM54.227 13.7615C54.216 12.8565 54.1966 11.6985 54.1839 11.1881L54.1609 10.2602H52.8782H51.5955V13.8954V17.5306H52.9453H54.2951L54.271 16.4688C54.2578 15.8847 54.238 14.6665 54.227 13.7615ZM57.7235 14.2015C57.6915 12.6757 57.6549 11.1647 57.6422 10.8438L57.619 10.2602H56.5535H55.488L55.4629 11.8004C55.4491 12.6475 55.4263 14.2833 55.4122 15.4356L55.3865 17.5306H56.594H57.8015L57.7916 17.2532C57.7862 17.1006 57.7556 15.7274 57.7235 14.2015ZM63.2932 13.2832C63.2821 12.2203 63.2629 11.1054 63.2506 10.8055L63.2282 10.2602H61.5214C60.1891 10.2602 59.8114 10.2707 59.8002 10.308C59.7923 10.3344 59.7581 11.742 59.7242 13.4362C59.6903 15.1304 59.652 16.7447 59.6391 17.0236L59.6156 17.5306H61.489H63.3624L63.3379 16.3731C63.3244 15.7365 63.3043 14.346 63.2932 13.2832ZM67.4417 16.6983C67.4233 15.9574 67.3467 10.9028 67.3469 10.442L67.3469 10.2602H65.9508H64.5546L64.5296 11.7812C64.5158 12.6178 64.493 14.2537 64.4789 15.4165L64.4532 17.5306H65.9578H67.4623L67.4417 16.6983ZM71.5212 15.4356C71.5071 14.2833 71.4843 12.6475 71.4704 11.8004L71.4453 10.2602H70.0492H68.6531L68.6531 10.442C68.6533 10.9028 68.5767 15.9574 68.5583 16.6983L68.5377 17.5306H70.0422H71.5468L71.5212 15.4356ZM76.3615 17.0427C76.3486 16.7744 76.3083 15.1386 76.272 13.4075L76.2061 10.2602H74.489H72.7718L72.7494 10.8055C72.7371 11.1054 72.7179 12.2203 72.7068 13.2832C72.6957 14.346 72.6756 15.7365 72.6621 16.3731L72.6376 17.5306H74.5113H76.385L76.3615 17.0427ZM80.5878 15.4356C80.5737 14.2833 80.5509 12.6475 80.5371 11.8004L80.512 10.2602H79.4465H78.381L78.3578 10.8438C78.3451 11.1647 78.3085 12.6757 78.2765 14.2015C78.2445 15.7274 78.2138 17.1006 78.2084 17.2532L78.1985 17.5306H79.406H80.6135L80.5878 15.4356ZM84.4045 17.5306V13.8954V10.2602H83.1218H81.8392L81.8161 11.1881C81.8034 11.6985 81.784 12.8565 81.773 13.7615C81.762 14.6665 81.7422 15.8847 81.729 16.4688L81.7049 17.5306H83.0547H84.4045ZM54.3479 22.1511C54.3339 20.9042 54.3114 19.4577 54.298 18.9369L54.2734 17.9898H52.9344H51.5955V21.2041V24.4184H52.9843H54.3732L54.3479 22.1511ZM57.8954 21.3571C57.8749 20.4206 57.8469 19.2798 57.8331 18.8221L57.8081 17.9898H56.5901H55.3721L55.3468 19.8744C55.3329 20.9109 55.3104 22.3573 55.2968 23.0886L55.272 24.4184H56.6249H57.9778L57.9552 23.7392C57.9428 23.3656 57.9159 22.2937 57.8954 21.3571ZM63.3514 18.602V18.2959V17.9898H61.4922H59.633L59.61 18.6116C59.5973 18.9536 59.5698 19.948 59.5488 20.8214C59.5279 21.6948 59.4993 22.8609 59.4853 23.4127L59.4599 24.416L59.9554 24.4267L60.4509 24.4375V24.648V24.8584L51.5955 24.8776V27.8814V30.8852H52.6712H53.7469V31.1148V31.3444H52.6712H51.5955V34.3482V37.352H53.0746H54.5537V36.5105V35.6689L54.7317 35.8042C54.8296 35.8786 54.9602 35.9656 55.022 35.9974L55.1344 36.0553L55.1073 36.7037C55.0803 37.3514 55.0803 37.352 55.1634 37.352C55.1919 37.352 55.211 37.3507 55.2215 37.3595C55.2423 37.3768 55.2303 37.4329 55.1919 37.6138L55.1845 37.6482C55.1723 37.7059 55.145 37.7637 55.1238 37.7767C55.089 37.7981 55.0207 41.326 55.0162 43.331L55.0147 44.0102H56.7243H58.4339H59.0148H61.3733H63.7318L63.7084 43.1492L63.6851 42.2883H63.8832H64.0814V43.1496V44.0109L65.9502 44.001L67.819 43.9911L67.8109 43.1397L67.803 42.2883H68H68.197L68.1891 43.1397L68.181 43.9911L70.0536 44.001L71.9261 44.0109L71.9138 42.9612L71.9014 41.9114L72.1076 41.7478L72.3139 41.5842L72.2948 42.7972L72.2758 44.0102H74.6389H77.002L76.9778 43.1588C76.9645 42.6905 76.9347 41.3431 76.9116 40.1645C76.8885 38.986 76.8612 37.9657 76.8511 37.8973L76.8327 37.773H74.8943H72.9559V37.5625V37.352H74.896H76.8362V36.8163V36.2806L77.0955 36.2803C77.2381 36.2801 77.4478 36.2688 77.5615 36.2552L77.7681 36.2305L77.7399 36.7913L77.7118 37.352H79.3154H80.9191L80.8951 36.6728C80.8819 36.2992 80.8598 34.9476 80.8459 33.669L80.8208 31.3444H80.2307H79.6407V31.1148V30.8852H80.2169H80.7932V30.3454C80.7932 29.894 80.8022 29.809 80.848 29.8265C80.919 29.8536 80.9645 29.7793 81.2302 29.2015C81.3512 28.9385 81.4758 28.6716 81.507 28.6084C81.5579 28.5055 81.5617 28.6172 81.544 29.6894L81.5242 30.8852H82.9644H84.4045V27.8814V24.8776H83.3723H82.34L82.3162 24.7341C82.2961 24.6127 82.2704 24.5376 82.2963 24.4913C82.3447 24.405 82.5722 24.4184 83.348 24.4184H84.4045V21.2041V17.9898H83.066H81.7275L81.7023 18.8221C81.6884 19.2798 81.6747 20.1279 81.6719 20.7066C81.6691 21.2854 81.6561 21.8861 81.643 22.0415L81.6192 22.3241L81.4655 22.0996C81.381 21.976 81.1691 21.7323 80.9946 21.5578L80.6775 21.2407L80.6522 19.6153L80.627 17.9898H79.41H78.1929L78.1678 18.7073C78.1539 19.1019 78.1425 19.6032 78.1425 19.8212L78.1424 20.2177L78.0007 20.1912C77.7983 20.1534 77.0201 20.0964 76.6921 20.0953L76.4136 20.0944V19.5073C76.4136 19.1844 76.4023 18.7108 76.3884 18.455L76.3634 17.9898H74.506H72.6486L72.6443 18.4968C72.6419 18.7757 72.629 19.162 72.6155 19.3553L72.591 19.7068L72.3922 19.4645C72.2677 19.3128 72.0775 19.1459 71.8832 19.0178L71.5729 18.8134V18.4016V17.9898H70.0554H68.5379V18.2959V18.602H68H67.4622V18.2959V17.9898H65.9446H64.4271V18.2959V18.602H63.8893H63.3514ZM84.4045 37.352V34.3482V31.3444H82.9696H81.5347L81.51 32.6167C81.4964 33.3165 81.4739 34.6682 81.46 35.6205L81.4348 37.352H82.9196H84.4045ZM54.6101 40.5281C54.5984 39.1496 54.5801 37.9657 54.5695 37.8973L54.5502 37.773H53.0728H51.5955V40.8916V44.0102H53.1371H54.6788L54.6551 43.5223C54.642 43.254 54.6218 41.9066 54.6101 40.5281ZM80.9718 42.1639C80.9578 41.1485 80.9352 39.745 80.9215 39.0453L80.8966 37.773H79.3124H77.7281L77.7045 38.4713C77.6915 38.8554 77.664 39.9876 77.6432 40.9872C77.6225 41.9869 77.595 43.0761 77.5821 43.4075L77.5586 44.0102H79.2779H80.9972L80.9718 42.1639ZM84.4045 44.0102V40.8916V37.773H82.9287H81.4529L81.4312 38.0504C81.4193 38.2029 81.4003 39.3782 81.389 40.662C81.3778 41.9458 81.358 43.2243 81.3452 43.5032L81.3218 44.0102H82.8632H84.4045ZM54.7319 49.1473C54.7186 48.416 54.6967 47.0643 54.6832 46.1435L54.6586 44.4694H53.1271H51.5955V47.4732V50.477H53.1757H54.756L54.7319 49.1473ZM58.5101 47.2245C58.4887 46.1406 58.4611 45.0773 58.4488 44.8616L58.4265 44.4694H56.7065H54.9865L54.9617 46.9662C54.9481 48.3395 54.9264 49.6912 54.9135 49.97L54.8902 50.477H56.7433H58.5964L58.5728 49.8361C58.5598 49.4836 58.5316 48.3084 58.5101 47.2245ZM63.7989 49.2239C63.7855 48.5346 63.7635 47.1829 63.7498 46.22L63.725 44.4694H61.3699H59.0149L58.9952 44.632C58.9844 44.7215 58.957 45.647 58.9345 46.6888C58.9119 47.7305 58.8824 49.0091 58.8689 49.53L58.8445 50.477H61.3338H63.8231L63.7989 49.2239ZM67.9096 49.5491C67.8963 49.0387 67.8742 47.687 67.8604 46.5453L67.8355 44.4694H65.9615H64.0875L64.0664 44.7085C64.0401 45.0055 63.9712 50.4089 63.9931 50.4483C64.0019 50.4641 64.8921 50.477 65.9715 50.477H67.9338L67.9096 49.5491ZM72.0069 50.4483C72.0288 50.4089 71.9599 45.0055 71.9336 44.7085L71.9125 44.4694H70.0385H68.1645L68.1396 46.5453C68.1258 47.687 68.1037 49.0387 68.0904 49.5491L68.0662 50.477H70.0286C71.1079 50.477 71.9981 50.4641 72.0069 50.4483ZM77.1445 50.3144C77.147 49.8684 77.0211 44.7012 77.005 44.5938L76.9863 44.4694H74.6308H72.2753L72.2505 46.22C72.2368 47.1829 72.2147 48.5346 72.2013 49.2239L72.1769 50.477H74.6602H77.1435L77.1445 50.3144ZM81.0865 50.0083C81.0737 49.7505 81.052 48.3988 81.0384 47.0045L81.0135 44.4694H79.2935H77.5735L77.5514 44.8616C77.5392 45.0773 77.5116 46.1406 77.49 47.2245C77.4685 48.3084 77.4402 49.4836 77.4272 49.8361L77.4036 50.477H79.2567H81.1098L81.0865 50.0083ZM84.4045 50.477V47.4732V44.4694H82.8728H81.3412L81.3167 46.1626C81.3033 47.0939 81.2815 48.4456 81.2683 49.1665L81.2443 50.477H82.8244H84.4045Z" fill="white"/>
<path d="M157.159 16.0231C157.159 17.0767 156.961 17.9791 156.565 18.7304C156.172 19.4784 155.636 20.0514 154.956 20.4493C154.279 20.8472 153.511 21.0461 152.651 21.0461C151.792 21.0461 151.023 20.8472 150.342 20.4493C149.665 20.0482 149.129 19.4736 148.733 18.7256C148.34 17.9744 148.144 17.0735 148.144 16.0231C148.144 14.9694 148.34 14.0686 148.733 13.3205C149.129 12.5693 149.665 11.9947 150.342 11.5968C151.023 11.1989 151.792 11 152.651 11C153.511 11 154.279 11.1989 154.956 11.5968C155.636 11.9947 156.172 12.5693 156.565 13.3205C156.961 14.0686 157.159 14.9694 157.159 16.0231ZM155.372 16.0231C155.372 15.2814 155.256 14.6559 155.023 14.1466C154.793 13.6341 154.473 13.2473 154.065 12.9863C153.656 12.7221 153.185 12.59 152.651 12.59C152.118 12.59 151.647 12.7221 151.238 12.9863C150.83 13.2473 150.509 13.6341 150.275 14.1466C150.045 14.6559 149.931 15.2814 149.931 16.0231C149.931 16.7647 150.045 17.3918 150.275 17.9043C150.509 18.4136 150.83 18.8004 151.238 19.0646C151.647 19.3256 152.118 19.4561 152.651 19.4561C153.185 19.4561 153.656 19.3256 154.065 19.0646C154.473 18.8004 154.793 18.4136 155.023 17.9043C155.256 17.3918 155.372 16.7647 155.372 16.0231Z" fill="white"/>
<path d="M159.109 20.9124V11.1337H165.418V12.6186H160.886V14.9105H162.779C163.529 14.9105 164.173 15.0331 164.709 15.2782C165.249 15.5201 165.662 15.8623 165.95 16.3048C166.237 16.7472 166.381 17.2677 166.381 17.8661C166.381 18.4677 166.237 18.9977 165.95 19.4561C165.662 19.9113 165.249 20.2678 164.709 20.5257C164.173 20.7835 163.529 20.9124 162.779 20.9124H159.109ZM160.886 19.4609H162.779C163.175 19.4609 163.51 19.3861 163.785 19.2365C164.059 19.0869 164.267 18.8895 164.407 18.6444C164.551 18.3993 164.623 18.1335 164.623 17.847C164.623 17.4332 164.463 17.0815 164.144 16.7918C163.828 16.4989 163.373 16.3525 162.779 16.3525H160.886V19.4609Z" fill="white"/>
<path d="M169.082 21.0461V19.5564H169.642C169.895 19.5564 170.102 19.5198 170.265 19.4466C170.428 19.3734 170.559 19.2683 170.658 19.1314C170.76 18.9946 170.845 18.8354 170.912 18.654L171.041 18.3245L167.535 11.1337H169.393L171.836 16.3668L173.949 11.1337H175.779L172.397 19.1076C172.24 19.4514 172.06 19.7713 171.855 20.0673C171.651 20.3602 171.384 20.5973 171.055 20.7787C170.73 20.957 170.305 21.0461 169.781 21.0461H169.082Z" fill="white"/>
<path d="M180.739 21.0461C180.05 21.0461 179.437 20.9283 178.9 20.6928C178.367 20.4572 177.945 20.1294 177.635 19.7092C177.326 19.289 177.161 18.8036 177.142 18.2529H178.943C178.959 18.5171 179.047 18.7479 179.207 18.9452C179.366 19.1394 179.579 19.2906 179.844 19.3988C180.109 19.5071 180.406 19.5612 180.735 19.5612C181.086 19.5612 181.397 19.5007 181.669 19.3797C181.94 19.2556 182.153 19.0837 182.306 18.8641C182.459 18.6444 182.534 18.3914 182.531 18.1049C182.534 17.8088 182.458 17.5478 182.301 17.3218C182.145 17.0958 181.918 16.9191 181.621 16.7918C181.327 16.6645 180.973 16.6008 180.557 16.6008H179.69V15.2352H180.557C180.899 15.2352 181.198 15.1763 181.453 15.0586C181.712 14.9408 181.915 14.7753 182.062 14.562C182.209 14.3455 182.28 14.0956 182.277 13.8123C182.28 13.5354 182.218 13.2951 182.09 13.0914C181.966 12.8844 181.789 12.7237 181.559 12.6091C181.332 12.4945 181.065 12.4372 180.759 12.4372C180.458 12.4372 180.181 12.4913 179.925 12.5995C179.67 12.7078 179.464 12.8622 179.307 13.0627C179.151 13.2601 179.068 13.4956 179.058 13.7694H177.348C177.361 13.2219 177.519 12.7412 177.822 12.3274C178.129 11.9104 178.538 11.5857 179.049 11.3533C179.559 11.1178 180.133 11 180.768 11C181.423 11 181.991 11.1226 182.474 11.3677C182.959 11.6096 183.334 11.9359 183.599 12.3465C183.864 12.7571 183.997 13.2107 183.997 13.7073C184 14.258 183.837 14.7195 183.508 15.092C183.183 15.4644 182.755 15.7079 182.225 15.8225V15.8989C182.914 15.9944 183.443 16.2491 183.81 16.6629C184.181 17.0735 184.364 17.5844 184.361 18.1956C184.361 18.7431 184.205 19.2333 183.892 19.6662C183.582 20.0959 183.154 20.4334 182.608 20.6785C182.065 20.9236 181.442 21.0461 180.739 21.0461Z" fill="white"/>
<path d="M195.865 20.9124L192.636 16.639H191.764V20.9124H189.987V11.1337H191.764V15.1541H192.209L195.697 11.1337H197.886L194.011 15.5933L198.054 20.9124H195.865Z" fill="white"/>
<path d="M199.992 23.6627C199.755 23.6627 199.537 23.6436 199.335 23.6054C199.137 23.5704 198.979 23.529 198.861 23.4813L199.264 22.1348C199.516 22.208 199.741 22.243 199.939 22.2398C200.137 22.2366 200.311 22.1746 200.461 22.0536C200.614 21.9358 200.744 21.7385 200.849 21.4615L200.998 21.0652L198.329 13.5784H200.169L201.865 19.1171H201.941L203.642 13.5784H205.486L202.54 21.8005C202.403 22.1889 202.221 22.5215 201.994 22.7985C201.767 23.0786 201.49 23.2919 201.161 23.4383C200.835 23.5879 200.445 23.6627 199.992 23.6627Z" fill="white"/>
<path d="M206.956 23.6627V13.5784H208.661V14.7912H208.762C208.851 14.6129 208.978 14.4235 209.14 14.223C209.303 14.0192 209.524 13.8458 209.802 13.7025C210.079 13.5561 210.434 13.4829 210.865 13.4829C211.433 13.4829 211.946 13.6277 212.403 13.9174C212.863 14.2039 213.227 14.6288 213.495 15.1923C213.766 15.7525 213.902 16.4401 213.902 17.255C213.902 18.0603 213.77 18.7447 213.504 19.3081C213.239 19.8715 212.879 20.3013 212.422 20.5973C211.965 20.8933 211.448 21.0414 210.87 21.0414C210.448 21.0414 210.099 20.9713 209.821 20.8313C209.543 20.6912 209.319 20.5225 209.15 20.3251C208.984 20.1246 208.855 19.9352 208.762 19.7569H208.69V23.6627H206.956ZM208.657 17.2454C208.657 17.7197 208.724 18.1351 208.858 18.4916C208.995 18.8481 209.192 19.1267 209.447 19.3272C209.706 19.5246 210.019 19.6232 210.386 19.6232C210.769 19.6232 211.09 19.5214 211.349 19.3177C211.607 19.1108 211.802 18.829 211.933 18.4725C212.067 18.1128 212.134 17.7038 212.134 17.2454C212.134 16.7902 212.069 16.3859 211.938 16.0326C211.807 15.6793 211.612 15.4023 211.354 15.2018C211.095 15.0013 210.772 14.901 210.386 14.901C210.015 14.901 209.701 14.9981 209.442 15.1923C209.184 15.3864 208.987 15.6586 208.853 16.0087C208.722 16.3589 208.657 16.7711 208.657 17.2454Z" fill="white"/>
<path d="M218.866 21.0557C218.132 21.0557 217.501 20.8949 216.974 20.5734C216.45 20.2519 216.046 19.8079 215.762 19.2413C215.481 18.6715 215.341 18.0157 215.341 17.2741C215.341 16.5292 215.484 15.8719 215.772 15.3021C216.059 14.7291 216.465 14.2835 216.989 13.9651C217.516 13.6436 218.138 13.4829 218.857 13.4829C219.454 13.4829 219.983 13.5927 220.442 13.8123C220.906 14.0288 221.274 14.336 221.549 14.7339C221.824 15.1286 221.98 15.5902 222.018 16.1186H220.361C220.294 15.7652 220.134 15.4708 219.882 15.2352C219.633 14.9965 219.299 14.8771 218.881 14.8771C218.526 14.8771 218.215 14.9726 217.947 15.1636C217.678 15.3514 217.469 15.622 217.319 15.9753C217.172 16.3286 217.099 16.752 217.099 17.2454C217.099 17.7452 217.172 18.1749 217.319 18.5346C217.466 18.8911 217.672 19.1665 217.937 19.3606C218.205 19.5516 218.52 19.6471 218.881 19.6471C219.136 19.6471 219.365 19.5994 219.566 19.5039C219.77 19.4052 219.941 19.2635 220.078 19.0789C220.216 18.8943 220.31 18.6699 220.361 18.4057H222.018C221.977 18.9245 221.824 19.3845 221.559 19.7856C221.294 20.1835 220.933 20.4954 220.476 20.7214C220.019 20.9443 219.483 21.0557 218.866 21.0557Z" fill="white"/>
<path d="M223.712 20.9124V13.5784H225.446V16.5387H226.079L228.292 13.5784H230.38L227.655 17.1786L230.409 20.9124H228.311L226.294 18.1478H225.446V20.9124H223.712Z" fill="white"/>
<path d="M233.334 18.5728L236.28 13.5784H238.062V20.9124H236.385V15.9132L233.449 20.9124H231.662V13.5784H233.334V18.5728Z" fill="white"/>
<path d="M241.784 18.5728L244.731 13.5784H246.513V20.9124H244.836V15.9132L241.899 20.9124H240.113V13.5784H241.784V18.5728ZM244.256 11.0573H245.554C245.554 11.6144 245.352 12.0664 244.946 12.4133C244.544 12.7571 243.998 12.929 243.308 12.929C242.624 12.929 242.08 12.7571 241.674 12.4133C241.272 12.0664 241.072 11.6144 241.076 11.0573H242.364C242.364 11.2865 242.434 11.4918 242.575 11.6732C242.719 11.8515 242.963 11.9406 243.308 11.9406C243.646 11.9406 243.887 11.8515 244.031 11.6732C244.178 11.495 244.253 11.2897 244.256 11.0573Z" fill="white"/>
<path d="M151.526 34.5014C150.807 34.5014 150.184 34.3439 149.657 34.0287C149.131 33.7136 148.722 33.2727 148.431 32.7061C148.144 32.1395 148 31.4774 148 30.7198C148 29.9622 148.144 29.2985 148.431 28.7287C148.722 28.1589 149.131 27.7165 149.657 27.4014C150.184 27.0862 150.807 26.9286 151.526 26.9286C152.244 26.9286 152.867 27.0862 153.394 27.4014C153.921 27.7165 154.328 28.1589 154.615 28.7287C154.906 29.2985 155.051 29.9622 155.051 30.7198C155.051 31.4774 154.906 32.1395 154.615 32.7061C154.328 33.2727 153.921 33.7136 153.394 34.0287C152.867 34.3439 152.244 34.5014 151.526 34.5014ZM151.535 33.1168C151.925 33.1168 152.251 33.0101 152.513 32.7968C152.774 32.5804 152.969 32.2907 153.097 31.9278C153.228 31.565 153.293 31.1607 153.293 30.715C153.293 30.2662 153.228 29.8604 153.097 29.4975C152.969 29.1314 152.774 28.8402 152.513 28.6237C152.251 28.4072 151.925 28.299 151.535 28.299C151.136 28.299 150.804 28.4072 150.539 28.6237C150.277 28.8402 150.081 29.1314 149.95 29.4975C149.822 29.8604 149.758 30.2662 149.758 30.715C149.758 31.1607 149.822 31.565 149.95 31.9278C150.081 32.2907 150.277 32.5804 150.539 32.7968C150.804 33.0101 151.136 33.1168 151.535 33.1168Z" fill="white"/>
<path d="M161.847 29.975V31.3931H157.928V29.975H161.847ZM158.465 27.0241V34.3582H156.793V27.0241H158.465ZM162.982 27.0241V34.3582H161.315V27.0241H162.982Z" fill="white"/>
<path d="M165.006 34.3582V27.0241H166.741V29.9845H167.373L169.586 27.0241H171.675L168.949 30.6243L171.703 34.3582H169.605L167.588 31.5936H166.741V34.3582H165.006Z" fill="white"/>
<path d="M175.863 34.5014C175.144 34.5014 174.522 34.3439 173.995 34.0287C173.468 33.7136 173.059 33.2727 172.768 32.7061C172.481 32.1395 172.337 31.4774 172.337 30.7198C172.337 29.9622 172.481 29.2985 172.768 28.7287C173.059 28.1589 173.468 27.7165 173.995 27.4014C174.522 27.0862 175.144 26.9286 175.863 26.9286C176.581 26.9286 177.204 27.0862 177.731 27.4014C178.258 27.7165 178.665 28.1589 178.953 28.7287C179.243 29.2985 179.389 29.9622 179.389 30.7198C179.389 31.4774 179.243 32.1395 178.953 32.7061C178.665 33.2727 178.258 33.7136 177.731 34.0287C177.204 34.3439 176.581 34.5014 175.863 34.5014ZM175.872 33.1168C176.262 33.1168 176.588 33.0101 176.85 32.7968C177.112 32.5804 177.306 32.2907 177.434 31.9278C177.565 31.565 177.631 31.1607 177.631 30.715C177.631 30.2662 177.565 29.8604 177.434 29.4975C177.306 29.1314 177.112 28.8402 176.85 28.6237C176.588 28.4072 176.262 28.299 175.872 28.299C175.473 28.299 175.141 28.4072 174.876 28.6237C174.614 28.8402 174.418 29.1314 174.287 29.4975C174.159 29.8604 174.095 30.2662 174.095 30.715C174.095 31.1607 174.159 31.565 174.287 31.9278C174.418 32.2907 174.614 32.5804 174.876 32.7968C175.141 33.0101 175.473 33.1168 175.872 33.1168Z" fill="white"/>
<path d="M180.622 34.3582L180.613 32.9353H180.867C181.058 32.9353 181.22 32.8923 181.351 32.8064C181.482 32.7204 181.59 32.5772 181.676 32.3767C181.763 32.1729 181.83 31.8992 181.878 31.5554C181.925 31.2116 181.959 30.7835 181.978 30.271L182.107 27.0241H187.473V34.3582H185.796V28.4423H183.684L183.569 30.8058C183.54 31.4169 183.471 31.9469 183.363 32.3958C183.257 32.8414 183.107 33.2091 182.912 33.4987C182.721 33.7884 182.48 34.0049 182.189 34.1481C181.898 34.2882 181.555 34.3582 181.159 34.3582H180.622Z" fill="white"/>
<path d="M192.698 34.5014C191.98 34.5014 191.357 34.3439 190.83 34.0287C190.303 33.7136 189.894 33.2727 189.604 32.7061C189.316 32.1395 189.172 31.4774 189.172 30.7198C189.172 29.9622 189.316 29.2985 189.604 28.7287C189.894 28.1589 190.303 27.7165 190.83 27.4014C191.357 27.0862 191.98 26.9286 192.698 26.9286C193.417 26.9286 194.039 27.0862 194.566 27.4014C195.093 27.7165 195.5 28.1589 195.788 28.7287C196.078 29.2985 196.224 29.9622 196.224 30.7198C196.224 31.4774 196.078 32.1395 195.788 32.7061C195.5 33.2727 195.093 33.7136 194.566 34.0287C194.039 34.3439 193.417 34.5014 192.698 34.5014ZM192.708 33.1168C193.097 33.1168 193.423 33.0101 193.685 32.7968C193.947 32.5804 194.142 32.2907 194.269 31.9278C194.4 31.565 194.466 31.1607 194.466 30.715C194.466 30.2662 194.4 29.8604 194.269 29.4975C194.142 29.1314 193.947 28.8402 193.685 28.6237C193.423 28.4072 193.097 28.299 192.708 28.299C192.308 28.299 191.976 28.4072 191.711 28.6237C191.449 28.8402 191.253 29.1314 191.122 29.4975C190.994 29.8604 190.93 30.2662 190.93 30.715C190.93 31.1607 190.994 31.565 191.122 31.9278C191.253 32.2907 191.449 32.5804 191.711 32.7968C191.976 33.0101 192.308 33.1168 192.708 33.1168Z" fill="white"/>
<path d="M202.832 27.0241V28.4423H199.661V34.3582H197.965V27.0241H202.832Z" fill="white"/>
<path d="M206.164 32.0186L209.111 27.0241H210.893V34.3582H209.216V29.359L206.279 34.3582H204.493V27.0241H206.164V32.0186Z" fill="white"/>
<path d="M219.089 27.0241V34.3582H217.422V27.0241H219.089ZM218.308 30.3378V31.7512C218.12 31.8339 217.906 31.9087 217.666 31.9756C217.43 32.0392 217.179 32.0902 216.914 32.1284C216.652 32.1666 216.391 32.1857 216.129 32.1857C215.145 32.1857 214.367 31.966 213.796 31.5268C213.227 31.0843 212.943 30.3951 212.943 29.4593V27.0146H214.601V29.4593C214.601 29.7744 214.656 30.0275 214.768 30.2185C214.88 30.4095 215.049 30.5495 215.276 30.6386C215.503 30.7246 215.787 30.7676 216.129 30.7676C216.512 30.7676 216.876 30.7294 217.221 30.653C217.566 30.5766 217.928 30.4715 218.308 30.3378Z" fill="white"/>
<path d="M224.361 34.5014C223.624 34.5014 222.986 34.3486 222.45 34.0431C221.917 33.7343 221.506 33.2982 221.219 32.7348C220.931 32.1682 220.788 31.5013 220.788 30.7341C220.788 29.9797 220.931 29.3176 221.219 28.7478C221.509 28.1749 221.915 27.7292 222.436 27.4109C222.956 27.0894 223.568 26.9286 224.27 26.9286C224.724 26.9286 225.152 27.0019 225.554 27.1483C225.96 27.2915 226.317 27.5144 226.627 27.8168C226.94 28.1192 227.186 28.5043 227.365 28.9723C227.544 29.437 227.633 29.9909 227.633 30.6339V31.1639H221.602V29.9988H225.971C225.968 29.6678 225.896 29.3733 225.755 29.1155C225.615 28.8545 225.418 28.6492 225.166 28.4995C224.917 28.3499 224.626 28.2751 224.294 28.2751C223.94 28.2751 223.628 28.3611 223.36 28.533C223.092 28.7017 222.883 28.9245 222.733 29.2014C222.586 29.4752 222.511 29.776 222.507 30.1039V31.1209C222.507 31.5474 222.586 31.9135 222.742 32.2191C222.899 32.5215 223.117 32.7539 223.398 32.9162C223.679 33.0754 224.008 33.155 224.385 33.155C224.638 33.155 224.866 33.1199 225.07 33.0499C225.275 32.9767 225.452 32.8701 225.602 32.73C225.752 32.5899 225.865 32.4165 225.942 32.2095L227.561 32.391C227.459 32.8175 227.264 33.19 226.977 33.5083C226.693 33.8234 226.329 34.0685 225.885 34.2436C225.441 34.4155 224.933 34.5014 224.361 34.5014Z" fill="white"/>
<path d="M232.579 34.5014C231.845 34.5014 231.214 34.3407 230.687 34.0192C230.164 33.6977 229.76 33.2536 229.475 32.687C229.194 32.1172 229.054 31.4615 229.054 30.7198C229.054 29.975 229.197 29.3176 229.485 28.7478C229.772 28.1749 230.178 27.7292 230.702 27.4109C231.229 27.0894 231.851 26.9286 232.57 26.9286C233.167 26.9286 233.696 27.0385 234.156 27.2581C234.619 27.4746 234.987 27.7817 235.262 28.1796C235.537 28.5744 235.693 29.0359 235.732 29.5643H234.074C234.007 29.211 233.847 28.9165 233.595 28.681C233.346 28.4423 233.012 28.3229 232.594 28.3229C232.239 28.3229 231.928 28.4184 231.66 28.6094C231.391 28.7972 231.182 29.0677 231.032 29.4211C230.885 29.7744 230.812 30.1978 230.812 30.6912C230.812 31.1909 230.885 31.6207 231.032 31.9804C231.179 32.3369 231.385 32.6122 231.65 32.8064C231.918 32.9974 232.233 33.0929 232.594 33.0929C232.849 33.0929 233.078 33.0451 233.279 32.9496C233.483 32.851 233.654 32.7093 233.791 32.5247C233.929 32.3401 234.023 32.1156 234.074 31.8514H235.732C235.69 32.3703 235.537 32.8303 235.272 33.2314C235.007 33.6292 234.646 33.9412 234.189 34.1672C233.732 34.39 233.196 34.5014 232.579 34.5014Z" fill="white"/>
<path d="M237.425 34.3582V27.0241H239.159V29.9845H239.792L242.005 27.0241H244.093L241.368 30.6243L244.122 34.3582H242.024L240.007 31.5936H239.159V34.3582H237.425Z" fill="white"/>
<path d="M247.047 32.0186L249.993 27.0241H251.775V34.3582H250.098V29.359L247.162 34.3582H245.375V27.0241H247.047V32.0186Z" fill="white"/>
<path d="M255.498 32.0186L258.444 27.0241H260.226V34.3582H258.549V29.359L255.613 34.3582H253.826V27.0241H255.498V32.0186ZM257.969 24.5031H259.268C259.268 25.0601 259.065 25.5121 258.659 25.8591C258.257 26.2029 257.711 26.3748 257.021 26.3748C256.337 26.3748 255.793 26.2029 255.387 25.8591C254.985 25.5121 254.785 25.0601 254.789 24.5031H256.077C256.077 24.7323 256.147 24.9376 256.288 25.119C256.432 25.2973 256.676 25.3864 257.021 25.3864C257.359 25.3864 257.601 25.2973 257.744 25.119C257.891 24.9408 257.966 24.7354 257.969 24.5031Z" fill="white"/>
<path d="M270.946 29.975V31.3931H267.027V29.975H270.946ZM267.564 27.0241V34.3582H265.892V27.0241H267.564ZM272.081 27.0241V34.3582H270.414V27.0241H272.081Z" fill="white"/>
<path d="M276.223 34.5062C275.757 34.5062 275.337 34.4235 274.963 34.2579C274.593 34.0892 274.299 33.8409 274.082 33.5131C273.868 33.1852 273.761 32.7809 273.761 32.3003C273.761 31.8865 273.837 31.5443 273.991 31.2737C274.144 31.0031 274.353 30.7867 274.618 30.6243C274.883 30.462 275.182 30.3394 275.514 30.2567C275.849 30.1707 276.196 30.1086 276.553 30.0704C276.984 30.0259 277.334 29.9861 277.602 29.9511C277.871 29.9129 278.066 29.8556 278.187 29.7792C278.311 29.6996 278.374 29.5771 278.374 29.4115V29.3829C278.374 29.0232 278.267 28.7447 278.053 28.5473C277.839 28.3499 277.531 28.2513 277.128 28.2513C276.703 28.2513 276.367 28.3436 276.117 28.5282C275.872 28.7128 275.705 28.9309 275.619 29.1823L274 28.9532C274.128 28.5075 274.339 28.1351 274.632 27.8359C274.926 27.5335 275.286 27.3074 275.71 27.1578C276.135 27.005 276.604 26.9286 277.119 26.9286C277.473 26.9286 277.826 26.97 278.177 27.0528C278.529 27.1356 278.85 27.2724 279.14 27.4634C279.431 27.6512 279.664 27.9075 279.84 28.2322C280.018 28.5568 280.108 28.9627 280.108 29.4497V34.3582H278.441V33.3507H278.383C278.278 33.5544 278.129 33.7454 277.938 33.9237C277.749 34.0988 277.511 34.2404 277.224 34.3486C276.94 34.4537 276.606 34.5062 276.223 34.5062ZM276.673 33.2361C277.021 33.2361 277.323 33.1677 277.579 33.0308C277.834 32.8908 278.03 32.7061 278.168 32.4769C278.308 32.2477 278.378 31.9979 278.378 31.7273V30.8631C278.324 30.9076 278.232 30.949 278.101 30.9872C277.973 31.0254 277.829 31.0588 277.67 31.0875C277.51 31.1161 277.352 31.1416 277.195 31.1639C277.039 31.1862 276.903 31.2053 276.788 31.2212C276.529 31.2562 276.298 31.3135 276.093 31.3931C275.889 31.4726 275.728 31.5841 275.61 31.7273C275.492 31.8674 275.432 32.0488 275.432 32.2716C275.432 32.5899 275.549 32.8303 275.782 32.9926C276.015 33.155 276.312 33.2361 276.673 33.2361Z" fill="white"/>
<path d="M282.936 37.1085C282.699 37.1085 282.481 37.0894 282.279 37.0512C282.081 37.0162 281.923 36.9748 281.805 36.927L282.208 35.5805C282.46 35.6538 282.685 35.6888 282.883 35.6856C283.081 35.6824 283.255 35.6203 283.405 35.4994C283.558 35.3816 283.688 35.1842 283.793 34.9073L283.942 34.511L281.273 27.0241H283.113L284.809 32.5629H284.885L286.586 27.0241H288.43L285.484 35.2463C285.347 35.6347 285.165 35.9673 284.938 36.2442C284.711 36.5244 284.433 36.7376 284.105 36.8841C283.779 37.0337 283.389 37.1085 282.936 37.1085Z" fill="white"/>
<path d="M295.835 27.0241V34.3582H294.168V27.0241H295.835ZM295.054 30.3378V31.7512C294.866 31.8339 294.652 31.9087 294.412 31.9756C294.176 32.0392 293.925 32.0902 293.66 32.1284C293.399 32.1666 293.137 32.1857 292.875 32.1857C291.891 32.1857 291.114 31.966 290.542 31.5268C289.973 31.0843 289.689 30.3951 289.689 29.4593V27.0146H291.347V29.4593C291.347 29.7744 291.403 30.0275 291.514 30.2185C291.626 30.4095 291.795 30.5495 292.022 30.6386C292.249 30.7246 292.533 30.7676 292.875 30.7676C293.258 30.7676 293.622 30.7294 293.967 30.653C294.312 30.5766 294.674 30.4715 295.054 30.3378Z" fill="white"/>
<path d="M302.904 29.975V31.3931H298.985V29.975H302.904ZM299.522 27.0241V34.3582H297.85V27.0241H299.522ZM304.039 27.0241V34.3582H302.372V27.0241H304.039Z" fill="white"/>
<path d="M309.273 34.5014C308.554 34.5014 307.932 34.3439 307.405 34.0287C306.878 33.7136 306.469 33.2727 306.178 32.7061C305.891 32.1395 305.747 31.4774 305.747 30.7198C305.747 29.9622 305.891 29.2985 306.178 28.7287C306.469 28.1589 306.878 27.7165 307.405 27.4014C307.932 27.0862 308.554 26.9286 309.273 26.9286C309.991 26.9286 310.614 27.0862 311.141 27.4014C311.668 27.7165 312.075 28.1589 312.363 28.7287C312.653 29.2985 312.799 29.9622 312.799 30.7198C312.799 31.4774 312.653 32.1395 312.363 32.7061C312.075 33.2727 311.668 33.7136 311.141 34.0287C310.614 34.3439 309.991 34.5014 309.273 34.5014ZM309.282 33.1168C309.672 33.1168 309.998 33.0101 310.26 32.7968C310.522 32.5804 310.716 32.2907 310.844 31.9278C310.975 31.565 311.04 31.1607 311.04 30.715C311.04 30.2662 310.975 29.8604 310.844 29.4975C310.716 29.1314 310.522 28.8402 310.26 28.6237C309.998 28.4072 309.672 28.299 309.282 28.299C308.883 28.299 308.551 28.4072 308.286 28.6237C308.024 28.8402 307.828 29.1314 307.697 29.4975C307.569 29.8604 307.505 30.2662 307.505 30.715C307.505 31.1607 307.569 31.565 307.697 31.9278C307.828 32.2907 308.024 32.5804 308.286 32.7968C308.551 33.0101 308.883 33.1168 309.282 33.1168Z" fill="white"/>
<path d="M319 29.5739V30.9968H314.583V29.5739H319Z" fill="white"/>
<path d="M148.316 47.804V40.4699H150.05V43.4303H150.683L152.896 40.4699H154.984L152.259 44.0701L155.013 47.804H152.915L150.898 45.0394H150.05V47.804H148.316Z" fill="white"/>
<path d="M155.758 47.804L155.749 46.3811H156.003C156.194 46.3811 156.356 46.3381 156.486 46.2522C156.617 46.1662 156.726 46.023 156.812 45.8224C156.898 45.6187 156.965 45.345 157.013 45.0012C157.061 44.6574 157.095 44.2293 157.114 43.7168L157.243 40.4699H162.609V47.804H160.932V41.888H158.819L158.704 44.2515C158.676 44.8627 158.607 45.3927 158.498 45.8415C158.393 46.2872 158.243 46.6548 158.048 46.9445C157.856 47.2342 157.615 47.4506 157.325 47.5939C157.034 47.7339 156.691 47.804 156.295 47.804H155.758Z" fill="white"/>
<path d="M166.296 45.4643L169.242 40.4699H171.024V47.804H169.348V42.8048L166.411 47.804H164.624V40.4699H166.296V45.4643Z" fill="white"/>
<path d="M178.129 43.4207V44.8388H174.21V43.4207H178.129ZM174.747 40.4699V47.804H173.075V40.4699H174.747ZM179.264 40.4699V47.804H177.597V40.4699H179.264Z" fill="white"/>
<path d="M182.96 45.4643L185.906 40.4699H187.688V47.804H186.012V42.8048L183.075 47.804H181.288V40.4699H182.96V45.4643Z" fill="white"/>
<path d="M195.885 40.4699V47.804H194.218V40.4699H195.885ZM195.104 43.7836V45.1969C194.916 45.2797 194.702 45.3545 194.462 45.4214C194.226 45.485 193.975 45.5359 193.71 45.5741C193.448 45.6123 193.186 45.6314 192.924 45.6314C191.941 45.6314 191.163 45.4118 190.592 44.9725C190.023 44.5301 189.739 43.8409 189.739 42.905V40.4604H191.396V42.905C191.396 43.2202 191.452 43.4732 191.564 43.6642C191.676 43.8552 191.845 43.9953 192.072 44.0844C192.298 44.1704 192.583 44.2133 192.924 44.2133C193.308 44.2133 193.672 44.1751 194.017 44.0987C194.362 44.0223 194.724 43.9173 195.104 43.7836Z" fill="white"/>
<path d="M201.157 47.9472C200.419 47.9472 199.782 47.7944 199.246 47.4888C198.712 47.1801 198.302 46.744 198.015 46.1805C197.727 45.6139 197.583 44.9471 197.583 44.1799C197.583 43.4255 197.727 42.7634 198.015 42.1936C198.305 41.6206 198.711 41.175 199.231 40.8567C199.752 40.5352 200.363 40.3744 201.066 40.3744C201.519 40.3744 201.947 40.4476 202.35 40.5941C202.755 40.7373 203.113 40.9601 203.423 41.2625C203.736 41.5649 203.982 41.9501 204.161 42.418C204.339 42.8828 204.429 43.4366 204.429 44.0796V44.6096H198.398V43.4446H202.767C202.763 43.1135 202.692 42.8191 202.551 42.5613C202.41 42.3002 202.214 42.0949 201.962 41.9453C201.713 41.7957 201.422 41.7209 201.09 41.7209C200.735 41.7209 200.424 41.8068 200.156 41.9787C199.888 42.1474 199.678 42.3703 199.528 42.6472C199.381 42.921 199.306 43.2218 199.303 43.5496V44.5667C199.303 44.9932 199.381 45.3593 199.538 45.6649C199.694 45.9673 199.913 46.1996 200.194 46.362C200.475 46.5211 200.804 46.6007 201.181 46.6007C201.433 46.6007 201.662 46.5657 201.866 46.4957C202.07 46.4225 202.248 46.3158 202.398 46.1758C202.548 46.0357 202.661 45.8622 202.738 45.6553L204.357 45.8368C204.255 46.2633 204.06 46.6357 203.773 46.9541C203.488 47.2692 203.124 47.5143 202.68 47.6894C202.236 47.8613 201.729 47.9472 201.157 47.9472Z" fill="white"/>
<path d="M209.375 47.9472C208.641 47.9472 208.01 47.7865 207.483 47.465C206.959 47.1435 206.555 46.6994 206.271 46.1328C205.99 45.563 205.849 44.9073 205.849 44.1656C205.849 43.4207 205.993 42.7634 206.281 42.1936C206.568 41.6206 206.974 41.175 207.497 40.8567C208.024 40.5352 208.647 40.3744 209.366 40.3744C209.963 40.3744 210.491 40.4842 210.951 40.7039C211.414 40.9203 211.783 41.2275 212.058 41.6254C212.332 42.0201 212.489 42.4817 212.527 43.0101H210.87C210.803 42.6568 210.643 42.3623 210.391 42.1268C210.142 41.888 209.808 41.7686 209.39 41.7686C209.035 41.7686 208.724 41.8641 208.455 42.0551C208.187 42.2429 207.978 42.5135 207.828 42.8668C207.681 43.2202 207.608 43.6435 207.608 44.1369C207.608 44.6367 207.681 45.0664 207.828 45.4261C207.975 45.7826 208.181 46.058 208.446 46.2522C208.714 46.4432 209.029 46.5386 209.39 46.5386C209.645 46.5386 209.873 46.4909 210.075 46.3954C210.279 46.2967 210.45 46.1551 210.587 45.9705C210.724 45.7858 210.819 45.5614 210.87 45.2972H212.527C212.486 45.8161 212.332 46.276 212.067 46.6771C211.802 47.075 211.441 47.387 210.985 47.613C210.528 47.8358 209.992 47.9472 209.375 47.9472Z" fill="white"/>
<path d="M214.221 47.804V40.4699H215.955V43.4303H216.587L218.801 40.4699H220.889L218.163 44.0701L220.918 47.804H218.82L216.803 45.0394H215.955V47.804H214.221Z" fill="white"/>
<path d="M223.843 45.4643L226.789 40.4699H228.571V47.804H226.894V42.8048L223.958 47.804H222.171V40.4699H223.843V45.4643Z" fill="white"/>
<path d="M232.293 45.4643L235.239 40.4699H237.021V47.804H235.345V42.8048L232.408 47.804H230.621V40.4699H232.293V45.4643ZM234.765 37.9488H236.063C236.063 38.5059 235.86 38.9579 235.455 39.3049C235.052 39.6486 234.506 39.8205 233.817 39.8205C233.133 39.8205 232.589 39.6486 232.183 39.3049C231.781 38.9579 231.581 38.5059 231.584 37.9488H232.873C232.873 38.178 232.943 38.3833 233.084 38.5648C233.227 38.743 233.472 38.8322 233.817 38.8322C234.155 38.8322 234.396 38.743 234.54 38.5648C234.687 38.3865 234.762 38.1812 234.765 37.9488Z" fill="white"/>
<path d="M248.901 40.4699V46.5148H250.027V50.1627H248.331V47.804H242.688V40.4699H244.36V46.3859H247.243V40.4699H248.901Z" fill="white"/>
<path d="M254.896 47.9472C254.159 47.9472 253.522 47.7944 252.985 47.4888C252.452 47.1801 252.041 46.744 251.754 46.1805C251.466 45.6139 251.323 44.9471 251.323 44.1799C251.323 43.4255 251.466 42.7634 251.754 42.1936C252.045 41.6206 252.45 41.175 252.971 40.8567C253.491 40.5352 254.103 40.3744 254.805 40.3744C255.259 40.3744 255.687 40.4476 256.089 40.5941C256.495 40.7373 256.852 40.9601 257.162 41.2625C257.475 41.5649 257.721 41.9501 257.9 42.418C258.079 42.8828 258.168 43.4366 258.168 44.0796V44.6096H252.137V43.4446H256.506C256.503 43.1135 256.431 42.8191 256.29 42.5613C256.15 42.3002 255.953 42.0949 255.701 41.9453C255.452 41.7957 255.161 41.7209 254.829 41.7209C254.475 41.7209 254.163 41.8068 253.895 41.9787C253.627 42.1474 253.418 42.3703 253.268 42.6472C253.121 42.921 253.046 43.2218 253.042 43.5496V44.5667C253.042 44.9932 253.121 45.3593 253.277 45.6649C253.434 45.9673 253.652 46.1996 253.934 46.362C254.215 46.5211 254.543 46.6007 254.92 46.6007C255.173 46.6007 255.401 46.5657 255.605 46.4957C255.81 46.4225 255.987 46.3158 256.137 46.1758C256.287 46.0357 256.401 45.8622 256.477 45.6553L258.096 45.8368C257.994 46.2633 257.799 46.6357 257.512 46.9541C257.228 47.2692 256.864 47.5143 256.42 47.6894C255.976 47.8613 255.468 47.9472 254.896 47.9472Z" fill="white"/>
<path d="M264.959 43.4207V44.8388H261.04V43.4207H264.959ZM261.577 40.4699V47.804H259.905V40.4699H261.577ZM266.094 40.4699V47.804H264.427V40.4699H266.094Z" fill="white"/>
<path d="M267.294 41.888V40.4699H273.733V41.888H271.352V47.804H269.675V41.888H267.294Z" fill="white"/>
<path d="M275.383 50.5542V40.4699H277.089V41.6827H277.189C277.279 41.5044 277.405 41.315 277.568 41.1145C277.731 40.9108 277.951 40.7373 278.229 40.5941C278.507 40.4476 278.861 40.3744 279.292 40.3744C279.861 40.3744 280.373 40.5192 280.83 40.8089C281.29 41.0954 281.654 41.5204 281.922 42.0838C282.194 42.644 282.329 43.3316 282.329 44.1465C282.329 44.9518 282.197 45.6362 281.932 46.1996C281.667 46.7631 281.306 47.1928 280.849 47.4888C280.392 47.7849 279.875 47.9329 279.297 47.9329C278.875 47.9329 278.526 47.8629 278.248 47.7228C277.97 47.5827 277.747 47.414 277.577 47.2167C277.411 47.0161 277.282 46.8267 277.189 46.6485H277.117V50.5542H275.383ZM277.084 44.1369C277.084 44.6112 277.151 45.0266 277.285 45.3832C277.422 45.7397 277.619 46.0182 277.874 46.2187C278.133 46.4161 278.446 46.5148 278.813 46.5148C279.196 46.5148 279.517 46.4129 279.776 46.2092C280.035 46.0023 280.23 45.7206 280.361 45.3641C280.495 45.0044 280.562 44.5953 280.562 44.1369C280.562 43.6817 280.496 43.2775 280.365 42.9241C280.234 42.5708 280.04 42.2939 279.781 42.0933C279.522 41.8928 279.2 41.7925 278.813 41.7925C278.443 41.7925 278.128 41.8896 277.87 42.0838C277.611 42.278 277.414 42.5501 277.28 42.9003C277.149 43.2504 277.084 43.6626 277.084 44.1369Z" fill="white"/>
<path d="M149.988 58.9101L152.934 53.9157H154.716V61.2497H153.039V56.2505L150.103 61.2497H148.316V53.9157H149.988V58.9101Z" fill="white"/>
<path d="M161.001 59.2395L163.186 53.9157H164.585L161.61 61.2497H160.398L157.49 53.9157H158.874L161.001 59.2395ZM158.439 53.9157V61.2497H156.767V53.9157H158.439ZM163.636 61.2497V53.9157H165.294V61.2497H163.636Z" fill="white"/>
<path d="M168.38 61.3548C168.089 61.3548 167.84 61.2529 167.633 61.0492C167.425 60.8455 167.323 60.5972 167.326 60.3043C167.323 60.0178 167.425 59.7727 167.633 59.569C167.84 59.3653 168.089 59.2634 168.38 59.2634C168.661 59.2634 168.905 59.3653 169.113 59.569C169.324 59.7727 169.431 60.0178 169.434 60.3043C169.431 60.4985 169.38 60.6752 169.281 60.8343C169.185 60.9935 169.057 61.1208 168.897 61.2163C168.741 61.3086 168.568 61.3548 168.38 61.3548Z" fill="white"/>
<path d="M177.88 51.471V52.9559H173.348V61.2497H171.571V51.471H177.88Z" fill="white"/>
<path d="M180.183 61.3548C179.892 61.3548 179.643 61.2529 179.436 61.0492C179.228 60.8455 179.126 60.5972 179.129 60.3043C179.126 60.0178 179.228 59.7727 179.436 59.569C179.643 59.3653 179.892 59.2634 180.183 59.2634C180.464 59.2634 180.708 59.3653 180.916 59.569C181.127 59.7727 181.234 60.0178 181.237 60.3043C181.234 60.4985 181.183 60.6752 181.084 60.8343C180.988 60.9935 180.86 61.1208 180.7 61.2163C180.544 61.3086 180.371 61.3548 180.183 61.3548Z" fill="white"/>
<path d="M183.374 61.2497V51.471H189.754V52.9559H185.151V55.6107H189.424V57.0957H185.151V59.7648H189.793V61.2497H183.374Z" fill="white"/>
<path d="M192.829 61.3548C192.538 61.3548 192.289 61.2529 192.082 61.0492C191.874 60.8455 191.772 60.5972 191.775 60.3043C191.772 60.0178 191.874 59.7727 192.082 59.569C192.289 59.3653 192.538 59.2634 192.829 59.2634C193.11 59.2634 193.354 59.3653 193.562 59.569C193.773 59.7727 193.88 60.0178 193.883 60.3043C193.88 60.4985 193.829 60.6752 193.73 60.8343C193.634 60.9935 193.506 61.1208 193.346 61.2163C193.19 61.3086 193.017 61.3548 192.829 61.3548Z" fill="white"/>
<path d="M208.099 56.3604C208.099 57.414 207.901 58.3164 207.505 59.0677C207.112 59.8157 206.576 60.3887 205.895 60.7866C205.218 61.1845 204.45 61.3834 203.591 61.3834C202.732 61.3834 201.962 61.1845 201.282 60.7866C200.605 60.3855 200.069 59.8109 199.673 59.0629C199.28 58.3117 199.083 57.4108 199.083 56.3604C199.083 55.3067 199.28 54.4059 199.673 53.6578C200.069 52.9066 200.605 52.332 201.282 51.9341C201.962 51.5362 202.732 51.3373 203.591 51.3373C204.45 51.3373 205.218 51.5362 205.895 51.9341C206.576 52.332 207.112 52.9066 207.505 53.6578C207.901 54.4059 208.099 55.3067 208.099 56.3604ZM206.312 56.3604C206.312 55.6187 206.196 54.9932 205.962 54.4839C205.732 53.9714 205.413 53.5846 205.004 53.3236C204.596 53.0594 204.125 52.9273 203.591 52.9273C203.058 52.9273 202.587 53.0594 202.178 53.3236C201.769 53.5846 201.448 53.9714 201.215 54.4839C200.985 54.9932 200.87 55.6187 200.87 56.3604C200.87 57.102 200.985 57.7291 201.215 58.2416C201.448 58.7509 201.769 59.1377 202.178 59.4019C202.587 59.6629 203.058 59.7934 203.591 59.7934C204.125 59.7934 204.596 59.6629 205.004 59.4019C205.413 59.1377 205.732 58.7509 205.962 58.2416C206.196 57.7291 206.312 57.102 206.312 56.3604Z" fill="white"/>
<path d="M213.182 61.393C212.447 61.393 211.817 61.2322 211.29 60.9107C210.766 60.5892 210.362 60.1452 210.078 59.5786C209.797 59.0088 209.656 58.353 209.656 57.6114C209.656 56.8665 209.8 56.2092 210.087 55.6394C210.375 55.0664 210.78 54.6208 211.304 54.3024C211.831 53.9809 212.454 53.8202 213.172 53.8202C213.769 53.8202 214.298 53.93 214.758 54.1496C215.221 54.3661 215.59 54.6733 215.864 55.0712C216.139 55.4659 216.296 55.9274 216.334 56.4559H214.676C214.609 56.1025 214.45 55.8081 214.197 55.5725C213.948 55.3338 213.615 55.2144 213.196 55.2144C212.842 55.2144 212.53 55.3099 212.262 55.5009C211.994 55.6887 211.785 55.9593 211.635 56.3126C211.488 56.6659 211.414 57.0893 211.414 57.5827C211.414 58.0825 211.488 58.5122 211.635 58.8719C211.781 59.2284 211.987 59.5038 212.252 59.6979C212.521 59.8889 212.835 59.9844 213.196 59.9844C213.452 59.9844 213.68 59.9367 213.881 59.8412C214.086 59.7425 214.256 59.6008 214.394 59.4162C214.531 59.2316 214.625 59.0072 214.676 58.743H216.334C216.292 59.2618 216.139 59.7218 215.874 60.1229C215.609 60.5208 215.248 60.8327 214.791 61.0587C214.335 61.2816 213.798 61.393 213.182 61.393Z" fill="white"/>
<path d="M217.493 55.3338V53.9157H223.932V55.3338H221.551V61.2497H219.874V55.3338H217.493Z" fill="white"/>
<path d="M225.582 64V53.9157H227.288V55.1285H227.388C227.478 54.9502 227.604 54.7608 227.767 54.5603C227.93 54.3565 228.15 54.1831 228.428 54.0398C228.706 53.8934 229.06 53.8202 229.491 53.8202C230.06 53.8202 230.572 53.965 231.029 54.2547C231.489 54.5412 231.853 54.9661 232.121 55.5295C232.393 56.0898 232.528 56.7774 232.528 57.5923C232.528 58.3976 232.396 59.082 232.131 59.6454C231.866 60.2088 231.505 60.6386 231.048 60.9346C230.591 61.2306 230.074 61.3786 229.496 61.3786C229.074 61.3786 228.725 61.3086 228.447 61.1686C228.169 61.0285 227.946 60.8598 227.776 60.6624C227.61 60.4619 227.481 60.2725 227.388 60.0942H227.316V64H225.582ZM227.283 57.5827C227.283 58.057 227.35 58.4724 227.484 58.8289C227.621 59.1854 227.818 59.464 228.073 59.6645C228.332 59.8619 228.645 59.9605 229.012 59.9605C229.395 59.9605 229.716 59.8587 229.975 59.655C230.234 59.448 230.429 59.1663 230.559 58.8098C230.694 58.4501 230.761 58.0411 230.761 57.5827C230.761 57.1275 230.695 56.7232 230.564 56.3699C230.433 56.0166 230.239 55.7396 229.98 55.5391C229.721 55.3386 229.399 55.2383 229.012 55.2383C228.642 55.2383 228.327 55.3354 228.068 55.5295C227.81 55.7237 227.613 55.9959 227.479 56.346C227.348 56.6962 227.283 57.1084 227.283 57.5827Z" fill="white"/>
<path d="M237.493 61.393C236.774 61.393 236.151 61.2354 235.624 60.9203C235.097 60.6051 234.689 60.1643 234.398 59.5977C234.111 59.031 233.967 58.3689 233.967 57.6114C233.967 56.8538 234.111 56.1901 234.398 55.6203C234.689 55.0505 235.097 54.608 235.624 54.2929C236.151 53.9777 236.774 53.8202 237.493 53.8202C238.211 53.8202 238.834 53.9777 239.361 54.2929C239.888 54.608 240.295 55.0505 240.582 55.6203C240.873 56.1901 241.018 56.8538 241.018 57.6114C241.018 58.3689 240.873 59.031 240.582 59.5977C240.295 60.1643 239.888 60.6051 239.361 60.9203C238.834 61.2354 238.211 61.393 237.493 61.393ZM237.502 60.0083C237.892 60.0083 238.218 59.9016 238.479 59.6884C238.741 59.4719 238.936 59.1823 239.064 58.8194C239.195 58.4565 239.26 58.0522 239.26 57.6066C239.26 57.1577 239.195 56.7519 239.064 56.389C238.936 56.0229 238.741 55.7317 238.479 55.5152C238.218 55.2988 237.892 55.1905 237.502 55.1905C237.103 55.1905 236.771 55.2988 236.506 55.5152C236.244 55.7317 236.048 56.0229 235.917 56.389C235.789 56.7519 235.725 57.1577 235.725 57.6066C235.725 58.0522 235.789 58.4565 235.917 58.8194C236.048 59.1823 236.244 59.4719 236.506 59.6884C236.771 59.9016 237.103 60.0083 237.502 60.0083Z" fill="white"/>
<path d="M242.76 61.2497V53.9157H245.85C246.722 53.9157 247.41 54.0892 247.914 54.4361C248.422 54.7831 248.676 55.2669 248.676 55.8877C248.676 56.2983 248.532 56.6341 248.245 56.8951C247.961 57.153 247.573 57.3265 247.081 57.4156C247.467 57.4474 247.806 57.5445 248.096 57.7068C248.39 57.8692 248.62 58.0825 248.786 58.3467C248.952 58.6109 249.035 58.9149 249.035 59.2586C249.035 59.6629 248.928 60.0147 248.714 60.3139C248.504 60.6099 248.195 60.8407 247.79 61.0062C247.387 61.1686 246.899 61.2497 246.324 61.2497H242.76ZM244.384 59.8889H246.324C246.643 59.8889 246.894 59.8141 247.076 59.6645C247.258 59.5117 247.349 59.3048 247.349 59.0438C247.349 58.7414 247.258 58.5042 247.076 58.3323C246.894 58.1573 246.643 58.0697 246.324 58.0697H244.384V59.8889ZM244.384 56.9524H245.883C246.12 56.9524 246.322 56.919 246.492 56.8522C246.661 56.7821 246.79 56.685 246.88 56.5609C246.969 56.4336 247.014 56.2824 247.014 56.1073C247.014 55.8558 246.91 55.6585 246.702 55.5152C246.498 55.372 246.214 55.3004 245.85 55.3004H244.384V56.9524Z" fill="white"/>
<path d="M253.994 61.393C253.256 61.393 252.619 61.2402 252.082 60.9346C251.549 60.6258 251.139 60.1897 250.851 59.6263C250.564 59.0597 250.42 58.3928 250.42 57.6257C250.42 56.8713 250.564 56.2092 250.851 55.6394C251.142 55.0664 251.547 54.6208 252.068 54.3024C252.589 53.9809 253.2 53.8202 253.903 53.8202C254.356 53.8202 254.784 53.8934 255.187 54.0398C255.592 54.1831 255.95 54.4059 256.26 54.7083C256.573 55.0107 256.818 55.3959 256.997 55.8638C257.176 56.3285 257.266 56.8824 257.266 57.5254V58.0554H251.234V56.8904H255.603C255.6 56.5593 255.528 56.2649 255.388 56.007C255.247 55.746 255.051 55.5407 254.799 55.3911C254.549 55.2415 254.259 55.1667 253.927 55.1667C253.572 55.1667 253.261 55.2526 252.993 55.4245C252.724 55.5932 252.515 55.816 252.365 56.093C252.218 56.3667 252.143 56.6675 252.14 56.9954V58.0124C252.14 58.439 252.218 58.805 252.375 59.1106C252.531 59.413 252.75 59.6454 253.031 59.8077C253.312 59.9669 253.641 60.0465 254.018 60.0465C254.27 60.0465 254.498 60.0115 254.703 59.9414C254.907 59.8682 255.084 59.7616 255.234 59.6215C255.385 59.4815 255.498 59.308 255.575 59.1011L257.194 59.2825C257.091 59.7091 256.897 60.0815 256.609 60.3998C256.325 60.715 255.961 60.9601 255.517 61.1351C255.073 61.307 254.565 61.393 253.994 61.393Z" fill="white"/>
<path d="M259.002 64V53.9157H260.708V55.1285H260.808C260.898 54.9502 261.024 54.7608 261.187 54.5603C261.35 54.3565 261.57 54.1831 261.848 54.0398C262.126 53.8934 262.48 53.8202 262.911 53.8202C263.48 53.8202 263.992 53.965 264.449 54.2547C264.909 54.5412 265.273 54.9661 265.541 55.5295C265.813 56.0898 265.948 56.7774 265.948 57.5923C265.948 58.3976 265.816 59.082 265.551 59.6454C265.286 60.2088 264.925 60.6386 264.468 60.9346C264.011 61.2306 263.494 61.3786 262.916 61.3786C262.495 61.3786 262.145 61.3086 261.867 61.1686C261.589 61.0285 261.366 60.8598 261.196 60.6624C261.03 60.4619 260.901 60.2725 260.808 60.0942H260.736V64H259.002ZM260.703 57.5827C260.703 58.057 260.77 58.4724 260.904 58.8289C261.041 59.1854 261.238 59.464 261.493 59.6645C261.752 59.8619 262.065 59.9605 262.432 59.9605C262.815 59.9605 263.136 59.8587 263.395 59.655C263.654 59.448 263.849 59.1663 263.98 58.8098C264.114 58.4501 264.181 58.0411 264.181 57.5827C264.181 57.1275 264.115 56.7232 263.984 56.3699C263.853 56.0166 263.659 55.7396 263.4 55.5391C263.141 55.3386 262.819 55.2383 262.432 55.2383C262.062 55.2383 261.747 55.3354 261.489 55.5295C261.23 55.7237 261.033 55.9959 260.899 56.346C260.768 56.6962 260.703 57.1084 260.703 57.5827Z" fill="white"/>
<path d="M268.844 53.9157L270.329 56.623L271.838 53.9157H273.673L271.455 57.5827L273.711 61.2497H271.886L270.329 58.6093L268.787 61.2497H266.948L269.189 57.5827L267.005 53.9157H268.844Z" fill="white"/>
<path d="M278.217 61.393C277.499 61.393 276.876 61.2354 276.349 60.9203C275.822 60.6051 275.413 60.1643 275.123 59.5977C274.835 59.031 274.691 58.3689 274.691 57.6114C274.691 56.8538 274.835 56.1901 275.123 55.6203C275.413 55.0505 275.822 54.608 276.349 54.2929C276.876 53.9777 277.499 53.8202 278.217 53.8202C278.936 53.8202 279.558 53.9777 280.085 54.2929C280.612 54.608 281.02 55.0505 281.307 55.6203C281.598 56.1901 281.743 56.8538 281.743 57.6114C281.743 58.3689 281.598 59.031 281.307 59.5977C281.02 60.1643 280.612 60.6051 280.085 60.9203C279.558 61.2354 278.936 61.393 278.217 61.393ZM278.227 60.0083C278.616 60.0083 278.942 59.9016 279.204 59.6884C279.466 59.4719 279.661 59.1823 279.788 58.8194C279.919 58.4565 279.985 58.0522 279.985 57.6066C279.985 57.1577 279.919 56.7519 279.788 56.389C279.661 56.0229 279.466 55.7317 279.204 55.5152C278.942 55.2988 278.616 55.1905 278.227 55.1905C277.828 55.1905 277.495 55.2988 277.23 55.5152C276.968 55.7317 276.772 56.0229 276.641 56.389C276.513 56.7519 276.45 57.1577 276.45 57.6066C276.45 58.0522 276.513 58.4565 276.641 58.8194C276.772 59.1823 276.968 59.4719 277.23 59.6884C277.495 59.9016 277.828 60.0083 278.227 60.0083Z" fill="white"/>
<path d="M283.484 61.2497V53.9157H286.574C287.446 53.9157 288.134 54.0892 288.639 54.4361C289.147 54.7831 289.401 55.2669 289.401 55.8877C289.401 56.2983 289.257 56.6341 288.969 56.8951C288.685 57.153 288.297 57.3265 287.805 57.4156C288.192 57.4474 288.53 57.5445 288.821 57.7068C289.115 57.8692 289.345 58.0825 289.511 58.3467C289.677 58.6109 289.76 58.9149 289.76 59.2586C289.76 59.6629 289.653 60.0147 289.439 60.3139C289.228 60.6099 288.92 60.8407 288.514 61.0062C288.112 61.1686 287.623 61.2497 287.049 61.2497H283.484ZM285.108 59.8889H287.049C287.368 59.8889 287.619 59.8141 287.801 59.6645C287.983 59.5117 288.074 59.3048 288.074 59.0438C288.074 58.7414 287.983 58.5042 287.801 58.3323C287.619 58.1573 287.368 58.0697 287.049 58.0697H285.108V59.8889ZM285.108 56.9524H286.608C286.844 56.9524 287.047 56.919 287.216 56.8522C287.385 56.7821 287.515 56.685 287.604 56.5609C287.694 56.4336 287.738 56.2824 287.738 56.1073C287.738 55.8558 287.635 55.6585 287.427 55.5152C287.223 55.372 286.938 55.3004 286.574 55.3004H285.108V56.9524Z" fill="white"/>
<path d="M293.578 61.3977C293.112 61.3977 292.692 61.315 292.318 61.1495C291.948 60.9808 291.654 60.7325 291.437 60.4046C291.223 60.0767 291.116 59.6725 291.116 59.1918C291.116 58.778 291.193 58.4358 291.346 58.1652C291.499 57.8947 291.708 57.6782 291.973 57.5159C292.238 57.3535 292.537 57.231 292.869 57.1482C293.204 57.0623 293.551 57.0002 293.909 56.962C294.34 56.9174 294.689 56.8776 294.958 56.8426C295.226 56.8044 295.421 56.7471 295.542 56.6707C295.667 56.5911 295.729 56.4686 295.729 56.3031V56.2744C295.729 55.9147 295.622 55.6362 295.408 55.4388C295.194 55.2415 294.886 55.1428 294.483 55.1428C294.059 55.1428 293.722 55.2351 293.473 55.4197C293.227 55.6044 293.061 55.8224 292.975 56.0739L291.355 55.8447C291.483 55.399 291.694 55.0266 291.988 54.7274C292.282 54.425 292.641 54.199 293.066 54.0494C293.49 53.8966 293.96 53.8202 294.474 53.8202C294.828 53.8202 295.181 53.8616 295.533 53.9443C295.884 54.0271 296.205 54.164 296.495 54.355C296.786 54.5428 297.019 54.799 297.195 55.1237C297.374 55.4484 297.463 55.8542 297.463 56.3413V61.2497H295.796V60.2423H295.739C295.633 60.446 295.485 60.637 295.293 60.8152C295.105 60.9903 294.867 61.132 294.579 61.2402C294.295 61.3452 293.961 61.3977 293.578 61.3977ZM294.028 60.1277C294.376 60.1277 294.678 60.0592 294.934 59.9223C295.189 59.7823 295.386 59.5977 295.523 59.3685C295.663 59.1393 295.734 58.8894 295.734 58.6188V57.7546C295.679 57.7992 295.587 57.8405 295.456 57.8787C295.328 57.9169 295.184 57.9504 295.025 57.979C294.865 58.0077 294.707 58.0331 294.551 58.0554C294.394 58.0777 294.258 58.0968 294.143 58.1127C293.885 58.1477 293.653 58.205 293.449 58.2846C293.244 58.3642 293.083 58.4756 292.965 58.6188C292.847 58.7589 292.788 58.9403 292.788 59.1632C292.788 59.4815 292.904 59.7218 293.137 59.8841C293.371 60.0465 293.668 60.1277 294.028 60.1277Z" fill="white"/>
</svg>
