<svg width="33" height="32" viewBox="0 0 33 32" fill="none" xmlns="http://www.w3.org/2000/svg">
<g opacity="0.4">
<path d="M19.7366 10.6055C19.7366 9.11328 18.5169 7.89332 17.014 7.89332C15.5111 7.89332 14.2913 9.11328 14.2913 10.6055C14.2913 12.1087 15.5111 13.3178 17.014 13.3178C18.5169 13.3178 19.7366 12.1087 19.7366 10.6055Z" fill="#1B3F5E"/>
<path fill-rule="evenodd" clip-rule="evenodd" d="M14.6223 0L13.6502 0.00399797L12.4302 0.0159995L11.5715 0.0333342L11.0248 0.0493337L10.2407 0.082668L9.74338 0.109334L9.26336 0.142668L8.80201 0.181335L8.35799 0.226671C6.03656 0.488016 4.44716 1.04805 3.24711 2.2481C2.04706 3.44815 1.48703 5.03887 1.22569 7.35897L1.18169 7.80299L1.14169 8.263L1.10835 8.74303L1.08035 9.24171L1.05902 9.75907L1.04035 10.2964L1.02568 10.8538L1.01635 11.4311L1.00301 12.6499L0.999014 13.6232L0.997681 18.0407L1.00301 19.3475L1.01501 20.5675L1.03235 21.4262L1.04835 21.9729L1.08168 22.7569L1.10835 23.2543L1.14169 23.7343L1.18035 24.1957L1.22569 24.6397C1.48703 26.9611 2.04706 28.5505 3.24711 29.7506C4.44716 30.9506 6.03789 31.5106 8.35799 31.772L8.80201 31.816L9.26203 31.856L9.74205 31.8893L10.2407 31.9173L10.7581 31.9387L11.2954 31.9573L11.8528 31.972L12.4302 31.9813L13.6489 31.9947L14.6223 31.9987L19.0398 32L20.3465 31.9947L21.5665 31.9827L22.4252 31.9653L22.9719 31.9493L23.756 31.916L24.2533 31.8893L24.7333 31.856L25.1947 31.8173L25.6387 31.772C27.9601 31.5106 29.5495 30.9506 30.7496 29.7506C31.9496 28.5505 32.5097 26.9598 32.771 24.6397L32.815 24.1957L32.855 23.7357L32.8884 23.2556L32.9164 22.7569L32.9377 22.2396L32.9564 21.7022L32.971 21.1449L32.9804 20.5675L32.9937 19.3488L32.9977 18.3754L32.999 13.9579L32.9937 12.6512L32.9817 11.4311L32.9644 10.5724L32.9484 10.0257L32.915 9.24171L32.8884 8.74436L32.855 8.26434L32.8164 7.80299L32.771 7.35897C32.5097 5.03754 31.9496 3.44815 30.7496 2.2481C29.5495 1.04805 27.9588 0.488016 25.6387 0.226671L25.1947 0.182671L24.7347 0.142668L24.2547 0.109334L23.756 0.0813328L23.2386 0.0600001L22.7013 0.0413302L22.1439 0.0266659L21.5665 0.0173347L20.3478 0.00399797L19.3745 0H14.6223ZM21.0544 16.531C22.1979 15.6487 23.0582 16.1716 23.3632 16.7924C23.9077 17.8817 23.2978 18.4154 21.9147 19.2977C20.7385 20.0493 19.1376 20.3434 18.103 20.4414L18.9634 21.3237L22.2088 24.5697C22.7097 25.0707 22.7097 25.8659 22.2088 26.3342L22.0672 26.5085C21.5662 26.9987 20.7712 26.9987 20.2811 26.5085L20.2811 26.5084C19.4534 25.6806 18.2663 24.4934 17.014 23.2626L13.7795 26.5085C13.2894 26.9987 12.4835 26.9987 11.9934 26.5085L11.841 26.3342C11.3509 25.8659 11.3509 25.0707 11.841 24.5697C12.6412 23.7586 13.8074 22.6024 15.022 21.3983L15.0972 21.3237L15.9685 20.4523C14.923 20.3434 13.3003 20.0602 12.1132 19.2977C10.7301 18.4154 10.1203 17.8817 10.6648 16.7924C10.9697 16.1716 11.8301 15.6487 12.9736 16.531C14.5309 17.7728 17.014 17.7728 17.014 17.7728C17.014 17.7728 19.497 17.7728 21.0544 16.531ZM22.5246 10.6055C22.5246 13.6554 20.0633 16.1171 17.014 16.1171C13.9646 16.1171 11.5034 13.6554 11.5034 10.6055C11.5034 9.14378 12.0839 7.74189 13.1174 6.70827C14.1508 5.67465 15.5525 5.09396 17.014 5.09396C18.4755 5.09396 19.8771 5.67465 20.9106 6.70827C21.944 7.74189 22.5246 9.14378 22.5246 10.6055Z" fill="#1B3F5E"/>
</g>
</svg>
