<svg width="33" height="32" viewBox="0 0 33 32" fill="none" xmlns="http://www.w3.org/2000/svg">
<g opacity="0.4">
<path d="M19.7362 10.6055C19.7362 9.11328 18.5165 7.89332 17.0136 7.89332C15.5107 7.89332 14.291 9.11328 14.291 10.6055C14.291 12.1087 15.5107 13.3178 17.0136 13.3178C18.5165 13.3178 19.7362 12.1087 19.7362 10.6055Z" fill="white"/>
<path fill-rule="evenodd" clip-rule="evenodd" d="M14.6219 0L13.6498 0.00399797L12.4298 0.0159995L11.5711 0.0333342L11.0244 0.0493337L10.2404 0.082668L9.74302 0.109334L9.26299 0.142668L8.80164 0.181335L8.35762 0.226671C6.03619 0.488016 4.44679 1.04805 3.24674 2.2481C2.04669 3.44815 1.48667 5.03887 1.22532 7.35897L1.18132 7.80299L1.14132 8.263L1.10799 8.74303L1.07998 9.24171L1.05865 9.75907L1.03998 10.2964L1.02532 10.8538L1.01598 11.4311L1.00265 12.6499L0.998648 13.6232L0.997314 18.0407L1.00265 19.3475L1.01465 20.5675L1.03198 21.4262L1.04798 21.9729L1.08132 22.7569L1.10799 23.2543L1.14132 23.7343L1.17999 24.1957L1.22532 24.6397C1.48667 26.9611 2.04669 28.5505 3.24674 29.7506C4.44679 30.9506 6.03753 31.5106 8.35762 31.772L8.80164 31.816L9.26166 31.856L9.74168 31.8893L10.2404 31.9173L10.7577 31.9387L11.2951 31.9573L11.8524 31.972L12.4298 31.9813L13.6485 31.9947L14.6219 31.9987L19.0394 32L20.3461 31.9947L21.5662 31.9827L22.4249 31.9653L22.9716 31.9493L23.7556 31.916L24.253 31.8893L24.733 31.856L25.1943 31.8173L25.6383 31.772C27.9598 31.5106 29.5492 30.9506 30.7492 29.7506C31.9493 28.5505 32.5093 26.9598 32.7706 24.6397L32.8146 24.1957L32.8547 23.7357L32.888 23.2556L32.916 22.7569L32.9373 22.2396L32.956 21.7022L32.9707 21.1449L32.98 20.5675L32.9933 19.3488L32.9973 18.3754L32.9987 13.9579L32.9933 12.6512L32.9813 11.4311L32.964 10.5724L32.948 10.0257L32.9147 9.24171L32.888 8.74436L32.8547 8.26434L32.816 7.80299L32.7706 7.35897C32.5093 5.03754 31.9493 3.44815 30.7492 2.2481C29.5492 1.04805 27.9584 0.488016 25.6383 0.226671L25.1943 0.182671L24.7343 0.142668L24.2543 0.109334L23.7556 0.0813328L23.2382 0.0600001L22.7009 0.0413302L22.1435 0.0266659L21.5662 0.0173347L20.3475 0.00399797L19.3741 0H14.6219ZM21.054 16.531C22.1975 15.6487 23.0579 16.1716 23.3628 16.7924C23.9073 17.8817 23.2975 18.4154 21.9144 19.2977C20.7382 20.0493 19.1373 20.3434 18.1027 20.4414L18.963 21.3237L22.2084 24.5697C22.7094 25.0707 22.7094 25.8659 22.2084 26.3342L22.0668 26.5085C21.5659 26.9987 20.7709 26.9987 20.2808 26.5085L20.2807 26.5084C19.453 25.6806 18.266 24.4934 17.0136 23.2626L13.7791 26.5085C13.289 26.9987 12.4831 26.9987 11.9931 26.5085L11.8406 26.3342C11.3505 25.8659 11.3505 25.0707 11.8406 24.5697C12.6409 23.7586 13.807 22.6024 15.0216 21.3983L15.0969 21.3237L15.9681 20.4523C14.9226 20.3434 13.2999 20.0602 12.1129 19.2977C10.7298 18.4154 10.1199 17.8817 10.6644 16.7924C10.9694 16.1716 11.8297 15.6487 12.9732 16.531C14.5306 17.7728 17.0136 17.7728 17.0136 17.7728C17.0136 17.7728 19.4967 17.7728 21.054 16.531ZM22.5242 10.6055C22.5242 13.6554 20.063 16.1171 17.0136 16.1171C13.9643 16.1171 11.503 13.6554 11.503 10.6055C11.503 9.14378 12.0836 7.74189 13.117 6.70827C14.1505 5.67465 15.5521 5.09396 17.0136 5.09396C18.4751 5.09396 19.8768 5.67465 20.9102 6.70827C21.9436 7.74189 22.5242 9.14378 22.5242 10.6055Z" fill="white"/>
</g>
</svg>
