<svg width="33" height="32" viewBox="0 0 33 32" fill="none" xmlns="http://www.w3.org/2000/svg">
<g opacity="0.4">
<path fill-rule="evenodd" clip-rule="evenodd" d="M14.6232 0L13.6512 0.00399797L12.4311 0.0159995L11.5724 0.0333342L11.0257 0.0493337L10.2417 0.082668L9.74436 0.109334L9.26434 0.142668L8.80299 0.181335L8.35897 0.226671C6.03754 0.488016 4.44814 1.04805 3.24809 2.2481C2.04803 3.44815 1.48801 5.03887 1.22667 7.35897L1.18266 7.80299L1.14266 8.263L1.10933 8.74303L1.08133 9.24171L1.05999 9.75907L1.04133 10.2964L1.02666 10.8538L1.01732 11.4311L1.00399 12.6499L0.999991 13.6232L0.998657 18.0407L1.00399 19.3475L1.01599 20.5675L1.03333 21.4262L1.04933 21.9729L1.08266 22.7569L1.10933 23.2543L1.14266 23.7343L1.18133 24.1957L1.22667 24.6397C1.48801 26.9611 2.04803 28.5505 3.24809 29.7506C4.44814 30.9506 6.03887 31.5106 8.35897 31.772L8.80299 31.816L9.263 31.856L9.74302 31.8893L10.2417 31.9173L10.7591 31.9387L11.2964 31.9573L11.8538 31.972L12.4311 31.9813L13.6499 31.9947L14.6232 31.9987L19.0407 32L20.3475 31.9947L21.5675 31.9827L22.4262 31.9653L22.9729 31.9493L23.7569 31.916L24.2543 31.8893L24.7343 31.856L25.1957 31.8173L25.6397 31.772C27.9611 31.5106 29.5505 30.9506 30.7506 29.7506C31.9506 28.5505 32.5106 26.9598 32.772 24.6397L32.816 24.1957L32.856 23.7357L32.8893 23.2556L32.9173 22.7569L32.9387 22.2396L32.9573 21.7022L32.972 21.1449L32.9813 20.5675L32.9947 19.3488L32.9987 18.3754L33 13.9579L32.9947 12.6512L32.9827 11.4311L32.9653 10.5724L32.9493 10.0257L32.916 9.24171L32.8893 8.74436L32.856 8.26434L32.8173 7.80299L32.772 7.35897C32.5106 5.03754 31.9506 3.44815 30.7506 2.2481C29.5505 1.04805 27.9598 0.488016 25.6397 0.226671L25.1957 0.182671L24.7357 0.142668L24.2556 0.109334L23.7569 0.0813328L23.2396 0.0600001L22.7022 0.0413302L22.1449 0.0266659L21.5675 0.0173347L20.3488 0.00399797L19.3754 0H14.6232ZM23.7826 22.0171C24.3556 18.942 25.4842 12.2706 25.7447 9.5256C25.7538 9.39753 25.7485 9.25019 25.744 9.12417C25.7399 9.01085 25.7365 8.91476 25.7447 8.86541C25.7273 8.72642 25.6752 8.53531 25.5016 8.39632C25.2932 8.22259 24.9633 8.18784 24.8244 8.18784C24.1646 8.18784 23.1749 8.53531 18.348 10.5506C16.6637 11.2456 13.2953 12.7049 8.22526 14.9114C7.40919 15.2415 6.9751 15.5542 6.94037 15.8669C6.87811 16.4121 7.55557 16.6221 8.48474 16.9101C8.59193 16.9434 8.70246 16.9776 8.8156 17.0136C9.70112 17.3089 10.8818 17.639 11.5069 17.6564C12.0625 17.6737 12.6876 17.4305 13.3821 16.9614C18.1223 13.7647 20.5531 12.149 20.7094 12.1142C20.723 12.1123 20.7368 12.1101 20.7508 12.1079C20.8616 12.0906 20.9815 12.0719 21.074 12.149C21.1128 12.1901 21.141 12.2401 21.1561 12.2946C21.1713 12.3491 21.1729 12.4065 21.1608 12.4617C21.0919 12.7515 18.2741 15.3643 16.9867 16.5581C16.653 16.8675 16.4222 17.0815 16.3686 17.1352C16.2351 17.271 16.0995 17.4 15.9688 17.5241C15.1307 18.3207 14.4994 18.9205 15.9866 19.8975C16.7203 20.3812 17.3039 20.779 17.8929 21.1806C18.4888 21.5868 19.0902 21.9969 19.8586 22.5036C20.0537 22.6325 20.2404 22.7657 20.4223 22.8955C21.1473 23.4126 21.797 23.876 22.602 23.8066C23.0534 23.7545 23.5396 23.3201 23.7826 22.0171Z" fill="white"/>
</g>
</svg>
