<svg width="32" height="32" viewBox="0 0 32 32" fill="none" xmlns="http://www.w3.org/2000/svg">
<path fill-rule="evenodd" clip-rule="evenodd" d="M13.6236 0L12.6516 0.00399797L11.4315 0.0159995L10.5728 0.0333342L10.0261 0.0493337L9.24208 0.082668L8.74472 0.109334L8.2647 0.142668L7.80335 0.181335L7.35933 0.226671C5.0379 0.488016 3.4485 1.04805 2.24845 2.2481C1.0484 3.44815 0.488377 5.03887 0.227033 7.35897L0.183031 7.80299L0.143029 8.263L0.109695 8.74303L0.0816936 9.24171L0.0603593 9.75907L0.0416919 10.2964L0.0270246 10.8538L0.0176909 11.4311L0.004357 12.6499L0.000356827 13.6232L-0.000976562 18.0407L0.004357 19.3475L0.0163575 20.5675L0.0336916 21.4262L0.0496922 21.9729L0.083027 22.7569L0.109695 23.2543L0.143029 23.7343L0.181698 24.1957L0.227033 24.6397C0.488377 26.9611 1.0484 28.5505 2.24845 29.7506C3.4485 30.9506 5.03924 31.5106 7.35933 31.772L7.80335 31.816L8.26337 31.856L8.74339 31.8893L9.24208 31.9173L9.75943 31.9387L10.2968 31.9573L10.8541 31.972L11.4315 31.9813L12.6502 31.9947L13.6236 31.9987L18.0411 32L19.3478 31.9947L20.5679 31.9827L21.4266 31.9653L21.9733 31.9493L22.7573 31.916L23.2547 31.8893L23.7347 31.856L24.196 31.8173L24.6401 31.772C26.9615 31.5106 28.5509 30.9506 29.7509 29.7506C30.951 28.5505 31.511 26.9598 31.7724 24.6397L31.8164 24.1957L31.8564 23.7357L31.8897 23.2556L31.9177 22.7569L31.939 22.2396L31.9577 21.7022L31.9724 21.1449L31.9817 20.5675L31.995 19.3488L31.999 18.3754L32.0004 13.9579L31.995 12.6512L31.983 11.4311L31.9657 10.5724L31.9497 10.0257L31.9164 9.24171L31.8897 8.74436L31.8564 8.26434L31.8177 7.80299L31.7724 7.35897C31.511 5.03754 30.951 3.44815 29.7509 2.2481C28.5509 1.04805 26.9602 0.488016 24.6401 0.226671L24.196 0.182671L23.736 0.142668L23.256 0.109334L22.7573 0.0813328L22.24 0.0600001L21.7026 0.0413302L21.1452 0.0266659L20.5679 0.0173347L19.3492 0.00399797L18.3758 0H13.6236ZM22.783 22.0171C23.356 18.942 24.4846 12.2706 24.745 9.5256C24.7542 9.39753 24.7489 9.25019 24.7444 9.12417C24.7403 9.01085 24.7368 8.91476 24.745 8.86541C24.7277 8.72642 24.6756 8.53531 24.502 8.39632C24.2936 8.22259 23.9637 8.18784 23.8248 8.18784C23.165 8.18784 22.1753 8.53531 17.3483 10.5506C15.6641 11.2456 12.2957 12.7049 7.22562 14.9114C6.40955 15.2415 5.97547 15.5542 5.94074 15.8669C5.87847 16.4121 6.55594 16.6221 7.48511 16.9101C7.59229 16.9434 7.70283 16.9776 7.81597 17.0136C8.70149 17.3089 9.88218 17.639 10.5073 17.6564C11.0629 17.6737 11.688 17.4305 12.3825 16.9614C17.1226 13.7647 19.5535 12.149 19.7097 12.1142C19.7233 12.1123 19.7372 12.1101 19.7512 12.1079C19.862 12.0906 19.9818 12.0719 20.0744 12.149C20.1132 12.1901 20.1414 12.2401 20.1565 12.2946C20.1716 12.3491 20.1732 12.4065 20.1612 12.4617C20.0922 12.7515 17.2745 15.3643 15.987 16.5581C15.6534 16.8675 15.4226 17.0815 15.3689 17.1352C15.2355 17.271 15.0998 17.4 14.9692 17.5241C14.131 18.3207 13.4998 18.9205 14.987 19.8975C15.7207 20.3812 16.3042 20.779 16.8933 21.1806C17.4891 21.5868 18.0906 21.9969 18.8589 22.5036C19.054 22.6325 19.2407 22.7657 19.4227 22.8955C20.1476 23.4126 20.7973 23.876 21.6023 23.8066C22.0538 23.7545 22.5399 23.3201 22.783 22.0171Z" fill="#1B3F5E" fill-opacity="0.4"/>
</svg>
