<svg width="32" height="32" viewBox="0 0 32 32" fill="none" xmlns="http://www.w3.org/2000/svg">
<mask id="mask0_553_1125" style="mask-type:alpha" maskUnits="userSpaceOnUse" x="0" y="0" width="32" height="32">
<rect width="32" height="32" fill="#000018"/>
</mask>
<g mask="url(#mask0_553_1125)">
<path d="M15.9999 21.1C17.5999 21.1 18.961 20.5389 20.0831 19.4168C21.2053 18.2947 21.7663 16.9336 21.7663 15.3336C21.7663 13.7336 21.2053 12.3725 20.0831 11.2504C18.961 10.1277 17.5999 9.56641 15.9999 9.56641C14.3999 9.56641 13.0389 10.1277 11.9167 11.2504C10.7946 12.3725 10.2335 13.7336 10.2335 15.3336C10.2335 16.9336 10.7946 18.2947 11.9167 19.4168C13.0389 20.5389 14.3999 21.1 15.9999 21.1ZM15.9999 18.8664C14.9999 18.8664 14.161 18.5221 13.4831 17.8336C12.8053 17.1445 12.4663 16.3112 12.4663 15.3336C12.4663 14.3336 12.8109 13.4947 13.4999 12.8168C14.189 12.1389 15.0223 11.8 15.9999 11.8C16.9999 11.8 17.8389 12.1445 18.5167 12.8336C19.1946 13.5221 19.5335 14.3555 19.5335 15.3336C19.5335 16.3336 19.189 17.1723 18.4999 17.8496C17.8109 18.5275 16.9775 18.8664 15.9999 18.8664ZM15.9999 25.5336C12.7109 25.5336 9.72741 24.5947 7.04954 22.7168C4.37221 20.8389 2.40021 18.3779 1.13354 15.3336C2.40021 12.2888 4.37221 9.82774 7.04954 7.95041C9.72741 6.07254 12.7109 5.13361 15.9999 5.13361C19.289 5.13361 22.2722 6.07254 24.9495 7.95041C27.6274 9.82774 29.5997 12.2888 30.8663 15.3336C29.5997 18.3779 27.6274 20.8389 24.9495 22.7168C22.2722 24.5947 19.289 25.5336 15.9999 25.5336ZM15.9999 23.1C18.6223 23.1 21.0335 22.3944 23.2335 20.9832C25.4335 19.572 27.1111 17.6888 28.2663 15.3336C27.1111 12.9779 25.4335 11.0944 23.2335 9.68321C21.0335 8.27201 18.6223 7.56641 15.9999 7.56641C13.3775 7.56641 10.9663 8.27201 8.76634 9.68321C6.56634 11.0944 4.87754 12.9779 3.69994 15.3336C4.87754 17.6888 6.56634 19.572 8.76634 20.9832C10.9663 22.3944 13.3775 23.1 15.9999 23.1Z" fill="white"/>
</g>
</svg>
