<svg width="33" height="32" viewBox="0 0 33 32" fill="none" xmlns="http://www.w3.org/2000/svg">
<path opacity="0.4" d="M13.6485 0.00400017L14.6205 0H19.3727L20.3461 0.00400017L21.5648 0.0173341L22.1422 0.0266678L22.6995 0.0413351L23.2369 0.0600025L23.7543 0.0813367L24.2529 0.109338L24.733 0.142673L25.193 0.182674L25.637 0.226676C27.9571 0.48802 29.5478 1.04804 30.7479 2.24809C31.9479 3.44814 32.508 5.03754 32.7693 7.35897L32.8146 7.80299L32.8533 8.26434L32.8866 8.74436L32.9133 9.24172L32.9466 10.0258L32.9626 10.5724L32.98 11.4311L32.992 12.6512L32.9973 13.9579L32.996 18.3754L32.992 19.3488L32.9786 20.5675L32.9693 21.1449L32.9546 21.7022L32.936 22.2396L32.9146 22.7569L32.8866 23.2556L32.8533 23.7357L32.8133 24.1957L32.7693 24.6397C32.508 26.9598 31.9479 28.5505 30.7479 29.7506C29.5478 30.9506 27.9584 31.5106 25.637 31.772L25.193 31.8173L24.7316 31.856L24.2516 31.8893L23.7543 31.916L22.9702 31.9493L22.4235 31.9653L21.5648 31.9827L20.3448 31.9947L19.0381 32L14.6205 31.9987L13.6472 31.9947L12.4284 31.9813L11.8511 31.972L11.2937 31.9573L10.7564 31.9387L10.239 31.9173L9.74034 31.8893L9.26032 31.856L8.8003 31.816L8.35628 31.772C6.03618 31.5106 4.44545 30.9506 3.2454 29.7506C2.04535 28.5505 1.48533 26.9611 1.22398 24.6397L1.17865 24.1957L1.13998 23.7343L1.10664 23.2543L1.07998 22.7569L1.04664 21.9729L1.03064 21.4262L1.01331 20.5675L1.00131 19.3475L0.995972 18.0408L0.997305 13.6232L1.00131 12.6499L1.01464 11.4311L1.02397 10.8538L1.03864 10.2964L1.05731 9.75907L1.07864 9.24172L1.10664 8.74303L1.13998 8.26301L1.17998 7.80299L1.22398 7.35897C1.48533 5.03888 2.04535 3.44814 3.2454 2.24809C4.44545 1.04804 6.03485 0.48802 8.35628 0.226676L8.8003 0.181341L9.26165 0.142673L9.74167 0.109338L10.239 0.0826701L11.0231 0.0493354L11.5697 0.0333347L12.4284 0.0160007L13.6485 0.00400017ZM10.0497 9.73241H6.3962C6.56954 18.0528 10.7297 23.053 18.0233 23.053H18.4367V18.2928C21.1168 18.5594 23.1436 20.5195 23.9569 23.053H27.7438C26.7037 19.2661 23.9703 17.1727 22.2635 16.3727C23.9703 15.386 26.3704 12.9859 26.9437 9.73241H23.5036C22.7569 12.3725 20.5435 14.7726 18.4367 14.9993V9.73241H14.9966V18.9595C12.8631 18.4261 10.1697 15.8393 10.0497 9.73241Z" fill="white"/>
</svg>
