<svg width="33" height="32" viewBox="0 0 33 32" fill="none" xmlns="http://www.w3.org/2000/svg">
<path opacity="0.4" d="M13.6489 0.00400017L14.6209 0H19.3731L20.3465 0.00400017L21.5652 0.0173341L22.1426 0.0266678L22.6999 0.0413351L23.2373 0.0600025L23.7546 0.0813367L24.2533 0.109338L24.7333 0.142673L25.1933 0.182674L25.6374 0.226676C27.9575 0.48802 29.5482 1.04804 30.7482 2.24809C31.9483 3.44814 32.5083 5.03754 32.7697 7.35897L32.815 7.80299L32.8537 8.26434L32.887 8.74436L32.9137 9.24172L32.947 10.0258L32.963 10.5724L32.9803 11.4311L32.9923 12.6512L32.9977 13.9579L32.9963 18.3754L32.9923 19.3488L32.979 20.5675L32.9697 21.1449L32.955 21.7022L32.9363 22.2396L32.915 22.7569L32.887 23.2556L32.8537 23.7357L32.8137 24.1957L32.7697 24.6397C32.5083 26.9598 31.9483 28.5505 30.7482 29.7506C29.5482 30.9506 27.9588 31.5106 25.6374 31.772L25.1933 31.8173L24.732 31.856L24.252 31.8893L23.7546 31.916L22.9706 31.9493L22.4239 31.9653L21.5652 31.9827L20.3451 31.9947L19.0384 32L14.6209 31.9987L13.6475 31.9947L12.4288 31.9813L11.8515 31.972L11.2941 31.9573L10.7567 31.9387L10.2394 31.9173L9.7407 31.8893L9.26068 31.856L8.80066 31.816L8.35665 31.772C6.03655 31.5106 4.44582 30.9506 3.24577 29.7506C2.04571 28.5505 1.48569 26.9611 1.22435 24.6397L1.17901 24.1957L1.14034 23.7343L1.10701 23.2543L1.08034 22.7569L1.04701 21.9729L1.03101 21.4262L1.01367 20.5675L1.00167 19.3475L0.996338 18.0408L0.997671 13.6232L1.00167 12.6499L1.01501 11.4311L1.02434 10.8538L1.03901 10.2964L1.05767 9.75907L1.07901 9.24172L1.10701 8.74303L1.14034 8.26301L1.18035 7.80299L1.22435 7.35897C1.48569 5.03888 2.04571 3.44814 3.24577 2.24809C4.44582 1.04804 6.03521 0.48802 8.35665 0.226676L8.80066 0.181341L9.26202 0.142673L9.74204 0.109338L10.2394 0.0826701L11.0234 0.0493354L11.5701 0.0333347L12.4288 0.0160007L13.6489 0.00400017ZM10.05 9.73241H6.39656C6.5699 18.0528 10.7301 23.053 18.0237 23.053H18.4371V18.2928C21.1172 18.5594 23.1439 20.5195 23.9573 23.053H27.7441C26.7041 19.2661 23.9706 17.1727 22.2639 16.3727C23.9706 15.386 26.3707 12.9859 26.9441 9.73241H23.5039C22.7572 12.3725 20.5438 14.7726 18.4371 14.9993V9.73241H14.9969V18.9595C12.8635 18.4261 10.1701 15.8393 10.05 9.73241Z" fill="#1B3F5E"/>
</svg>
